<svg xmlns="http://www.w3.org/2000/svg" width="930" height="465" viewBox="0 0 930 465">
  <g id="Grupo_7413" data-name="Grupo 7413" transform="translate(-4851 1328)">
    <rect id="Rectángulo_1502" data-name="Rectángulo 1502" width="930" height="465" transform="translate(4851 -1328)" fill="#023c7d"/>
    <g id="Grupo_7227" data-name="Grupo 7227" transform="translate(4851 -1462.634)">
      <rect id="Rectángulo_1504" data-name="Rectángulo 1504" width="603.997" height="3.495" transform="translate(928.354 465.773) rotate(180)" fill="#023773" opacity="0.7"/>
      <rect id="Rectángulo_1505" data-name="Rectángulo 1505" width="603.578" height="3.493" transform="translate(326.422 270.301)" fill="#023773" opacity="0.7"/>
      <g id="Grupo_7202" data-name="Grupo 7202" opacity="0.7">
        <rect id="Rectángulo_1506" data-name="Rectángulo 1506" width="3.73" height="464.601" transform="translate(327.866 599.634) rotate(180)" fill="#023773"/>
        <rect id="Rectángulo_1507" data-name="Rectángulo 1507" width="3.73" height="464.601" transform="translate(327.866 599.634) rotate(180)" fill="#023773"/>
        <rect id="Rectángulo_1508" data-name="Rectángulo 1508" width="3.73" height="464.601" transform="translate(374.184 599.634) rotate(180)" fill="#023773"/>
        <rect id="Rectángulo_1509" data-name="Rectángulo 1509" width="3.73" height="464.601" transform="translate(420.502 599.634) rotate(180)" fill="#023773"/>
        <rect id="Rectángulo_1510" data-name="Rectángulo 1510" width="3.73" height="464.601" transform="translate(466.82 599.634) rotate(180)" fill="#023773"/>
        <rect id="Rectángulo_1511" data-name="Rectángulo 1511" width="3.73" height="464.601" transform="translate(513.138 599.634) rotate(180)" fill="#023773"/>
        <rect id="Rectángulo_1512" data-name="Rectángulo 1512" width="3.73" height="464.601" transform="translate(559.456 599.634) rotate(180)" fill="#023773"/>
        <rect id="Rectángulo_1513" data-name="Rectángulo 1513" width="3.73" height="464.601" transform="translate(605.774 599.634) rotate(180)" fill="#023773"/>
        <rect id="Rectángulo_1514" data-name="Rectángulo 1514" width="3.73" height="464.601" transform="translate(652.091 599.634) rotate(180)" fill="#023773"/>
        <rect id="Rectángulo_1515" data-name="Rectángulo 1515" width="3.73" height="464.601" transform="translate(698.409 599.634) rotate(180)" fill="#023773"/>
        <rect id="Rectángulo_1516" data-name="Rectángulo 1516" width="3.73" height="464.601" transform="translate(744.727 599.634) rotate(180)" fill="#023773"/>
        <rect id="Rectángulo_1517" data-name="Rectángulo 1517" width="3.73" height="464.601" transform="translate(791.045 599.634) rotate(180)" fill="#023773"/>
        <rect id="Rectángulo_1518" data-name="Rectángulo 1518" width="3.73" height="464.601" transform="translate(837.363 599.634) rotate(180)" fill="#023773"/>
        <rect id="Rectángulo_1519" data-name="Rectángulo 1519" width="3.73" height="464.601" transform="translate(883.681 599.634) rotate(180)" fill="#023773"/>
        <rect id="Rectángulo_1520" data-name="Rectángulo 1520" width="3.731" height="464.6" transform="translate(926.269 135.033)" fill="#023773"/>
      </g>
      <g id="Grupo_7203" data-name="Grupo 7203">
        <path id="Trazado_16103" data-name="Trazado 16103" d="M268.131,516.608a14.609,14.609,0,0,0,1.7-.1,14.51,14.51,0,0,0-1.67-28.922,14.51,14.51,0,0,0-.03,29.021Zm.03-27.274a12.763,12.763,0,0,1,1.467,25.44,12.92,12.92,0,0,1-1.5.087,12.763,12.763,0,0,1-1.467-25.439A12.935,12.935,0,0,1,268.161,489.334Z" fill="#023773"/>
      </g>
      <g id="Grupo_7204" data-name="Grupo 7204">
        <path id="Trazado_16104" data-name="Trazado 16104" d="M290.919,400.073a7.716,7.716,0,0,0,.886-.052,7.549,7.549,0,1,0-.886.052Zm.016-14.2a6.647,6.647,0,0,1,.764,13.248,6.556,6.556,0,0,1-.78.046,6.647,6.647,0,0,1-.764-13.248A6.788,6.788,0,0,1,290.935,385.869Z" fill="#023773"/>
      </g>
      <g id="Grupo_7205" data-name="Grupo 7205">
        <path id="Trazado_16105" data-name="Trazado 16105" d="M817.017,382.709a7.557,7.557,0,0,0,7.513-8.434,7.553,7.553,0,0,0-7.5-6.679,7.7,7.7,0,0,0-.885.052,7.556,7.556,0,0,0,.869,15.061Zm.016-14.2a6.646,6.646,0,0,1,.764,13.248,6.762,6.762,0,0,1-.78.046,6.646,6.646,0,0,1-.763-13.248A6.551,6.551,0,0,1,817.033,368.506Z" fill="#023773"/>
      </g>
      <g id="Grupo_7208" data-name="Grupo 7208">
        <g id="Grupo_7206" data-name="Grupo 7206">
          <path id="Trazado_16106" data-name="Trazado 16106" d="M290.907,451.8c-.952,5.043-6.213,8.822-11.192,6.193-1.694-.894-2.512-2.6-3.436-4.186-1.413-2.429-3.119-5.927-5.811-7.142a8.54,8.54,0,0,0-5.261-.584c-2.017.475-2.737,1.769-3.649,3.489-1.205,2.272-2.209,4.66-3.454,6.907-1.917,3.462-6.869,4.555-10.353,2.842-2.423-1.192-2.549-3.469-3.55-5.7a12.567,12.567,0,0,0-8.21-6.638,9.548,9.548,0,0,0-8.9,2.825c-1.993,1.931-2.522,4.334-3.8,6.669-2.153,3.915-8.27,4.05-11.546,1.536-3.723-2.857-4.285-8.229-8.248-10.9-3.052-2.059-8.556-2.766-11.509-.117-1.96,1.759-2.214,4.892-3.787,7-3.482,4.668-9.584,6.782-14.981,8.217a.991.991,0,0,1-.527-1.91c4.948-1.316,10.8-3.2,13.97-7.541,1.375-1.881,1.685-4.3,3.048-6.168,1.592-2.189,4.308-3.068,6.917-3.209,5.4-.291,9.624,2.484,12.245,7.03,1.084,1.881,1.944,4.058,3.545,5.577a6.862,6.862,0,0,0,6.24,1.519c3.55-.838,3.537-4.645,5.384-7.2a14.628,14.628,0,0,1,4.334-3.972c5.252-3.118,11.506-1.086,15.443,3.2a12.279,12.279,0,0,1,2.214,3.335c.52,1.172.674,2.639,1.407,3.7,1.567,2.26,6.249,1.892,8.086.146,1.039-.988,1.559-2.626,2.169-3.885,1.16-2.4,2.24-5.731,4.363-7.445,2.19-1.768,5.592-1.759,8.15-.925,2.962.965,4.521,3.3,6.19,5.789,1.253,1.867,2.314,5.175,4.523,6.135,3.947,1.715,7.372-1.378,8.076-5.109.236-1.251,2.146-.721,1.91.527Z" fill="#023773"/>
        </g>
        <g id="Grupo_7207" data-name="Grupo 7207">
          <path id="Trazado_16107" data-name="Trazado 16107" d="M290.2,448.067c-.865,4.654-5.949,6.633-10.193,5.641-5.836-1.365-8.926-7.11-14.391-9.005-6.493-2.252-7.916,4.3-10.916,8.239-1.093,1.436-2.846,3.139-4.817,2.941-2.365-.237-4.025-3.254-5.345-4.92-3.665-4.627-9.53-9.815-14.948-4.389-3.581,3.587-7.846,7.677-13.41,6.485-5.106-1.094-6.641-6.916-11.175-8.964a10.775,10.775,0,0,0-8.714-.056c-2.477,1.115-4.338,3.171-6.092,5.182a31.927,31.927,0,0,1-6.079,5.934,21.321,21.321,0,0,1-8.433,3.025c-1.5.247-3.016.407-4.531.539-1.18.1-2.617.42-3.73-.15-2.114-1.083-1.258-3.724-2.22-5.467-.617-1.117,1.093-2.117,1.71-1a6.251,6.251,0,0,1,.686,2.189c.221,1.483.082,2.4,1.916,2.581a19.588,19.588,0,0,0,3.941-.364,31.715,31.715,0,0,0,4.9-.933c5.483-1.556,8.282-5.6,12.018-9.5,3.161-3.3,7.108-5.384,11.786-4.792a12.575,12.575,0,0,1,5.841,2.283c1.939,1.416,3.187,3.444,4.8,5.175,4.85,5.186,10.8,1.143,14.756-2.921,1.523-1.566,3.1-3.037,5.312-3.486a10.118,10.118,0,0,1,6.632,1.193,17.57,17.57,0,0,1,5,4.273c1.52,1.773,4.309,7.152,7.133,5.479,1.757-1.041,2.722-3.488,3.665-5.194a12.79,12.79,0,0,1,3.605-4.549c4.559-3.166,9.813.122,13.394,3.157,2.545,2.156,5.16,4.53,8.552,5.181,3.2.615,6.8-.893,7.438-4.332.232-1.252,2.142-.721,1.91.527Z" fill="#023773"/>
        </g>
      </g>
      <g id="Grupo_7214" data-name="Grupo 7214">
        <g id="Grupo_7209" data-name="Grupo 7209">
          <rect id="Rectángulo_1521" data-name="Rectángulo 1521" width="7.73" height="7.73" transform="translate(874.307 463.19)" fill="#023773"/>
          <rect id="Rectángulo_1522" data-name="Rectángulo 1522" width="7.73" height="7.73" transform="translate(889.051 463.19)" fill="#023773"/>
          <rect id="Rectángulo_1523" data-name="Rectángulo 1523" width="7.73" height="7.73" transform="translate(903.795 463.19)" fill="#023773"/>
          <rect id="Rectángulo_1524" data-name="Rectángulo 1524" width="7.73" height="7.73" transform="translate(918.539 463.19)" fill="#023773"/>
        </g>
        <g id="Grupo_7210" data-name="Grupo 7210">
          <rect id="Rectángulo_1525" data-name="Rectángulo 1525" width="7.73" height="7.73" transform="translate(889.051 476.279)" fill="#023773"/>
          <rect id="Rectángulo_1526" data-name="Rectángulo 1526" width="7.73" height="7.73" transform="translate(903.795 476.279)" fill="#023773"/>
          <rect id="Rectángulo_1527" data-name="Rectángulo 1527" width="7.73" height="7.73" transform="translate(918.539 476.279)" fill="#023773"/>
        </g>
        <g id="Grupo_7211" data-name="Grupo 7211">
          <rect id="Rectángulo_1528" data-name="Rectángulo 1528" width="7.73" height="7.73" transform="translate(903.795 489.368)" fill="#023773"/>
          <rect id="Rectángulo_1529" data-name="Rectángulo 1529" width="7.73" height="7.73" transform="translate(918.539 489.368)" fill="#023773"/>
        </g>
        <g id="Grupo_7212" data-name="Grupo 7212">
          <rect id="Rectángulo_1530" data-name="Rectángulo 1530" width="7.73" height="7.73" transform="translate(903.795 502.458)" fill="#023773"/>
          <rect id="Rectángulo_1531" data-name="Rectángulo 1531" width="7.73" height="7.73" transform="translate(918.539 502.458)" fill="#023773"/>
        </g>
        <g id="Grupo_7213" data-name="Grupo 7213">
          <rect id="Rectángulo_1532" data-name="Rectángulo 1532" width="7.73" height="7.73" transform="translate(918.539 515.547)" fill="#023773"/>
        </g>
      </g>
      <g id="Grupo_7220" data-name="Grupo 7220">
        <g id="Grupo_7215" data-name="Grupo 7215">
          <rect id="Rectángulo_1533" data-name="Rectángulo 1533" width="9.883" height="9.883" transform="translate(273.186 584.411) rotate(180)" fill="#023773"/>
          <rect id="Rectángulo_1534" data-name="Rectángulo 1534" width="9.883" height="9.883" transform="translate(254.335 584.411) rotate(180)" fill="#023773"/>
          <rect id="Rectángulo_1535" data-name="Rectángulo 1535" width="9.883" height="9.883" transform="translate(235.485 584.411) rotate(180)" fill="#023773"/>
          <rect id="Rectángulo_1536" data-name="Rectángulo 1536" width="9.883" height="9.883" transform="translate(216.635 584.411) rotate(180)" fill="#023773"/>
        </g>
        <g id="Grupo_7216" data-name="Grupo 7216">
          <rect id="Rectángulo_1537" data-name="Rectángulo 1537" width="9.883" height="9.883" transform="translate(254.335 567.677) rotate(180)" fill="#023773"/>
          <rect id="Rectángulo_1538" data-name="Rectángulo 1538" width="9.883" height="9.883" transform="translate(235.485 567.677) rotate(180)" fill="#023773"/>
          <rect id="Rectángulo_1539" data-name="Rectángulo 1539" width="9.883" height="9.883" transform="translate(216.635 567.677) rotate(180)" fill="#023773"/>
        </g>
        <g id="Grupo_7217" data-name="Grupo 7217">
          <rect id="Rectángulo_1540" data-name="Rectángulo 1540" width="9.883" height="9.883" transform="translate(235.485 550.942) rotate(180)" fill="#023773"/>
          <rect id="Rectángulo_1541" data-name="Rectángulo 1541" width="9.883" height="9.883" transform="translate(216.635 550.942) rotate(180)" fill="#023773"/>
        </g>
        <g id="Grupo_7218" data-name="Grupo 7218">
          <rect id="Rectángulo_1542" data-name="Rectángulo 1542" width="9.883" height="9.883" transform="translate(235.485 534.207) rotate(180)" fill="#023773"/>
          <rect id="Rectángulo_1543" data-name="Rectángulo 1543" width="9.883" height="9.883" transform="translate(216.635 534.207) rotate(180)" fill="#023773"/>
        </g>
        <g id="Grupo_7219" data-name="Grupo 7219">
          <rect id="Rectángulo_1544" data-name="Rectángulo 1544" width="9.883" height="9.883" transform="translate(216.635 517.473) rotate(180)" fill="#023773"/>
        </g>
      </g>
      <g id="Grupo_7226" data-name="Grupo 7226">
        <g id="Grupo_7221" data-name="Grupo 7221">
          <rect id="Rectángulo_1545" data-name="Rectángulo 1545" width="7.73" height="7.73" transform="translate(439.246 142.762) rotate(180)" fill="#023773"/>
          <rect id="Rectángulo_1546" data-name="Rectángulo 1546" width="7.73" height="7.73" transform="translate(424.502 142.762) rotate(180)" fill="#023773"/>
          <rect id="Rectángulo_1547" data-name="Rectángulo 1547" width="7.73" height="7.73" transform="translate(409.758 142.762) rotate(180)" fill="#023773"/>
          <rect id="Rectángulo_1548" data-name="Rectángulo 1548" width="7.73" height="7.73" transform="translate(395.014 142.762) rotate(180)" fill="#023773"/>
        </g>
        <g id="Grupo_7222" data-name="Grupo 7222">
          <rect id="Rectángulo_1549" data-name="Rectángulo 1549" width="7.73" height="7.73" transform="translate(424.502 155.852) rotate(180)" fill="#023773"/>
          <rect id="Rectángulo_1550" data-name="Rectángulo 1550" width="7.73" height="7.73" transform="translate(409.758 155.852) rotate(180)" fill="#023773"/>
          <rect id="Rectángulo_1551" data-name="Rectángulo 1551" width="7.73" height="7.73" transform="translate(395.014 155.852) rotate(180)" fill="#023773"/>
        </g>
        <g id="Grupo_7223" data-name="Grupo 7223">
          <rect id="Rectángulo_1552" data-name="Rectángulo 1552" width="7.73" height="7.73" transform="translate(409.758 168.941) rotate(180)" fill="#023773"/>
          <rect id="Rectángulo_1553" data-name="Rectángulo 1553" width="7.73" height="7.73" transform="translate(395.014 168.941) rotate(180)" fill="#023773"/>
        </g>
        <g id="Grupo_7224" data-name="Grupo 7224">
          <rect id="Rectángulo_1554" data-name="Rectángulo 1554" width="7.73" height="7.73" transform="translate(409.758 182.03) rotate(180)" fill="#023773"/>
          <rect id="Rectángulo_1555" data-name="Rectángulo 1555" width="7.73" height="7.73" transform="translate(395.014 182.03) rotate(180)" fill="#023773"/>
        </g>
        <g id="Grupo_7225" data-name="Grupo 7225">
          <rect id="Rectángulo_1556" data-name="Rectángulo 1556" width="7.73" height="7.73" transform="translate(395.014 195.119) rotate(180)" fill="#023773"/>
        </g>
      </g>
    </g>
  </g>
</svg>
