<svg xmlns="http://www.w3.org/2000/svg" width="94.304" height="94.414" viewBox="0 0 94.304 94.414">
  <g id="Grupo_7271" data-name="Grupo 7271" transform="translate(-708.452 -693.533)">
    <g id="Grupo_7264" data-name="Grupo 7264">
      <path id="Trazado_16180" data-name="Trazado 16180" d="M756.076,693.533h-.944a46.68,46.68,0,0,0-46.68,46.68v1.054c0,.45.021.895.033,1.342a46.671,46.671,0,0,0,46.647,45.338h.944a46.687,46.687,0,0,0,46.68-46.68v-1.053A46.681,46.681,0,0,0,756.076,693.533Z" fill="#578a8c"/>
      <path id="Trazado_16181" data-name="Trazado 16181" d="M746.735,704.359l-38.25,38.25a46.671,46.671,0,0,0,46.647,45.338h.944a46.491,46.491,0,0,0,19.194-4.131l10.082-10.082L756.595,745.6l5.694-13.788Z" opacity="0.2"/>
    </g>
    <g id="Grupo_7270" data-name="Grupo 7270">
      <g id="Grupo_7267" data-name="Grupo 7267">
        <rect id="Rect치ngulo_1615" data-name="Rect치ngulo 1615" width="10.157" height="18.407" transform="translate(751.348 733.122)" fill="#f2ae9c"/>
        <path id="Trazado_16182" data-name="Trazado 16182" d="M782.661,755.911c-.082-6.367-3.515-8.111-3.515-8.111-.338-3.3-17.444-6.225-17.64-6.019l-5.045,5.872-5.113-5.872c-.2-.206-17.234,2.723-17.571,6.019,0,0-2.484,1.039-3.5,8.155h0l-.008.03a.457.457,0,0,1-.015.1h.008l-2.152,11.422,56.286.14Z" fill="#ff7f36"/>
        <path id="Trazado_16183" data-name="Trazado 16183" d="M743.153,718.245c-2.021,3.826,2.509,17.154,5.648,17.154h15.106c3.123,0,8.551-14.253,5.774-17.065-3.469-2.366-12.144-5.32-12.144-5.32S745.76,715.986,743.153,718.245Z" fill="#663f30"/>
        <g id="Grupo_7265" data-name="Grupo 7265">
          <path id="Trazado_16184" data-name="Trazado 16184" d="M744.789,725.969a3.731,3.731,0,0,1-1.5-7.261C745.075,718.334,746.587,725.595,744.789,725.969Z" fill="#ffb7a4"/>
        </g>
        <g id="Grupo_7266" data-name="Grupo 7266">
          <path id="Trazado_16185" data-name="Trazado 16185" d="M767.814,725.969a3.733,3.733,0,0,0,1.512-7.261C767.539,718.334,766.026,725.595,767.814,725.969Z" fill="#ffb7a4"/>
        </g>
        <path id="Trazado_16186" data-name="Trazado 16186" d="M756.4,739.242c13.951,0,12.446-25.426,12.446-25.426s-.6-8.345-12.135-8.345a12.69,12.69,0,0,0-12.517,8.54S742.653,739.242,756.4,739.242Z" fill="#ffb7a4"/>
        <path id="Trazado_16187" data-name="Trazado 16187" d="M742.582,718.939c1.219-.266,2.518,2.046,2.518,2.046l.5-8.824s14.323,2.668,16.7-2.811c3.941-1.567,4.716,2.793,4.716,2.793s1.049,9.644,1.013,9.271c.632-2.475,2.394-2.225,2.394-2.225s3.781-17.705-13.924-17.705S742.557,718.442,742.582,718.939Z" fill="#663f30"/>
        <path id="Trazado_16188" data-name="Trazado 16188" d="M764.306,732.726a4.317,4.317,0,0,0-1.267-2.251l.016,0-.147-.73a2.627,2.627,0,0,0-2.626-2.627h-7.709a3.461,3.461,0,0,0-2.949,3.2l.014,0a3.367,3.367,0,0,0-1.081,2.409c0,5.165,2.572,6.549,8.669,8.018C756.94,739.4,765.59,739.517,764.306,732.726Zm-7.879.6c-2.3,0-4.161-.748-4.161-1.669s1.863-1.67,4.161-1.67,4.161.748,4.161,1.67S758.725,733.326,756.427,733.326Z" fill="#663f30"/>
        <path id="Trazado_16189" data-name="Trazado 16189" d="M760.633,713.014a43.586,43.586,0,0,1,1.745,5.659h-.712A28.984,28.984,0,0,1,760.633,713.014Z" fill="#f66"/>
        <path id="Trazado_16190" data-name="Trazado 16190" d="M764.679,730.422a43.552,43.552,0,0,1-1.745-5.66h.713A29.079,29.079,0,0,1,764.679,730.422Z" fill="#f66"/>
        <path id="Trazado_16191" data-name="Trazado 16191" d="M758.385,726.031h-3.916v-.009c0-.5.808-.9,1.806-.9h.3c1,0,1.806.4,1.806.9Z" fill="#a6776a"/>
      </g>
      <g id="Grupo_7269" data-name="Grupo 7269">
        <rect id="Rect치ngulo_1616" data-name="Rect치ngulo 1616" width="58.152" height="19.025" transform="translate(727.2 754.71)" fill="#fff"/>
        <g id="Grupo_7268" data-name="Grupo 7268">
          <path id="Trazado_16192" data-name="Trazado 16192" d="M736.235,766.095a3.728,3.728,0,0,0,1.574.417c.823,0,1.24-.4,1.24-.906,0-.667-.667-.97-1.365-.97h-.647V763.5h.615c.532-.01,1.209-.208,1.209-.782,0-.406-.333-.708-1-.708a3.1,3.1,0,0,0-1.417.406l-.324-1.146a4.244,4.244,0,0,1,2.1-.511c1.449,0,2.251.761,2.251,1.688a1.621,1.621,0,0,1-1.24,1.574v.021a1.684,1.684,0,0,1,1.47,1.647c0,1.2-1.053,2.074-2.773,2.074a4,4,0,0,1-2.011-.48Z"/>
          <path id="Trazado_16193" data-name="Trazado 16193" d="M746.591,760.874v1l-2.794,5.773H742.12l2.792-5.451v-.02h-3.1v-1.3Z"/>
          <path id="Trazado_16194" data-name="Trazado 16194" d="M747.514,767.648v-.959l.876-.792c1.48-1.323,2.2-2.084,2.22-2.876,0-.553-.334-.99-1.115-.99a2.453,2.453,0,0,0-1.449.562l-.448-1.135a3.744,3.744,0,0,1,2.219-.7,2.106,2.106,0,0,1,2.377,2.126c0,1.136-.824,2.043-1.8,2.918l-.625.521v.021h2.554v1.3Z"/>
          <path id="Trazado_16195" data-name="Trazado 16195" d="M753.795,766.5a3.706,3.706,0,0,0,.688,0,2.734,2.734,0,0,0,1.334-.417,2.11,2.11,0,0,0,.854-1.251l-.031-.01a1.791,1.791,0,0,1-1.355.49,2.042,2.042,0,0,1-2.116-2.116,2.463,2.463,0,0,1,2.554-2.439c1.74,0,2.563,1.334,2.563,2.918a3.673,3.673,0,0,1-3.772,4.065,5.51,5.51,0,0,1-.719,0Zm.959-3.4a.964.964,0,0,0,.958,1.084,1,1,0,0,0,.876-.448.748.748,0,0,0,.083-.4c0-.719-.271-1.428-.99-1.428C755.139,761.916,754.743,762.4,754.754,763.1Z"/>
          <path id="Trazado_16196" data-name="Trazado 16196" d="M761.878,767.648v-1.615h-3V765l2.563-4.127h1.939v3.971h.813v1.188h-.813v1.615Zm0-2.8v-1.5c0-.406.021-.823.053-1.261h-.042c-.219.438-.4.834-.625,1.261l-.907,1.48v.021Z"/>
          <path id="Trazado_16197" data-name="Trazado 16197" d="M764.751,765.877a1.8,1.8,0,0,1,1.209-1.7v-.031a1.645,1.645,0,0,1-.98-1.48c0-1.147,1.032-1.908,2.387-1.908,1.584,0,2.24.917,2.24,1.741a1.651,1.651,0,0,1-.979,1.49v.031a1.793,1.793,0,0,1,1.24,1.689c0,1.23-1.032,2.053-2.6,2.053C765.543,767.763,764.751,766.794,764.751,765.877Zm3.5-.053c0-.594-.437-.948-1.063-1.115a1.027,1.027,0,0,0-.823,1.011.929.929,0,0,0,.959.949A.851.851,0,0,0,768.252,765.824Zm-1.781-3.21c0,.459.416.751.958.917a.926.926,0,0,0,.688-.864.777.777,0,0,0-.823-.834A.755.755,0,0,0,766.471,762.614Z"/>
          <path id="Trazado_16198" data-name="Trazado 16198" d="M775.159,762.177h-2.627l-.146,1.042a2.917,2.917,0,0,1,.438-.021,3.1,3.1,0,0,1,1.782.49,1.927,1.927,0,0,1,.824,1.7c0,1.262-1.084,2.377-2.908,2.377a4.312,4.312,0,0,1-1.887-.386l.282-1.188a3.888,3.888,0,0,0,1.532.334c.656,0,1.355-.313,1.355-1.032,0-.7-.553-1.126-1.908-1.126a5.812,5.812,0,0,0-.917.063l.449-3.554h3.731Z"/>
        </g>
      </g>
    </g>
  </g>
</svg>
