<svg xmlns="http://www.w3.org/2000/svg" width="76.376" height="76.375" viewBox="0 0 76.376 76.375">
  <g id="Grupo_7422" data-name="Grupo 7422" transform="translate(-531.813 -2161.366)">
    <g id="Grupo_7186" data-name="Grupo 7186" transform="translate(-3208.542 836.579)">
      <circle id="Elipse_722" data-name="Elipse 722" cx="38.188" cy="38.188" r="38.188" transform="translate(3740.354 1324.787)" fill="#d39dff"/>
    </g>
    <g id="bank-money-protect-security-protection" transform="translate(-3208.542 836.579)">
      <path id="Trazado_16047" data-name="Trazado 16047" d="M3774.542,1352.308a2.667,2.667,0,1,0-2.667-2.667A2.667,2.667,0,0,0,3774.542,1352.308Zm0-4a1.333,1.333,0,1,1-1.333,1.333A1.333,1.333,0,0,1,3774.542,1348.308Z" fill="#6a737f"/>
      <path id="Trazado_16048" data-name="Trazado 16048" d="M3774.542,1360.975a.667.667,0,0,1,.667.666h1.333a2,2,0,0,0-1.333-1.877v-.789h-1.334v.789a2,2,0,0,0,.667,3.877.667.667,0,1,1-.667.667h-1.333a2,2,0,0,0,1.333,1.877v.79h1.334v-.79a2,2,0,0,0-.667-3.877.667.667,0,1,1,0-1.333Z" fill="#6a737f"/>
      <path id="Trazado_16049" data-name="Trazado 16049" d="M3798.1,1365.681l-7.333-2.666a.657.657,0,0,0-.454,0l-3.106,1.126v-6.5h1.333a.667.667,0,0,0,.667-.666v-2h.666a.667.667,0,0,0,.38-1.214l-15.333-10.666a.662.662,0,0,0-.76,0l-15.333,10.666a.667.667,0,0,0,.38,1.214h.666v2a.667.667,0,0,0,.667.666h1.333v10.667h-1.333a.667.667,0,0,0-.667.667v2h-.666a.666.666,0,0,0-.667.666v2.667a.667.667,0,0,0,.667.667h23.833a8.74,8.74,0,0,0,2.333,3.54l4.72,4.286a.663.663,0,0,0,.894,0l4.72-4.286a8.692,8.692,0,0,0,2.833-6.414v-5.793A.663.663,0,0,0,3798.1,1365.681Zm-23.56-21.226,13.207,9.186h-3.874v-1.333h-1.333v1.333h-1.333v-1.333h-1.334v1.333h-1.333v-1.333h-1.333v1.333h-5.334v-1.333h-1.333v1.333h-1.333v-1.333h-1.334v1.333h-1.333v-1.333h-1.333v1.333h-3.874Zm-13.333,11.853v-1.333h26.666v1.333Zm24.666,1.333v2.6a3.341,3.341,0,0,1-2.6-2.6Zm-22.666,6.72v-2.773a4.666,4.666,0,0,0,3.946-3.947h3.407a6.637,6.637,0,0,0,0,10.667h-3.407A4.666,4.666,0,0,0,3763.209,1364.361Zm2.6,3.947h-2.6v-2.6A3.341,3.341,0,0,1,3765.809,1368.308Zm-2.6-8.067v-2.6h2.6A3.341,3.341,0,0,1,3763.209,1360.241Zm6,2.734a5.333,5.333,0,1,1,5.333,5.333A5.333,5.333,0,0,1,3769.209,1362.975Zm-8,6.666h21.333v1.334h-21.333Zm-1.334,4v-1.333h22.68a8.065,8.065,0,0,0,.134,1.333Zm23.107-7.96a.661.661,0,0,0-.44.627v2h-4.02a6.639,6.639,0,0,0,0-10.667h3.407a4.666,4.666,0,0,0,3.946,3.947v3.04Zm14.227,6.42a7.351,7.351,0,0,1-2.4,5.427l-4.267,3.88-4.267-3.88a7.351,7.351,0,0,1-2.4-5.427v-5.326l6.667-2.427,6.667,2.427Z" fill="#6a737f"/>
      <path id="Trazado_16050" data-name="Trazado 16050" d="M3787.68,1371.837l-.943.942,2.667,2.667a.667.667,0,0,0,.943,0l4.666-4.667-.942-.942-4.2,4.195Z" fill="#6a737f"/>
    </g>
  </g>
</svg>
