<svg xmlns="http://www.w3.org/2000/svg" width="68.187" height="89.438" viewBox="0 0 68.187 89.438">
  <g id="Grupo_7146" data-name="Grupo 7146" transform="translate(-160.772 247.674)">
    <path id="Trazado_15921" data-name="Trazado 15921" d="M228.958-202.959q0,21.006,0,42.013c0,1.948-.773,2.707-2.728,2.707q-27.195,0-54.388,0a10.641,10.641,0,0,1-11.054-10.984q-.031-33.731.008-67.462a10.606,10.606,0,0,1,11.039-10.983q27.195-.012,54.388,0c2,0,2.735.752,2.736,2.8Q228.961-223.915,228.958-202.959Zm-4.364,23.345v-63.752H173.62v63.752Zm.026,4.358h-52.8c-.333,0-.666.008-1,.032a6.391,6.391,0,0,0-5.713,5.726c-.281,4.034,2.567,7,6.78,7.006q25.848.018,51.7.01c.324,0,.648-.027.99-.043v-4.248H223.4c-2.928,0-5.855.009-8.783,0a4.374,4.374,0,0,1-1.372-.161,2.043,2.043,0,0,1-1.286-2.323,2.1,2.1,0,0,1,2.221-1.747c3.126-.018,6.254-.007,9.381-.007h1.059Zm-55.3-67.609a.908.908,0,0,0-.268-.027,2.719,2.719,0,0,0-.458.188,6.425,6.425,0,0,0-3.526,6.118q.028,29.039.012,58.078c0,.31.036.619.054.9a28.652,28.652,0,0,1,3.245-1.423c.809-.247.958-.628.958-1.392q-.031-30.735-.016-61.472Z" fill="#00223d"/>
    <path id="Trazado_15922" data-name="Trazado 15922" d="M206.923-219.875a2.21,2.21,0,0,1,2.014,1.448c1.116,2.3,2.28,4.577,3.376,6.887a1.358,1.358,0,0,0,1.2.85c2.47.327,4.935.694,7.4,1.041a2.386,2.386,0,0,1,2.288,1.611,2.384,2.384,0,0,1-.968,2.535c-1.8,1.729-3.569,3.484-5.38,5.2a1.364,1.364,0,0,0-.434,1.408c.461,2.447.884,4.9,1.307,7.357a2.374,2.374,0,0,1-.758,2.613,2.436,2.436,0,0,1-2.8-.061c-2.193-1.182-4.41-2.317-6.6-3.51a1.361,1.361,0,0,0-1.467.011c-2.25,1.213-4.527,2.377-6.782,3.583a2.276,2.276,0,0,1-2.619,0,2.265,2.265,0,0,1-.779-2.493c.47-2.479.825-4.981,1.309-7.458a1.481,1.481,0,0,0-.552-1.541c-1.806-1.72-3.567-3.487-5.371-5.208a2.317,2.317,0,0,1-.834-2.489,2.271,2.271,0,0,1,2.126-1.535c2.5-.349,5-.732,7.5-1.06a1.462,1.462,0,0,0,1.276-.91c1.106-2.3,2.272-4.581,3.385-6.883A2.211,2.211,0,0,1,206.923-219.875Zm5.914,25.356c-.29-1.687-.5-3.192-.816-4.676a3.192,3.192,0,0,1,1.054-3.388c1.159-1.015,2.172-2.2,3.339-3.4-1.626-.242-3.15-.53-4.688-.677a2.938,2.938,0,0,1-2.676-1.878c-.647-1.472-1.415-2.89-2.206-4.483-.54,1.069-1,1.982-1.463,2.894-1.792,3.524-1.128,3.149-5.04,3.691-1.021.141-2.038.319-2.96.464,1.206,1.283,2.343,2.537,3.533,3.74a2.6,2.6,0,0,1,.785,2.525c-.327,1.653-.574,3.321-.889,5.182,1.588-.828,3.04-1.534,4.44-2.332a2.961,2.961,0,0,1,3.192.021C209.82-196.051,211.247-195.351,212.836-194.519Z" transform="translate(-7.711 -7.242)" fill="#00223d"/>
  </g>
</svg>
