<svg xmlns="http://www.w3.org/2000/svg" xmlns:xlink="http://www.w3.org/1999/xlink" width="76.376" height="76.376" viewBox="0 0 76.376 76.376">
  <defs>
    <linearGradient id="linear-gradient" y1="0.5" x2="1" y2="0.5" gradientUnits="objectBoundingBox">
      <stop offset="0" stop-color="#0f7"/>
      <stop offset="1" stop-color="#00ff87"/>
    </linearGradient>
  </defs>
  <g id="Grupo_7421" data-name="Grupo 7421" transform="translate(-531.813 -1846.511)">
    <g id="Grupo_7178" data-name="Grupo 7178" transform="translate(-3208.542 836.579)">
      <circle id="Elipse_718" data-name="Elipse 718" cx="38.188" cy="38.188" r="38.188" transform="translate(3740.354 1009.932)" fill="url(#linear-gradient)"/>
    </g>
    <g id="Grupo_7180" data-name="Grupo 7180" transform="translate(-3208.542 836.579)">
      <g id="Grupo_7179" data-name="Grupo 7179">
        <path id="Trazado_16031" data-name="Trazado 16031" d="M3798.514,1068.36l-2-11.68a3.322,3.322,0,0,0-2.33-2.638l-5.381-1.624a6.006,6.006,0,0,0-4.165-5.213c.17-.189.328-.377.473-.561a10.437,10.437,0,0,0,2.139-4.645h.415a1.961,1.961,0,0,0,1.959-1.958v-1a1.973,1.973,0,0,0-1.015-1.712v-2.414a.661.661,0,1,0-1.321,0v2.71a3.993,3.993,0,0,0-.878.254.6.6,0,0,0-.093.041c-.071.033-.142.067-.213.1V1032.7a2.669,2.669,0,0,0-2.667-2.667h-1.822a2.74,2.74,0,0,0-1.73.617l-.179.146a1.844,1.844,0,0,1-2.336,0l-.179-.146a2.738,2.738,0,0,0-1.729-.617h-1.824a2.669,2.669,0,0,0-2.666,2.667v5.322c-.071-.038-.142-.072-.213-.1a.6.6,0,0,0-.093-.041,3.993,3.993,0,0,0-.878-.254v-6.853a3.883,3.883,0,0,1,3.879-3.878h9.742a3.883,3.883,0,0,1,3.879,3.878v1.039a.661.661,0,0,0,1.321,0v-1.039a5.206,5.206,0,0,0-5.2-5.2h-9.742a5.206,5.206,0,0,0-5.2,5.2v6.557a1.973,1.973,0,0,0-1.015,1.712v1a1.961,1.961,0,0,0,1.959,1.958h.415a10.437,10.437,0,0,0,2.139,4.645c.145.184.3.372.473.561a6.023,6.023,0,0,0-4.165,5.213l-5.381,1.624a3.321,3.321,0,0,0-2.33,2.638l-.811,4.743a.66.66,0,1,0,1.3.222l.811-4.743a2.012,2.012,0,0,1,1.409-1.6l4.978-1.5v1.307a3.3,3.3,0,0,0-2.512,2.079,3.354,3.354,0,0,0-.2.9l-.481,6.175a1.679,1.679,0,0,0,1.673,1.809h.824a.661.661,0,0,0,0-1.321h-.824a.358.358,0,0,1-.356-.386l.481-6.174a1.976,1.976,0,0,1,.119-.543,2,2,0,0,1,1.869-1.273h.124a1.979,1.979,0,0,1,1.844,1.183,2.015,2.015,0,0,1,.155.634l.481,6.175a.358.358,0,0,1-.357.385h-.823a.661.661,0,1,0,0,1.321h.823a1.68,1.68,0,0,0,1.674-1.809l-.481-6.175a3.353,3.353,0,0,0-.256-1.047,3.272,3.272,0,0,0-2.461-1.934v-1.7l2.271-.685c.206.435.616,1.375,1.426,3.4.818,2.044,1.833,4.665,2.808,7.213a.411.411,0,0,0,.023.063c.651,1.7,1.281,3.367,1.821,4.8a.66.66,0,0,0,1.236,0c.54-1.438,1.17-3.1,1.82-4.8a.551.551,0,0,0,.024-.063c.974-2.546,1.989-5.165,2.806-7.21.812-2.029,1.221-2.97,1.428-3.405l2.27.685v3.9a3.417,3.417,0,1,0,1.321,0V1053.8l4.978,1.5a2.012,2.012,0,0,1,1.409,1.6l2,11.681a.657.657,0,0,1-.647.766h-36.046a.656.656,0,0,1-.647-.766l.659-3.855a.66.66,0,1,0-1.3-.222l-.659,3.854a1.977,1.977,0,0,0,1.949,2.31h36.046a1.977,1.977,0,0,0,1.949-2.31Zm-11.214-29.394a2.824,2.824,0,0,1,.637-.086.664.664,0,0,0,.323-.077.637.637,0,0,1,.047.234v1a.638.638,0,0,1-.638.638h-.369v-1.713Zm-17.516,1.713h-.37a.638.638,0,0,1-.637-.638v-1a.628.628,0,0,1,.047-.233.675.675,0,0,0,.323.076,2.907,2.907,0,0,1,.637.087v1.712Zm1.321.74v-1.735a.928.928,0,0,0,1.192-.888v-6.1a1.347,1.347,0,0,1,1.345-1.346h1.823a1.412,1.412,0,0,1,.894.319l.179.146a3.166,3.166,0,0,0,4.008,0l.179-.146a1.41,1.41,0,0,1,.893-.319h1.823a1.348,1.348,0,0,1,1.346,1.346v6.1a.927.927,0,0,0,.928.927.95.95,0,0,0,.264-.038v1.734a8.545,8.545,0,0,1-1.9,4.408,8.74,8.74,0,0,1-1.583,1.569.424.424,0,0,0-.059.044,6.439,6.439,0,0,1-7.786,0,.512.512,0,0,0-.059-.044,8.748,8.748,0,0,1-1.583-1.569A8.545,8.545,0,0,1,3771.1,1041.419Zm11.764,10.671-4.327,3.234-4.327-3.234a3.137,3.137,0,0,0,.67-1.871v-1.064a7.758,7.758,0,0,0,7.314,0v1.064A3.137,3.137,0,0,0,3782.869,1052.09Zm-9.756-.738a1.812,1.812,0,0,0-1.114-.056l-.047.013-2.282.688a4.693,4.693,0,0,1,3.894-3.7v1.922A1.745,1.745,0,0,1,3773.113,1051.352Zm1.792,5.3,0-.009-.1-.251-.017-.044-.1-.24-.006-.017q-.147-.369-.283-.708l-.02-.049-.077-.192-.028-.069-.073-.181-.022-.053c-.043-.108-.086-.213-.128-.316l-.034-.083-.048-.119-.052-.125-.019-.047-.015-.036c-.076-.185-.149-.36-.217-.524l0,0-.107-.255-.053-.124,3.721,2.781-1.554.661-.009,0-.649.276Zm1.576,4.044c-.13-.339-.262-.679-.393-1.019q-.309-.8-.591-1.52l.246-.1,1.007,1.17Zm2.074,5.368a.671.671,0,0,0-.068-.111c-.3-.789-.677-1.787-1.1-2.885l.616-3.376h1.069l.617,3.376C3779.254,1064.22,3778.859,1065.261,3778.555,1066.066Zm.769-7.693h-1.564l-.741-.861,1.523-.646,1.523.646Zm1.672,1.306q-.2.51-.393,1.019l-.269-1.473,1.007-1.171.246.105Q3781.3,1058.882,3781,1059.679Zm2.53-6.347-.1.241-.014.033-.1.252-.007.018c-.032.075-.064.153-.1.232l-.018.043-.022.054-.044.107-.055.134-.018.044-.141.348-.023.056-.073.18-.028.071-.077.19-.022.054-.279.7-.009.024-.095.238-.018.045c-.032.083-.066.167-.1.252l0,.005-.11.278-.65-.276-.007,0-1.556-.661,3.722-2.781C3783.561,1053.249,3783.544,1053.29,3783.526,1053.332Zm1.606-2.023h0a1.81,1.81,0,0,0-1.159.044,1.745,1.745,0,0,1-.451-1.133V1048.3a4.655,4.655,0,0,1,3.9,3.7Zm5.126,9.352a2.1,2.1,0,1,1-2.1-2.1A2.1,2.1,0,0,1,3790.258,1060.661Z" fill="#6a737f"/>
      </g>
    </g>
  </g>
</svg>
