<svg xmlns="http://www.w3.org/2000/svg" width="76.376" height="76.376" viewBox="0 0 76.376 76.376">
  <g id="Grupo_7161" data-name="Grupo 7161" transform="translate(-3740.354 4.259)">
    <circle id="Elipse_709" data-name="Elipse 709" cx="38.188" cy="38.188" r="38.188" transform="translate(3740.354 -4.259)" fill="#7c6fd1"/>
    <g id="Grupo_7160" data-name="Grupo 7160">
      <path id="Trazado_15963" data-name="Trazado 15963" d="M3769.274,36.055a10.907,10.907,0,0,1-3.36-.52.684.684,0,0,1-.215-1.167,4.7,4.7,0,0,0,.9-1.156,9.18,9.18,0,0,0,1.252-4.713V25.942a10.341,10.341,0,0,1,3.208-7.618.685.685,0,1,1,.993.944,9.012,9.012,0,0,0-2.832,6.7V28.5a10.55,10.55,0,0,1-1.446,5.416q-.187.313-.379.581a7.791,7.791,0,0,0,7.108-1.906.685.685,0,1,1,.983.953A8.416,8.416,0,0,1,3769.274,36.055Z" fill="#fff"/>
      <path id="Trazado_15964" data-name="Trazado 15964" d="M3785.736,55.47a.685.685,0,0,1-.685-.685V50.3a.685.685,0,1,1,1.37,0v4.484A.685.685,0,0,1,3785.736,55.47Z" fill="#fff"/>
      <path id="Trazado_15965" data-name="Trazado 15965" d="M3771.658,55.47a.685.685,0,0,1-.685-.685V50.3a.685.685,0,0,1,1.37,0v4.484A.684.684,0,0,1,3771.658,55.47Z" fill="#fff"/>
      <path id="Trazado_15966" data-name="Trazado 15966" d="M3778.752,35.4a5.715,5.715,0,0,1-5.108-3.085c-.173-.326-.34-.672-.5-1.028a.717.717,0,0,1-.057-.18,15,15,0,0,1-.248-3.762.684.684,0,0,1,.594-.611,5.387,5.387,0,0,0,3.481-2.423.685.685,0,0,1,1.193.082s1.024,1.805,5.754,1.645a.689.689,0,0,1,.706.648,25.433,25.433,0,0,1-.232,4.4.76.76,0,0,1-.028.122s-.026.106-.081.272a5.654,5.654,0,0,1-4.969,3.895Q3779.006,35.4,3778.752,35.4Zm-4.322-4.6c.134.3.276.6.424.876a4.378,4.378,0,0,0,4.294,2.34,4.3,4.3,0,0,0,3.783-2.961c.029-.088.048-.154.058-.19a25.826,25.826,0,0,0,.229-3.445c-3.261-.015-4.905-.919-5.694-1.628a6.884,6.884,0,0,1-3.346,2.179A15.751,15.751,0,0,0,3774.43,30.8Z" fill="#fff"/>
      <path id="Trazado_15967" data-name="Trazado 15967" d="M3792.769,55.47h-28.144a.684.684,0,0,1-.684-.685V45.171a6.751,6.751,0,0,1,5.925-6.694l2.826-.345a2.938,2.938,0,0,0,2.469-1.868l.392-2.33a.685.685,0,0,1,1.014-.482,4.521,4.521,0,0,0,4.3.064.685.685,0,0,1,.994.494l.381,2.275a2.942,2.942,0,0,0,2.466,1.847l2.825.345a6.751,6.751,0,0,1,5.926,6.694v9.614A.685.685,0,0,1,3792.769,55.47ZM3765.31,54.1h26.774V45.171a5.379,5.379,0,0,0-4.722-5.334l-2.825-.346a4.276,4.276,0,0,1-3.647-2.958l-.241-1.442a5.924,5.924,0,0,1-3.893-.049l-.249,1.471a4.274,4.274,0,0,1-3.649,2.978l-2.827.346a5.379,5.379,0,0,0-4.721,5.334Z" fill="#fff"/>
      <path id="Trazado_15968" data-name="Trazado 15968" d="M3784.6,21.292a1.236,1.236,0,0,1-.4-.066,20.642,20.642,0,0,0-11.312,0,1.228,1.228,0,0,1-1.58-.826l-1.281-4.466a1.769,1.769,0,0,1,.973-2.112,20.56,20.56,0,0,1,15.088,0,1.769,1.769,0,0,1,.973,2.112l-1.281,4.466a1.227,1.227,0,0,1-1.181.892Zm-6.055-7.534a16.99,16.99,0,0,0-6.978,1.311.407.407,0,0,0-.222.488l1.24,4.326a22.157,22.157,0,0,1,11.919,0l1.241-4.326a.407.407,0,0,0-.222-.487A16.986,16.986,0,0,0,3778.542,13.758Z" fill="#fff"/>
      <path id="Trazado_15969" data-name="Trazado 15969" d="M3787.813,36.054a8.466,8.466,0,0,1-5.963-2.258.685.685,0,1,1,.942-1,7.872,7.872,0,0,0,6.893,1.7c-.127-.178-.254-.373-.379-.582a10.556,10.556,0,0,1-1.445-5.416V25.942a8.991,8.991,0,0,0-2.833-6.675.685.685,0,0,1,.994-.944,10.326,10.326,0,0,1,3.208,7.589V28.5a9.174,9.174,0,0,0,1.251,4.713,4.69,4.69,0,0,0,.9,1.156.684.684,0,0,1-.215,1.167A10.906,10.906,0,0,1,3787.813,36.054Z" fill="#fff"/>
      <path id="Trazado_15970" data-name="Trazado 15970" d="M3778.7,18.36a.685.685,0,0,1-.685-.685V15.266a.685.685,0,0,1,1.37,0v2.409A.685.685,0,0,1,3778.7,18.36Z" fill="#fff"/>
      <path id="Trazado_15971" data-name="Trazado 15971" d="M3779.9,17.155h-2.409a.685.685,0,0,1,0-1.37h2.409a.685.685,0,0,1,0,1.37Z" fill="#fff"/>
      <path id="Trazado_15972" data-name="Trazado 15972" d="M3773.274,48.241h-.209a.685.685,0,1,1,0-1.37h.209a.279.279,0,0,0,.279-.279V44.874a2,2,0,0,0-3.995,0v1.718a.28.28,0,0,0,.279.279h.209a.685.685,0,1,1,0,1.37h-.209a1.65,1.65,0,0,1-1.648-1.649V44.874a3.367,3.367,0,0,1,6.734,0v1.718A1.651,1.651,0,0,1,3773.274,48.241Z" fill="#fff"/>
      <path id="Trazado_15973" data-name="Trazado 15973" d="M3771.555,42.877a.684.684,0,0,1-.684-.685V38.948a.684.684,0,1,1,1.369,0v3.244A.685.685,0,0,1,3771.555,42.877Z" fill="#fff"/>
      <path id="Trazado_15974" data-name="Trazado 15974" d="M3785.736,43.485a.685.685,0,0,1-.685-.685V38.948a.685.685,0,1,1,1.37,0V42.8A.685.685,0,0,1,3785.736,43.485Z" fill="#fff"/>
      <path id="Trazado_15975" data-name="Trazado 15975" d="M3785.736,46.473a2.149,2.149,0,1,1,2.149-2.15A2.153,2.153,0,0,1,3785.736,46.473Zm0-2.929a.78.78,0,1,0,.78.779A.78.78,0,0,0,3785.736,43.544Z" fill="#fff"/>
      <path id="Trazado_15976" data-name="Trazado 15976" d="M3797.857,55.47h-38.63a.685.685,0,1,1,0-1.37h38.63a.685.685,0,1,1,0,1.37Z" fill="#fff"/>
    </g>
  </g>
</svg>
