<svg xmlns="http://www.w3.org/2000/svg" width="76.376" height="76.376" viewBox="0 0 76.376 76.376">
  <g id="Grupo_7417" data-name="Grupo 7417" transform="translate(-531.813 -1228.279)">
    <g id="Grupo_7168" data-name="Grupo 7168" transform="translate(-3208.542 836.579)">
      <circle id="Elipse_714" data-name="Elipse 714" cx="38.188" cy="38.188" r="38.188" transform="translate(3740.354 391.7)" fill="#e99237"/>
    </g>
    <g id="Grupo_7169" data-name="Grupo 7169" transform="translate(-3208.542 836.579)">
      <path id="Trazado_15991" data-name="Trazado 15991" d="M3778.542,434.4a4.521,4.521,0,0,1-4.516-4.516v-3.871a.645.645,0,0,1,.357-.577l3.871-1.936a.646.646,0,0,1,.933.578v1.29h3.226a.645.645,0,0,1,.645.645v3.871A4.521,4.521,0,0,1,3778.542,434.4Zm-3.226-7.988v3.472a3.226,3.226,0,0,0,6.452,0v-3.226h-3.226a.645.645,0,0,1-.645-.645v-.891Z" fill="#fff"/>
      <path id="Trazado_15992" data-name="Trazado 15992" d="M3783.058,426.017h-1.29v-3.226h-5.162a.663.663,0,0,1-.2-.032l-1.087-.363v3.621h-1.29V421.5a.646.646,0,0,1,.849-.612l1.836.612h5.7a.645.645,0,0,1,.645.645Z" fill="#fff"/>
      <path id="Trazado_15993" data-name="Trazado 15993" d="M3788.864,446.017h-20.645a.645.645,0,0,1-.638-.737l.816-5.709a4.537,4.537,0,0,1,4.47-3.877h3.094v-2.581h1.291v3.226a.646.646,0,0,1-.646.645h-3.739a3.243,3.243,0,0,0-3.194,2.77l-.71,4.973h19.158l-.711-4.972a3.242,3.242,0,0,0-3.193-2.77h-3.74a.645.645,0,0,1-.645-.645v-3.226h1.291V435.7h3.094a4.538,4.538,0,0,1,4.47,3.877l.815,5.709a.643.643,0,0,1-.638.736Z" fill="#fff"/>
      <path id="Trazado_15994" data-name="Trazado 15994" d="M3797.9,449.888h-38.71a.645.645,0,0,1-.645-.645v-3.871a.645.645,0,0,1,.645-.645h38.71a.645.645,0,0,1,.645.645v3.871A.645.645,0,0,1,3797.9,449.888Zm-38.065-1.29h37.42v-2.581h-37.42Z" fill="#fff"/>
      <path id="Trazado_15995" data-name="Trazado 15995" d="M3797.9,415.049h-38.71a.645.645,0,0,1-.645-.645v-3.871a.645.645,0,0,1,.645-.645h38.71a.645.645,0,0,1,.645.645V414.4A.645.645,0,0,1,3797.9,415.049Zm-38.065-1.29h37.42v-2.581h-37.42Z" fill="#fff"/>
      <path id="Trazado_15996" data-name="Trazado 15996" d="M3778.542,440.856a.642.642,0,0,1-.42-.156l-4.516-3.871.84-.979,4.1,3.511,4.1-3.51.84.979-4.516,3.871A.646.646,0,0,1,3778.542,440.856Z" fill="#fff"/>
      <path id="Trazado_15997" data-name="Trazado 15997" d="M3783.058,440.856h3.871v1.29h-3.871Z" fill="#fff"/>
      <path id="Trazado_15998" data-name="Trazado 15998" d="M3777.9,414.4h1.29v30.968h-1.29Z" fill="#fff"/>
      <path id="Trazado_15999" data-name="Trazado 15999" d="M3771.445,414.4h1.29v30.968h-1.29Z" fill="#fff"/>
      <path id="Trazado_16000" data-name="Trazado 16000" d="M3764.994,414.4h1.29v30.968h-1.29Z" fill="#fff"/>
      <path id="Trazado_16001" data-name="Trazado 16001" d="M3790.8,414.4h1.29v30.968h-1.29Z" fill="#fff"/>
      <path id="Trazado_16002" data-name="Trazado 16002" d="M3784.348,414.4h1.291v30.968h-1.291Z" fill="#fff"/>
    </g>
  </g>
</svg>
