<svg xmlns="http://www.w3.org/2000/svg" width="76.376" height="76.376" viewBox="0 0 76.376 76.376">
  <g id="Grupo_7416" data-name="Grupo 7416" transform="translate(-531.813 -916.186)">
    <g id="Grupo_7163" data-name="Grupo 7163" transform="translate(-3208.542 836.579)">
      <circle id="Elipse_710" data-name="Elipse 710" cx="9.767" cy="9.767" r="9.767" transform="translate(3768.775 108.027)" fill="#78cac5"/>
      <path id="Trazado_15979" data-name="Trazado 15979" d="M3784.529,117.795a5.987,5.987,0,1,1-5.987-5.987A5.987,5.987,0,0,1,3784.529,117.795Z" fill="#fff"/>
    </g>
    <g id="Grupo_7164" data-name="Grupo 7164" transform="translate(-3208.542 836.579)">
      <circle id="Elipse_711" data-name="Elipse 711" cx="38.188" cy="38.188" r="38.188" transform="translate(3740.354 79.607)" fill="#78cac5"/>
    </g>
    <g id="Grupo_7165" data-name="Grupo 7165" transform="translate(-3208.542 836.579)">
      <path id="Trazado_15980" data-name="Trazado 15980" d="M3797.871,134.65h-10.262a.671.671,0,0,1,0-1.342h9.582a6.96,6.96,0,0,0-12.412-3.971,20.03,20.03,0,0,0-1.814,2.861.672.672,0,0,1-1.207-.589,21.21,21.21,0,0,1,1.962-3.1,8.3,8.3,0,0,1,14.822,5.14v.328A.671.671,0,0,1,3797.871,134.65Z" fill="#fff"/>
      <path id="Trazado_15981" data-name="Trazado 15981" d="M3785.4,138.567h-13.722a.672.672,0,0,1-.671-.672V137.6a7.532,7.532,0,1,1,15.064,0v.294A.671.671,0,0,1,3785.4,138.567Zm-13.039-1.343h12.356a6.189,6.189,0,0,0-12.356,0Z" fill="#fff"/>
      <path id="Trazado_15982" data-name="Trazado 15982" d="M3778.542,129.061a3.926,3.926,0,1,1,3.926-3.926A3.93,3.93,0,0,1,3778.542,129.061Zm0-6.51a2.584,2.584,0,1,0,2.584,2.584A2.587,2.587,0,0,0,3778.542,122.551Z" fill="#fff"/>
      <path id="Trazado_15983" data-name="Trazado 15983" d="M3790.24,124.078a4.292,4.292,0,1,1,4.292-4.292A4.3,4.3,0,0,1,3790.24,124.078Zm0-7.241a2.949,2.949,0,1,0,2.949,2.949A2.953,2.953,0,0,0,3790.24,116.837Z" fill="#fff"/>
      <path id="Trazado_15984" data-name="Trazado 15984" d="M3769.475,134.65h-10.262a.67.67,0,0,1-.671-.671v-.328a8.3,8.3,0,0,1,14.817-5.148,21.353,21.353,0,0,1,1.967,3.106.672.672,0,0,1-1.207.589,20.164,20.164,0,0,0-1.819-2.869,6.961,6.961,0,0,0-12.407,3.979h9.582a.671.671,0,0,1,0,1.342Z" fill="#fff"/>
      <path id="Trazado_15985" data-name="Trazado 15985" d="M3766.844,124.078a4.292,4.292,0,1,1,4.292-4.292A4.3,4.3,0,0,1,3766.844,124.078Zm0-7.241a2.949,2.949,0,1,0,2.949,2.949A2.952,2.952,0,0,0,3766.844,116.837Z" fill="#fff"/>
      <path id="Trazado_15986" data-name="Trazado 15986" d="M3778.542,117.857a10.417,10.417,0,1,1,10.417-10.417A10.429,10.429,0,0,1,3778.542,117.857Zm0-19.492a9.075,9.075,0,1,0,9.075,9.075A9.085,9.085,0,0,0,3778.542,98.365Z" fill="#fff"/>
      <path id="Trazado_15987" data-name="Trazado 15987" d="M3778.542,115.359a7.919,7.919,0,1,1,7.919-7.919A7.928,7.928,0,0,1,3778.542,115.359Zm0-14.5a6.577,6.577,0,1,0,6.577,6.577A6.585,6.585,0,0,0,3778.542,100.863Z" fill="#fff"/>
      <path id="Trazado_15988" data-name="Trazado 15988" d="M3780.108,112.251h-3.132a.671.671,0,0,1-.672-.671v-1.9h-1.9a.672.672,0,0,1-.671-.672v-3.132a.672.672,0,0,1,.671-.672h1.9v-1.9a.672.672,0,0,1,.672-.671h3.132a.672.672,0,0,1,.672.671v1.9h1.9a.671.671,0,0,1,.671.672v3.132a.671.671,0,0,1-.671.672h-1.9v1.9A.671.671,0,0,1,3780.108,112.251Zm-2.461-1.343h1.79v-1.9a.672.672,0,0,1,.671-.671h1.9v-1.79h-1.9a.672.672,0,0,1-.671-.671v-1.9h-1.79v1.9a.672.672,0,0,1-.671.671h-1.9v1.79h1.9a.672.672,0,0,1,.671.671Z" fill="#fff"/>
    </g>
  </g>
</svg>
