<svg xmlns="http://www.w3.org/2000/svg" width="76.376" height="76.376" viewBox="0 0 76.376 76.376">
  <g id="Grupo_7419" data-name="Grupo 7419" transform="translate(-531.813 -1331.067)">
    <g id="Grupo_7418" data-name="Grupo 7418">
      <g id="Grupo_7173" data-name="Grupo 7173" transform="translate(-3208.542 836.579)">
        <circle id="Elipse_716" data-name="Elipse 716" cx="38.188" cy="38.188" r="38.188" transform="translate(3740.354 494.488)" fill="#d97198"/>
      </g>
      <g id="Grupo_7175" data-name="Grupo 7175" transform="translate(-3208.542 836.579)">
        <path id="Trazado_16006" data-name="Trazado 16006" d="M3787.966,551.7h-18.849a.613.613,0,0,1-.613-.614v-34.1a.613.613,0,0,1,.613-.614h18.849a.614.614,0,0,1,.614.614v34.1A.614.614,0,0,1,3787.966,551.7Zm-18.235-1.228h17.622V517.6h-17.622Z" fill="#fff"/>
        <path id="Trazado_16007" data-name="Trazado 16007" d="M3797.928,548.941h-9.962a.613.613,0,0,1-.613-.614v-21.3a.613.613,0,0,1,.613-.614h9.962a.614.614,0,0,1,.614.614v21.3A.614.614,0,0,1,3797.928,548.941Zm-9.348-1.227h8.735V527.636h-8.735Z" fill="#fff"/>
        <path id="Trazado_16008" data-name="Trazado 16008" d="M3769.117,548.941h-9.961a.614.614,0,0,1-.614-.614v-21.3a.614.614,0,0,1,.614-.614h9.961a.614.614,0,0,1,.614.614v21.3A.614.614,0,0,1,3769.117,548.941Zm-9.348-1.227h8.735V527.636h-8.735Z" fill="#fff"/>
        <path id="Trazado_16009" data-name="Trazado 16009" d="M3779.784,526.494H3777.3a.612.612,0,0,1-.613-.613v-1.433h-1.433a.614.614,0,0,1-.614-.614v-2.483a.614.614,0,0,1,.614-.614h1.433V519.3a.613.613,0,0,1,.613-.614h2.484a.613.613,0,0,1,.613.614v1.432h1.432a.614.614,0,0,1,.614.614v2.483a.614.614,0,0,1-.614.614H3780.4v1.433A.612.612,0,0,1,3779.784,526.494Zm-1.87-1.227h1.256v-1.433a.613.613,0,0,1,.614-.613h1.432v-1.256h-1.432a.614.614,0,0,1-.614-.614v-1.432h-1.256v1.432a.614.614,0,0,1-.614.614h-1.432v1.256h1.432a.613.613,0,0,1,.614.613Z" fill="#fff"/>
        <path id="Trazado_16010" data-name="Trazado 16010" d="M3788.954,517.6H3768.13a.613.613,0,0,1-.614-.613v-2.721a.613.613,0,0,1,.614-.613h20.824a.612.612,0,0,1,.613.613v2.721A.612.612,0,0,1,3788.954,517.6Zm-20.211-1.227h19.6v-1.493h-19.6Z" fill="#fff"/>
        <path id="Trazado_16011" data-name="Trazado 16011" d="M3783.451,551.7h-9.818a.614.614,0,0,1-.614-.614V540.818a.613.613,0,0,1,.614-.613h9.818a.613.613,0,0,1,.614.613v10.266A.614.614,0,0,1,3783.451,551.7Zm-9.2-1.228h8.591v-9.038h-8.591Z" fill="#fff"/>
        <path id="Trazado_16012" data-name="Trazado 16012" d="M3778.542,545.2a.614.614,0,0,1-.614-.613v-3.765a.614.614,0,0,1,1.227,0v3.765A.613.613,0,0,1,3778.542,545.2Z" fill="#fff"/>
        <path id="Trazado_16013" data-name="Trazado 16013" d="M3778.542,551.7a.614.614,0,0,1-.614-.614v-3.842a.614.614,0,1,1,1.227,0v3.842A.613.613,0,0,1,3778.542,551.7Z" fill="#fff"/>
        <path id="Trazado_16014" data-name="Trazado 16014" d="M3766.755,535.295h-5.237a.613.613,0,0,1-.614-.613v-3.559a.614.614,0,0,1,.614-.614h5.237a.613.613,0,0,1,.613.614v3.559A.612.612,0,0,1,3766.755,535.295Zm-4.623-1.227h4.009v-2.332h-4.009Z" fill="#fff"/>
        <path id="Trazado_16015" data-name="Trazado 16015" d="M3766.755,542.66h-5.237a.614.614,0,0,1-.614-.614v-3.559a.614.614,0,0,1,.614-.614h5.237a.613.613,0,0,1,.613.614v3.559A.613.613,0,0,1,3766.755,542.66Zm-4.623-1.228h4.009V539.1h-4.009Z" fill="#fff"/>
        <path id="Trazado_16016" data-name="Trazado 16016" d="M3795.566,535.295h-5.237a.613.613,0,0,1-.614-.613v-3.559a.614.614,0,0,1,.614-.614h5.237a.614.614,0,0,1,.613.614v3.559A.613.613,0,0,1,3795.566,535.295Zm-4.624-1.227h4.01v-2.332h-4.01Z" fill="#fff"/>
        <path id="Trazado_16017" data-name="Trazado 16017" d="M3795.566,542.66h-5.237a.614.614,0,0,1-.614-.614v-3.559a.614.614,0,0,1,.614-.614h5.237a.614.614,0,0,1,.613.614v3.559A.614.614,0,0,1,3795.566,542.66Zm-4.624-1.228h4.01V539.1h-4.01Z" fill="#fff"/>
        <path id="Trazado_16018" data-name="Trazado 16018" d="M3774.425,538.609h-3.069a.613.613,0,0,1-.613-.613v-3.478a.613.613,0,0,1,.613-.613h3.069a.613.613,0,0,1,.613.613V538A.613.613,0,0,1,3774.425,538.609Zm-2.455-1.227h1.841v-2.25h-1.841Z" fill="#fff"/>
        <path id="Trazado_16019" data-name="Trazado 16019" d="M3780.076,538.609h-3.068a.613.613,0,0,1-.614-.613v-3.478a.613.613,0,0,1,.614-.613h3.068a.613.613,0,0,1,.614.613V538A.613.613,0,0,1,3780.076,538.609Zm-2.455-1.227h1.841v-2.25h-1.841Z" fill="#fff"/>
        <path id="Trazado_16020" data-name="Trazado 16020" d="M3785.727,538.609h-3.068a.613.613,0,0,1-.614-.613v-3.478a.613.613,0,0,1,.614-.613h3.068a.613.613,0,0,1,.614.613V538A.613.613,0,0,1,3785.727,538.609Zm-2.454-1.227h1.841v-2.25h-1.841Z" fill="#fff"/>
        <path id="Trazado_16021" data-name="Trazado 16021" d="M3774.425,532.677h-3.069a.613.613,0,0,1-.613-.613v-3.478a.613.613,0,0,1,.613-.614h3.069a.613.613,0,0,1,.613.614v3.478A.613.613,0,0,1,3774.425,532.677Zm-2.455-1.227h1.841V529.2h-1.841Z" fill="#fff"/>
        <path id="Trazado_16022" data-name="Trazado 16022" d="M3780.076,532.677h-3.068a.613.613,0,0,1-.614-.613v-3.478a.614.614,0,0,1,.614-.614h3.068a.614.614,0,0,1,.614.614v3.478A.613.613,0,0,1,3780.076,532.677Zm-2.455-1.227h1.841V529.2h-1.841Z" fill="#fff"/>
        <path id="Trazado_16023" data-name="Trazado 16023" d="M3785.727,532.677h-3.068a.613.613,0,0,1-.614-.613v-3.478a.614.614,0,0,1,.614-.614h3.068a.614.614,0,0,1,.614.614v3.478A.613.613,0,0,1,3785.727,532.677Zm-2.454-1.227h1.841V529.2h-1.841Z" fill="#fff"/>
        <path id="Trazado_16024" data-name="Trazado 16024" d="M3793.932,551.7h-30.781a.614.614,0,0,1,0-1.228h30.781a.614.614,0,0,1,0,1.228Z" fill="#fff"/>
      </g>
    </g>
  </g>
</svg>
