<svg xmlns="http://www.w3.org/2000/svg" width="76.376" height="76.375" viewBox="0 0 76.376 76.375">
  <g id="Grupo_7423" data-name="Grupo 7423" transform="translate(-471.813 -2399.082)">
    <g id="Grupo_7187" data-name="Grupo 7187" transform="translate(-3268.542 969.579)">
      <circle id="Elipse_723" data-name="Elipse 723" cx="38.188" cy="38.188" r="38.188" transform="translate(3740.354 1429.503)" fill="aqua"/>
    </g>
    <g id="Grupo_7188" data-name="Grupo 7188" transform="translate(-3268.542 969.579)">
      <path id="Trazado_16037" data-name="Trazado 16037" d="M3791.66,1448.484h-26.236a.849.849,0,0,0-.85.85v35.552a.85.85,0,0,0,.85.85h26.236a.851.851,0,0,0,.85-.85v-35.552A.85.85,0,0,0,3791.66,1448.484Zm-.851,35.552h-24.535v-33.852h24.535Z" fill="#6a737f"/>
      <path id="Trazado_16038" data-name="Trazado 16038" d="M3773.664,1465.448a5.765,5.765,0,1,0-5.765-5.765A5.771,5.771,0,0,0,3773.664,1465.448Zm0-9.83a4.065,4.065,0,1,1-4.064,4.065A4.069,4.069,0,0,1,3773.664,1455.618Z" fill="#6a737f"/>
      <path id="Trazado_16039" data-name="Trazado 16039" d="M3771.448,1460.533h1.366v1.366a.85.85,0,1,0,1.7,0v-1.366h1.367a.85.85,0,0,0,0-1.7h-1.367v-1.366a.85.85,0,1,0-1.7,0v1.366h-1.366a.85.85,0,1,0,0,1.7Z" fill="#6a737f"/>
      <path id="Trazado_16040" data-name="Trazado 16040" d="M3781.036,1459.683a.851.851,0,0,0,.85.85h6.328a.85.85,0,0,0,0-1.7h-6.328A.85.85,0,0,0,3781.036,1459.683Z" fill="#6a737f"/>
      <path id="Trazado_16041" data-name="Trazado 16041" d="M3788.214,1462.533h-7.507a.85.85,0,1,0,0,1.7h7.507a.85.85,0,0,0,0-1.7Z" fill="#6a737f"/>
      <path id="Trazado_16042" data-name="Trazado 16042" d="M3788.214,1467.52h-19.465a.85.85,0,1,0,0,1.7h19.465a.85.85,0,0,0,0-1.7Z" fill="#6a737f"/>
      <path id="Trazado_16043" data-name="Trazado 16043" d="M3788.214,1471.22h-19.465a.85.85,0,1,0,0,1.7h19.465a.85.85,0,0,0,0-1.7Z" fill="#6a737f"/>
      <path id="Trazado_16044" data-name="Trazado 16044" d="M3788.214,1474.92h-19.465a.85.85,0,1,0,0,1.7h19.465a.85.85,0,0,0,0-1.7Z" fill="#6a737f"/>
      <path id="Trazado_16045" data-name="Trazado 16045" d="M3788.214,1478.62h-19.465a.85.85,0,1,0,0,1.7h19.465a.85.85,0,0,0,0-1.7Z" fill="#6a737f"/>
      <path id="Trazado_16046" data-name="Trazado 16046" d="M3793.261,1445.052h-29.439a2.783,2.783,0,0,0-2.78,2.78v39.717a2.783,2.783,0,0,0,2.78,2.78h29.439a2.783,2.783,0,0,0,2.781-2.78v-39.717A2.783,2.783,0,0,0,3793.261,1445.052Zm1.081,42.5a1.082,1.082,0,0,1-1.081,1.08h-29.439a1.081,1.081,0,0,1-1.08-1.08v-39.717a1.081,1.081,0,0,1,1.08-1.08h29.439a1.082,1.082,0,0,1,1.081,1.08Z" fill="#6a737f"/>
    </g>
  </g>
</svg>
