<svg xmlns="http://www.w3.org/2000/svg" xmlns:xlink="http://www.w3.org/1999/xlink" width="920" height="903.629" viewBox="0 0 920 903.629">
  <defs>
    <radialGradient id="radial-gradient" cx="0.076" cy="0.019" r="1.465" gradientTransform="translate(0.001)" gradientUnits="objectBoundingBox">
      <stop offset="0.038" stop-color="#ff9100"/>
      <stop offset="0.57" stop-color="#ffb655"/>
      <stop offset="1" stop-color="#fff04a"/>
    </radialGradient>
    <radialGradient id="radial-gradient-2" cx="0.353" cy="0.228" r="0.864" gradientTransform="translate(0.053) scale(0.895 1)" gradientUnits="objectBoundingBox">
      <stop offset="0" stop-color="#828282"/>
      <stop offset="0.301" stop-color="#838384" stop-opacity="0.98"/>
      <stop offset="0.469" stop-color="#8a8a8a" stop-opacity="0.918"/>
      <stop offset="0.604" stop-color="#959696" stop-opacity="0.812"/>
      <stop offset="0.721" stop-color="#a6a6a7" stop-opacity="0.663"/>
      <stop offset="0.828" stop-color="#bbbbbc" stop-opacity="0.467"/>
      <stop offset="0.924" stop-color="#d4d5d6" stop-opacity="0.231"/>
      <stop offset="1" stop-color="#edeef0" stop-opacity="0"/>
    </radialGradient>
    <radialGradient id="radial-gradient-3" cx="0.076" cy="0.019" r="1.465" gradientTransform="translate(0.001)" gradientUnits="objectBoundingBox">
      <stop offset="0" stop-color="#f7f7f8"/>
      <stop offset="0.505" stop-color="#fafafb"/>
      <stop offset="0.715" stop-color="#fff"/>
    </radialGradient>
    <linearGradient id="linear-gradient" x1="0" y1="0.5" x2="1" y2="0.5" gradientTransform="matrix(1, 0, 0, 1, 0, 0)" xlink:href="#radial-gradient"/>
    <linearGradient id="linear-gradient-2" x1="0.575" y1="1.075" x2="0.575" y2="0.075" gradientUnits="objectBoundingBox">
      <stop offset="0.038" stop-color="#2b3894"/>
      <stop offset="0.054" stop-color="#353c95"/>
      <stop offset="0.081" stop-color="#51489a"/>
      <stop offset="0.554" stop-color="#8078bf"/>
      <stop offset="1" stop-color="#d2a8d1"/>
    </linearGradient>
    <linearGradient id="linear-gradient-3" x1="-1.134" y1="1.711" x2="0.366" y2="1.711" gradientUnits="objectBoundingBox">
      <stop offset="0.038" stop-color="#0956c6"/>
      <stop offset="0.554" stop-color="#07a9f0"/>
      <stop offset="1" stop-color="#93dcfc"/>
    </linearGradient>
    <radialGradient id="radial-gradient-4" cx="0.5" cy="0.5" r="0.654" gradientTransform="translate(-0.047) scale(0.643 1)" xlink:href="#radial-gradient-3"/>
    <linearGradient id="linear-gradient-4" x1="-0.195" y1="-0.23" x2="-1.695" y2="-0.23" gradientUnits="objectBoundingBox">
      <stop offset="0.038" stop-color="#b40042"/>
      <stop offset="0.489" stop-color="#c50048"/>
      <stop offset="1" stop-color="#ff5e93"/>
    </linearGradient>
    <linearGradient id="linear-gradient-5" x1="0.5" y1="0.167" x2="0.5" y2="0.833" gradientUnits="objectBoundingBox">
      <stop offset="0.038" stop-color="#282828"/>
      <stop offset="0.137" stop-color="#323232"/>
      <stop offset="0.312" stop-color="#4f4f4f"/>
      <stop offset="0.539" stop-color="#7e7e7e"/>
      <stop offset="0.554" stop-color="#828282"/>
      <stop offset="1" stop-color="#b9b9be"/>
    </linearGradient>
  </defs>
  <g id="Grupo_7141" data-name="Grupo 7141" transform="translate(-131.662 -34.876)">
    <g id="Grupo_7125" data-name="Grupo 7125" transform="translate(426.744 329.864)">
      <g id="Grupo_7124" data-name="Grupo 7124">
        <path id="Trazado_15735" data-name="Trazado 15735" d="M729,472.838a156.9,156.9,0,0,0-313.778,4.427A156.9,156.9,0,0,0,729,472.838Z" transform="translate(-415.225 -318.349)" fill="url(#radial-gradient)"/>
        <path id="Trazado_15736" data-name="Trazado 15736" d="M480.153,553.519,554.2,627.57q6.55.542,13.248.55A158.916,158.916,0,0,0,726.365,469.2q0-3.777-.178-7.516l-53.908-53.906Z" transform="translate(-412.588 -314.716)" fill="url(#radial-gradient-2)" style="mix-blend-mode: multiply;isolation: isolate"/>
        <g id="Grupo_7123" data-name="Grupo 7123" transform="translate(33.99 33.663)">
          <g id="Grupo_7121" data-name="Grupo 7121">
            <g id="Grupo_7120" data-name="Grupo 7120">
              <g id="Grupo_7119" data-name="Grupo 7119">
                <path id="Trazado_15737" data-name="Trazado 15737" d="M690.584,472.047A121.348,121.348,0,1,1,569.238,350.7,121.345,121.345,0,0,1,690.584,472.047Z" transform="translate(-447.888 -350.698)" fill="#fff"/>
              </g>
            </g>
          </g>
          <path id="Trazado_15738" data-name="Trazado 15738" d="M690.463,471.915A121.346,121.346,0,1,0,569.117,593.264,120.88,120.88,0,0,0,690.463,471.915Z" transform="translate(-447.767 -350.566)" fill="url(#radial-gradient-3)"/>
          <g id="Grupo_7122" data-name="Grupo 7122" transform="translate(21.498 68.128)">
            <path id="Trazado_15739" data-name="Trazado 15739" d="M677.475,416.167A121.362,121.362,0,0,1,468.547,537.012,120.977,120.977,0,0,0,677.475,416.167Z" transform="translate(-468.547 -416.167)" fill="#edeef0"/>
          </g>
        </g>
      </g>
    </g>
    <path id="Trazado_15740" data-name="Trazado 15740" d="M573.726,286.8a189.871,189.871,0,1,1-134.258,55.612A188.629,188.629,0,0,1,573.726,286.8m0-8.325c-109.46,0-198.195,88.735-198.195,198.195s88.735,198.195,198.195,198.195,198.195-88.735,198.195-198.195S683.187,278.476,573.726,278.476Z" transform="translate(9.906 9.895)" fill="url(#linear-gradient)"/>
    <rect id="Rectángulo_1469" data-name="Rectángulo 1469" width="80.031" height="6.488" transform="translate(778.018 486.837)" fill="#07a9f0"/>
    <circle id="Elipse_701" data-name="Elipse 701" cx="13.519" cy="13.519" r="13.519" transform="translate(760.331 482.823) rotate(-22.689)" fill="#07a9f0"/>
    <rect id="Rectángulo_1470" data-name="Rectángulo 1470" width="80.03" height="6.489" transform="translate(309.665 486.837)" fill="#ff3c7d"/>
    <path id="Trazado_15741" data-name="Trazado 15741" d="M380.151,486.358a13.519,13.519,0,1,1,13.519-13.518A13.518,13.518,0,0,1,380.151,486.358Z" transform="translate(9.545 17.242)" fill="#ff3c7d"/>
    <g id="Grupo_7126" data-name="Grupo 7126" transform="translate(569.803 212.631)">
      <rect id="Rectángulo_1471" data-name="Rectángulo 1471" width="6.489" height="80.031" transform="translate(10.276)" fill="#8078bf"/>
      <path id="Trazado_15742" data-name="Trazado 15742" d="M552.7,283.128a13.52,13.52,0,1,1,13.521,13.517A13.519,13.519,0,0,1,552.7,283.128Z" transform="translate(-552.7 -203.096)" fill="#8078bf"/>
    </g>
    <rect id="Rectángulo_1472" data-name="Rectángulo 1472" width="6.488" height="80.031" transform="translate(579.984 680.47)" fill="#828282"/>
    <path id="Trazado_15743" data-name="Trazado 15743" d="M579.647,655.8a13.519,13.519,0,1,1-13.52-13.518A13.52,13.52,0,0,1,579.647,655.8Z" transform="translate(17.1 24.674)" fill="#828282"/>
    <text id="Entidades_del_Sistema_Penitenciario_y_Carcelario_en_Colombia" data-name="Entidades del Sistema Penitenciario y Carcelario en Colombia" transform="translate(488.259 409.369)" font-size="24" font-family="Montserrat-Bold, Montserrat" font-weight="700"><tspan x="9.285" y="23">Entidades del </tspan><tspan x="45.153" y="51.8">Sistema </tspan><tspan x="1.017" y="80.6">Penitenciario y </tspan><tspan x="12.705" y="109.4">Carcelario en </tspan><tspan x="35.589" y="138.2">Colombia</tspan></text>
    <path id="Rectángulo_1473" data-name="Rectángulo 1473" d="M0,0H178.123a30,30,0,0,1,30,30V178.122a30,30,0,0,1-30,30H30a30,30,0,0,1-30-30V0A0,0,0,0,1,0,0Z" transform="translate(479.571 34.876)" fill="url(#linear-gradient-2)"/>
    <path id="Rectángulo_1474" data-name="Rectángulo 1474" d="M0,0H167.31a20,20,0,0,1,20,20V167.31a20,20,0,0,1-20,20H20a20,20,0,0,1-20-20V0A0,0,0,0,1,0,0Z" transform="translate(489.977 45.282)" fill="#fff"/>
    <text id="Ministerio_de_Justicia_y_del_Derecho_Encargado_de_la_Política_Criminal_y_Penitenciaria_" data-name="Ministerio de Justicia y del Derecho
Encargado de la Política Criminal y Penitenciaria 
" transform="translate(510.494 97.023)" font-size="13" font-family="Montserrat-Regular, Montserrat"><tspan x="0" y="13">Ministerio de Justicia </tspan><tspan x="0" y="28.6">y del Derecho</tspan><tspan x="0" y="44.2">Encargado de la </tspan><tspan x="0" y="59.8">Política Criminal y </tspan><tspan x="0" y="75.4">Penitenciaria </tspan></text>
    <g id="Grupo_7128" data-name="Grupo 7128" transform="translate(843.539 333.989)">
      <g id="Grupo_7127" data-name="Grupo 7127">
        <rect id="Rectángulo_1475" data-name="Rectángulo 1475" width="208.123" height="312.184" rx="30" transform="translate(208.123 312.184) rotate(180)" fill="url(#linear-gradient-3)"/>
        <rect id="Rectángulo_1476" data-name="Rectángulo 1476" width="291.372" height="187.31" rx="20" transform="translate(197.717 10.406) rotate(90)" fill="url(#radial-gradient-4)"/>
      </g>
      <text id="USPEC_La_USPEC_se_concentra_en_el_suministro_de_bienes_la_prestación_de_servicios_e_infraestructura_y_en_brindar_el_apoyo_logístico_y_administrativo_requerido_para_el_adecuado_funcionamiento_de_los_servicios_penitenciarios_y_carcelarios._" data-name="USPEC

La USPEC se concentra en el suministro de bienes, la prestación de servicios e infraestructura, y en brindar el apoyo logístico y administrativo requerido para el adecuado funcionamiento de los servicios penitenciarios y carcelarios. 
" transform="translate(24.393 32.372)" font-size="13" font-family="Montserrat-Bold, Montserrat" font-weight="700"><tspan x="0" y="13">USPEC</tspan><tspan font-family="Montserrat-Regular, Montserrat" font-weight="400"><tspan x="0" y="28.6"></tspan><tspan x="0" y="44.2">La USPEC se concentra </tspan><tspan x="0" y="59.8">en el suministro de </tspan><tspan x="0" y="75.4">bienes, la prestación de </tspan><tspan x="0" y="91">servicios e </tspan><tspan x="0" y="106.6">infraestructura, y en </tspan><tspan x="0" y="122.2">brindar el apoyo logístico </tspan><tspan x="0" y="137.8">y administrativo </tspan><tspan x="0" y="153.4">requerido para el </tspan><tspan x="0" y="169">adecuado </tspan><tspan x="0" y="184.6">funcionamiento de los </tspan><tspan x="0" y="200.2">servicios penitenciarios y </tspan><tspan x="0" y="215.8">carcelarios. </tspan></tspan><tspan font-family="Montserrat-Regular" font-weight="400"><tspan x="0" y="231.4"></tspan></tspan></text>
    </g>
    <g id="Grupo_7129" data-name="Grupo 7129" transform="translate(131.662 333.989)">
      <rect id="Rectángulo_1477" data-name="Rectángulo 1477" width="208.123" height="312.184" rx="30" fill="url(#linear-gradient-4)"/>
      <rect id="Rectángulo_1478" data-name="Rectángulo 1478" width="291.372" height="187.31" rx="20" transform="translate(10.407 301.778) rotate(-90)" fill="#edeef0"/>
      <text id="INPEC_A_cargo_del_INPEC_se_encuentra_la_prestación_de_los_servicios_de_tratamiento_penitenciario_atención_básica_y_seguridad_en_los_137_ERON_del_país_organizados_en_seis_regionales:_Central_Occidente_Norte_Oriente_Noroeste_y_Viejo_Caldas._" data-name="INPEC

A cargo del INPEC se encuentra la prestación de los servicios de tratamiento penitenciario, atención básica y seguridad en los 137 ERON del país organizados en seis regionales: Central, Occidente, Norte, Oriente, Noroeste y Viejo Caldas. 
" transform="translate(22.777 39.726)" font-size="13" font-family="Montserrat-Bold, Montserrat" font-weight="700"><tspan x="0" y="13">INPEC</tspan><tspan x="0" y="28.6"></tspan><tspan font-family="Montserrat-Regular, Montserrat" font-weight="400"><tspan x="0" y="44.2">A cargo del INPEC se </tspan><tspan x="0" y="59.8">encuentra la prestación </tspan><tspan x="0" y="75.4">de los servicios de </tspan><tspan x="0" y="91">tratamiento </tspan><tspan x="0" y="106.6">penitenciario, atención </tspan><tspan x="0" y="122.2">básica y seguridad en los </tspan><tspan x="0" y="137.8">137 ERON del país </tspan><tspan x="0" y="153.4">organizados en seis </tspan><tspan x="0" y="169">regionales: Central, </tspan><tspan x="0" y="184.6">Occidente, Norte, </tspan><tspan x="0" y="200.2">Oriente, Noroeste y Viejo </tspan><tspan x="0" y="215.8">Caldas. </tspan></tspan><tspan font-family="Montserrat-Regular" font-weight="400"><tspan x="0" y="231.4"></tspan></tspan></text>
    </g>
    <rect id="Rectángulo_1479" data-name="Rectángulo 1479" width="208.123" height="312.184" rx="30" transform="translate(738.174 730.381) rotate(90)" fill="url(#linear-gradient-5)"/>
    <rect id="Rectángulo_1480" data-name="Rectángulo 1480" width="291.372" height="187.31" rx="20" transform="translate(436.395 740.788)" fill="#edeef0"/>
    <text id="MINISTERIO_DE_SALUD_Y_PROTECCIÓN_SOCIAL_Encargado_de_la_Política_Pública_en_materia_de_Salud_Salud_Pública_y_Promoción_Social_en_Salud_así_como_lo_relacionado_a_la_Protección_Social._" data-name="MINISTERIO DE SALUD Y PROTECCIÓN SOCIAL

Encargado de la Política Pública en materia de Salud, Salud Pública, y Promoción Social en Salud, así como lo relacionado a la Protección Social.
" transform="translate(456.212 776.262)" font-size="13" font-family="Montserrat-Bold, Montserrat" font-weight="700"><tspan x="0" y="13">MINISTERIO DE SALUD Y </tspan><tspan x="0" y="28.6">PROTECCIÓN SOCIAL</tspan><tspan font-family="Montserrat-Regular, Montserrat" font-weight="400"><tspan x="0" y="44.2"></tspan><tspan x="0" y="59.8">Encargado de la Política Pública en </tspan><tspan x="0" y="75.4">materia de Salud, Salud Pública, y </tspan><tspan x="0" y="91">Promoción Social en Salud, así como </tspan><tspan x="0" y="106.6">lo relacionado a la Protección Social.</tspan></tspan></text>
    <circle id="Elipse_702" data-name="Elipse 702" cx="36.422" cy="36.422" r="36.422" transform="translate(547.211 251.037)" fill="#fff" stroke="#707070" stroke-miterlimit="10" stroke-width="5"/>
    <g id="Grupo_7130" data-name="Grupo 7130" transform="translate(562.82 266.773)">
      <path id="Trazado_15744" data-name="Trazado 15744" d="M551.752,274.24h4.041v16.419h-4.041Z" transform="translate(-545.755 -257.05)" fill="#e6f1fa"/>
      <path id="Trazado_15745" data-name="Trazado 15745" d="M553.916,274.24H555.7v16.419h-1.789Z" transform="translate(-545.667 -257.05)" fill="#cee4f7"/>
      <path id="Trazado_15746" data-name="Trazado 15746" d="M584.182,270.424l-17.232-11.93a.489.489,0,0,0-.556,0l-17.231,11.93v1.347h35.018Z" transform="translate(-545.86 -257.693)" fill="#e6f1fa"/>
      <path id="Trazado_15747" data-name="Trazado 15747" d="M566.3,258.494a.489.489,0,0,0-.556,0l-.616.428,16.615,11.5v1.347h1.789v-1.347Z" transform="translate(-545.212 -257.693)" fill="#cee4f7"/>
      <path id="Trazado_15748" data-name="Trazado 15748" d="M567.388,266.125a1.347,1.347,0,1,1-1.347-1.347A1.346,1.346,0,0,1,567.388,266.125Z" transform="translate(-545.229 -257.434)" fill="#feda43"/>
      <path id="Trazado_15749" data-name="Trazado 15749" d="M556.7,275.271h-5.759a.488.488,0,0,1-.488-.488V271.7h6.734v3.082A.488.488,0,0,1,556.7,275.271Z" transform="translate(-545.808 -257.153)" fill="#537d91"/>
      <path id="Trazado_15750" data-name="Trazado 15750" d="M555.23,271.7v3.082a.488.488,0,0,1-.488.488h1.789a.488.488,0,0,0,.487-.488V271.7Z" transform="translate(-545.633 -257.153)" fill="#45738a"/>
      <path id="Trazado_15751" data-name="Trazado 15751" d="M556.7,289.126h-5.759a.488.488,0,0,0-.488.488V292.7h6.734v-3.083A.488.488,0,0,0,556.7,289.126Z" transform="translate(-545.808 -256.445)" fill="#537d91"/>
      <path id="Trazado_15752" data-name="Trazado 15752" d="M555.23,292.7v-3.083a.488.488,0,0,0-.488-.488h1.789a.488.488,0,0,1,.487.488V292.7Z" transform="translate(-545.633 -256.445)" fill="#45738a"/>
      <path id="Trazado_15753" data-name="Trazado 15753" d="M564.048,274.24h4.041v16.419h-4.041Z" transform="translate(-545.255 -257.05)" fill="#e6f1fa"/>
      <path id="Trazado_15754" data-name="Trazado 15754" d="M566.212,274.24H568v16.419h-1.789Z" transform="translate(-545.168 -257.05)" fill="#cee4f7"/>
      <path id="Trazado_15755" data-name="Trazado 15755" d="M569,275.271h-5.759a.487.487,0,0,1-.487-.488V271.7h6.734v3.082A.488.488,0,0,1,569,275.271Z" transform="translate(-545.308 -257.153)" fill="#537d91"/>
      <path id="Trazado_15756" data-name="Trazado 15756" d="M567.525,271.7v3.082a.488.488,0,0,1-.488.488h1.789a.488.488,0,0,0,.488-.488V271.7Z" transform="translate(-545.134 -257.153)" fill="#45738a"/>
      <path id="Trazado_15757" data-name="Trazado 15757" d="M569,289.126h-5.759a.487.487,0,0,0-.487.488V292.7h6.734v-3.083A.488.488,0,0,0,569,289.126Z" transform="translate(-545.308 -256.445)" fill="#537d91"/>
      <path id="Trazado_15758" data-name="Trazado 15758" d="M567.525,292.7v-3.083a.488.488,0,0,0-.488-.488h1.789a.488.488,0,0,1,.488.488V292.7Z" transform="translate(-545.134 -256.445)" fill="#45738a"/>
      <path id="Trazado_15759" data-name="Trazado 15759" d="M576.343,274.24h4.041v16.419h-4.041Z" transform="translate(-544.756 -257.05)" fill="#e6f1fa"/>
      <path id="Trazado_15760" data-name="Trazado 15760" d="M578.507,274.24H580.3v16.419h-1.789Z" transform="translate(-544.668 -257.05)" fill="#cee4f7"/>
      <path id="Trazado_15761" data-name="Trazado 15761" d="M581.3,275.271h-5.759a.488.488,0,0,1-.488-.488V271.7h6.734v3.082A.488.488,0,0,1,581.3,275.271Z" transform="translate(-544.809 -257.153)" fill="#537d91"/>
      <path id="Trazado_15762" data-name="Trazado 15762" d="M579.821,271.7v3.082a.488.488,0,0,1-.488.488h1.789a.488.488,0,0,0,.487-.488V271.7Z" transform="translate(-544.635 -257.153)" fill="#45738a"/>
      <path id="Trazado_15763" data-name="Trazado 15763" d="M581.3,289.126h-5.759a.488.488,0,0,0-.488.488V292.7h6.734v-3.083A.488.488,0,0,0,581.3,289.126Z" transform="translate(-544.809 -256.445)" fill="#537d91"/>
      <path id="Trazado_15764" data-name="Trazado 15764" d="M579.821,292.7v-3.083a.488.488,0,0,0-.488-.488h1.789a.488.488,0,0,1,.487.488V292.7Z" transform="translate(-544.635 -256.445)" fill="#45738a"/>
      <path id="Trazado_15765" data-name="Trazado 15765" d="M585.093,272.648H548.357a.487.487,0,0,1-.488-.487v-1.718a.488.488,0,0,1,.488-.488h36.736a.488.488,0,0,1,.488.488v1.718A.487.487,0,0,1,585.093,272.648Z" transform="translate(-545.913 -257.224)" fill="#feda43"/>
      <path id="Trazado_15766" data-name="Trazado 15766" d="M583.71,269.955h-1.789a.488.488,0,0,1,.488.488v1.718a.487.487,0,0,1-.488.487h1.789a.487.487,0,0,0,.488-.487v-1.718A.488.488,0,0,0,583.71,269.955Z" transform="translate(-544.529 -257.224)" fill="#fdb53e"/>
      <path id="Trazado_15767" data-name="Trazado 15767" d="M585.581,295.756H547.869V292.2a.488.488,0,0,1,.488-.488h36.736a.488.488,0,0,1,.488.488Z" transform="translate(-545.913 -256.34)" fill="#feda43"/>
      <path id="Trazado_15768" data-name="Trazado 15768" d="M583.71,291.715h-1.789a.488.488,0,0,1,.488.488v3.553H584.2V292.2A.488.488,0,0,0,583.71,291.715Z" transform="translate(-544.529 -256.34)" fill="#fdb53e"/>
      <path id="Trazado_15769" data-name="Trazado 15769" d="M586.492,297H547.063a.488.488,0,0,1-.488-.488v-1.718a.488.488,0,0,1,.488-.488h39.429a.488.488,0,0,1,.488.488v1.718A.488.488,0,0,1,586.492,297Z" transform="translate(-545.965 -256.235)" fill="#e6f1fa"/>
      <path id="Trazado_15770" data-name="Trazado 15770" d="M585,294.3h-1.788a.488.488,0,0,1,.487.488v1.718a.488.488,0,0,1-.487.488H585a.488.488,0,0,0,.488-.488v-1.718A.488.488,0,0,0,585,294.3Z" transform="translate(-544.477 -256.235)" fill="#cee4f7"/>
      <path id="Trazado_15771" data-name="Trazado 15771" d="M566.065,268.1a1.956,1.956,0,1,0-1.956-1.956A1.958,1.958,0,0,0,566.065,268.1Zm0-2.693a.737.737,0,1,1-.737.737A.737.737,0,0,1,566.065,265.412Z" transform="translate(-545.253 -257.458)"/>
      <path id="Trazado_15772" data-name="Trazado 15772" d="M587,295.179h-.737V293.1a.61.61,0,0,0-.61-.61h-2.084V290.4a.61.61,0,0,0-.61-.61h-.737V276.449h.737a.61.61,0,0,0,.61-.61v-2.084h2.084a.609.609,0,0,0,.61-.61v-2.693a.609.609,0,0,0-.61-.61H584.5l-17.352-12.013a.609.609,0,0,0-.694,0L549.1,269.842h-1.157a.61.61,0,0,0-.61.61v2.693a.61.61,0,0,0,.61.61h2.084v2.084a.61.61,0,0,0,.61.61h.737v13.343h-.737a.61.61,0,0,0-.61.61v2.084h-2.084a.61.61,0,0,0-.61.61v2.083H546.6a.61.61,0,0,0-.61.61v2.694a.61.61,0,0,0,.61.61H587a.61.61,0,0,0,.61-.61v-2.694A.61.61,0,0,0,587,295.179Zm-4.65-2.693h-5.515v-1.475h5.515Zm-4.169-2.694V276.449h2.821v13.343Zm4.169-14.562h-5.515v-1.475h5.515Zm-6.125,1.22h.737v13.343h-.737a.61.61,0,0,0-.61.61v2.084h-4.841V290.4a.611.611,0,0,0-.61-.61h-.737V276.449h.737a.611.611,0,0,0,.61-.61v-2.084h4.841v2.084A.61.61,0,0,0,576.229,276.449Zm-12.185-2.694h5.514v1.475h-5.514Zm1.346,2.694h2.821v13.343h-2.821Zm4.168,14.563v1.475h-5.514v-1.475Zm-21-19.95H559.2a.61.61,0,0,0,0-1.22h-7.951l15.557-10.77,15.557,10.77H561.635a.61.61,0,0,0,0,1.22h23.413v1.475H548.555Zm2.694,2.693h5.514v1.475h-5.514Zm4.168,2.694v13.343H552.6V276.449Zm-4.168,14.563h5.514v1.475h-5.514Zm6.124-1.22h-.737V276.449h.737a.61.61,0,0,0,.61-.61v-2.084h4.842v2.084a.61.61,0,0,0,.61.61h.737v13.343h-.737a.61.61,0,0,0-.61.61v2.084h-4.842V290.4A.61.61,0,0,0,557.373,289.792Zm-8.818,3.914h36.492v1.474H548.555Zm37.839,4.168H547.209V296.4h39.186Z" transform="translate(-545.989 -257.721)"/>
    </g>
    <circle id="Elipse_703" data-name="Elipse 703" cx="36.422" cy="36.422" r="36.422" transform="translate(746.799 453.659)" fill="#fff" stroke="#707070" stroke-miterlimit="10" stroke-width="5"/>
    <circle id="Elipse_704" data-name="Elipse 704" cx="36.422" cy="36.422" r="36.422" transform="translate(545.66 649.252)" fill="#fff" stroke="#707070" stroke-miterlimit="10" stroke-width="5"/>
    <path id="Trazado_15773" data-name="Trazado 15773" d="M389.771,465.958a13.519,13.519,0,1,1-13.52-13.518A13.52,13.52,0,0,1,389.771,465.958Z" transform="translate(9.386 16.962)" fill="#828282"/>
    <circle id="Elipse_705" data-name="Elipse 705" cx="36.422" cy="36.422" r="36.422" transform="translate(348.071 451.702)" fill="#fff" stroke="#707070" stroke-miterlimit="10" stroke-width="5"/>
    <g id="Filled_outline" data-name="Filled outline" transform="translate(561.269 666.249)">
      <path id="Trazado_15774" data-name="Trazado 15774" d="M553.166,642.269h23.587v37.462H553.166Z" transform="translate(-544.147 -641.576)" fill="#aabece"/>
      <path id="Trazado_15775" data-name="Trazado 15775" d="M555.832,642.269H573.87v12.487H555.832Z" transform="translate(-544.039 -641.576)" fill="#f4f4e6"/>
      <path id="Trazado_15776" data-name="Trazado 15776" d="M568.1,647.017h-2.081v-2.081h-2.774v2.081h-2.081v2.775h2.081v2.081h2.774v-2.081H568.1Z" transform="translate(-543.822 -641.468)" fill="#dd3e46"/>
      <path id="Trazado_15777" data-name="Trazado 15777" d="M555.832,662.269H559.3v4.162h-3.469Z" transform="translate(-544.039 -640.764)" fill="#5a6470"/>
      <path id="Trazado_15778" data-name="Trazado 15778" d="M559.166,662.269h2.774v4.162h-2.774Z" transform="translate(-543.903 -640.764)" fill="#394d5c"/>
      <path id="Trazado_15779" data-name="Trazado 15779" d="M561.832,662.269h2.775v4.162h-2.775Z" transform="translate(-543.795 -640.764)" fill="#5a6470"/>
      <path id="Trazado_15780" data-name="Trazado 15780" d="M564.5,662.269h2.775v4.162H564.5Z" transform="translate(-543.687 -640.764)" fill="#394d5c"/>
      <path id="Trazado_15781" data-name="Trazado 15781" d="M567.166,662.269h2.774v4.162h-2.774Z" transform="translate(-543.578 -640.764)" fill="#5a6470"/>
      <path id="Trazado_15782" data-name="Trazado 15782" d="M569.832,662.269h2.775v4.162h-2.775Z" transform="translate(-543.47 -640.764)" fill="#394d5c"/>
      <path id="Trazado_15783" data-name="Trazado 15783" d="M559.166,666.269h11.1v9.713h-11.1Z" transform="translate(-543.903 -640.601)" fill="#cdeef6"/>
      <path id="Trazado_15784" data-name="Trazado 15784" d="M559.166,675.6h11.1v2.774h-11.1Z" transform="translate(-543.903 -640.222)" fill="#394d5c"/>
      <g id="Grupo_7131" data-name="Grupo 7131" transform="translate(11.793 15.956)">
        <path id="Trazado_15785" data-name="Trazado 15785" d="M555.832,666.269H559.3v12.487h-3.469Z" transform="translate(-555.832 -656.557)" fill="#7d8d9c"/>
        <path id="Trazado_15786" data-name="Trazado 15786" d="M569.832,666.269h2.775v12.487h-2.775Z" transform="translate(-555.263 -656.557)" fill="#7d8d9c"/>
        <path id="Trazado_15787" data-name="Trazado 15787" d="M555.832,656.936h17.344v2.775H555.832Z" transform="translate(-555.832 -656.936)" fill="#7d8d9c"/>
      </g>
      <path id="Trazado_15788" data-name="Trazado 15788" d="M545.166,652.936h8.325V679.3h-8.325Z" transform="translate(-544.472 -641.143)" fill="#cfdfe8"/>
      <path id="Trazado_15789" data-name="Trazado 15789" d="M545.166,650.269h8.325v2.775h-8.325Z" transform="translate(-544.472 -641.251)" fill="#7d8d9c"/>
      <path id="Trazado_15790" data-name="Trazado 15790" d="M545.166,675.6h8.325v2.774h-8.325Z" transform="translate(-544.472 -640.222)" fill="#7d8d9c"/>
      <path id="Trazado_15791" data-name="Trazado 15791" d="M584.157,679.3h-8.325V652.936h8.325Z" transform="translate(-543.226 -641.143)" fill="#cfdfe8"/>
      <path id="Trazado_15792" data-name="Trazado 15792" d="M584.157,653.044h-8.325v-2.775h8.325Z" transform="translate(-543.226 -641.251)" fill="#7d8d9c"/>
      <path id="Trazado_15793" data-name="Trazado 15793" d="M584.157,678.377h-8.325V675.6h8.325Z" transform="translate(-543.226 -640.222)" fill="#7d8d9c"/>
      <g id="Grupo_7132" data-name="Grupo 7132" transform="translate(3.468 14.569)">
        <path id="Trazado_15794" data-name="Trazado 15794" d="M578.5,655.6h2.775v2.774H578.5Z" transform="translate(-546.586 -655.603)" fill="#fff69a"/>
        <path id="Trazado_15795" data-name="Trazado 15795" d="M578.5,660.936h2.775v2.775H578.5Z" transform="translate(-546.586 -655.386)" fill="#fff69a"/>
        <path id="Trazado_15796" data-name="Trazado 15796" d="M578.5,666.269h2.775v2.775H578.5Z" transform="translate(-546.586 -655.17)" fill="#fff69a"/>
        <path id="Trazado_15797" data-name="Trazado 15797" d="M578.5,671.6h2.775v4.162H578.5Z" transform="translate(-546.586 -654.953)" fill="#fff69a"/>
        <path id="Trazado_15798" data-name="Trazado 15798" d="M547.832,655.6h2.775v2.774h-2.775Z" transform="translate(-547.832 -655.603)" fill="#fff69a"/>
        <path id="Trazado_15799" data-name="Trazado 15799" d="M547.832,660.936h2.775v2.775h-2.775Z" transform="translate(-547.832 -655.386)" fill="#fff69a"/>
        <path id="Trazado_15800" data-name="Trazado 15800" d="M547.832,666.269h2.775v2.775h-2.775Z" transform="translate(-547.832 -655.17)" fill="#fff69a"/>
        <path id="Trazado_15801" data-name="Trazado 15801" d="M547.832,671.6h2.775v4.162h-2.775Z" transform="translate(-547.832 -654.953)" fill="#fff69a"/>
      </g>
      <path id="Trazado_15802" data-name="Trazado 15802" d="M568.13,646.35h-1.387v-1.387a.694.694,0,0,0-.694-.694h-2.774a.7.7,0,0,0-.694.694v1.387h-1.387a.7.7,0,0,0-.694.694v2.775a.694.694,0,0,0,.694.693h1.387V651.9a.694.694,0,0,0,.694.693h2.774a.693.693,0,0,0,.694-.693v-1.388h1.387a.693.693,0,0,0,.694-.693v-2.775A.694.694,0,0,0,568.13,646.35Zm-.693,2.775h-1.388a.693.693,0,0,0-.693.694v1.387h-1.388V649.82a.693.693,0,0,0-.693-.694h-1.388v-1.387h1.388a.694.694,0,0,0,.693-.694v-1.387h1.388v1.387a.694.694,0,0,0,.693.694h1.388Z" transform="translate(-543.849 -641.495)"/>
      <path id="Trazado_15803" data-name="Trazado 15803" d="M555.859,660.432H573.2a.694.694,0,0,0,.694-.693v-2.775a.7.7,0,0,0-.694-.694H555.859a.694.694,0,0,0-.693.694v2.775A.693.693,0,0,0,555.859,660.432Zm.694-2.774h15.956v1.387H556.553Z" transform="translate(-544.066 -641.007)"/>
      <path id="Trazado_15804" data-name="Trazado 15804" d="M545.193,680.453H585.43a.694.694,0,0,0,.694-.694V650.621a.693.693,0,0,0-.694-.693H577.8V642.3a.693.693,0,0,0-.694-.693H553.518a.693.693,0,0,0-.694.693v7.632h-7.631a.694.694,0,0,0-.694.693v29.137A.7.7,0,0,0,545.193,680.453ZM577.8,651.315h6.938V652.7H577.8Zm0,2.775h6.938v22.2h-1.388v-3.468a.693.693,0,0,0-.693-.694H579.88a.694.694,0,0,0-.694.694v3.468H577.8Zm4.162,19.424v2.775h-1.387v-2.775Zm-4.162,4.162h6.938v1.388H577.8Zm-18.731-.693v2.081h-2.081v-11.1h2.081Zm0-10.406h-2.081V663.8h2.081Zm11.1,12.487h-9.713v-1.388h9.713Zm-5.551-11.1v3.468H563.23v1.388h1.387v3.468h-4.163v-8.325Zm-4.163-1.387V663.8h1.388v2.775Zm2.775,0V663.8h1.387v2.775Zm6.938,9.712h-4.163v-3.468h1.387v-1.388h-1.387v-3.468h4.163Zm-4.163-9.712V663.8h1.387v2.775Zm4.163,0H568.78V663.8h1.388Zm2.774,12.487h-1.387v-11.1h1.387Zm0-12.487h-1.387V663.8h1.387ZM556.987,642.99h16.65v11.1h-16.65Zm-2.775,0H555.6v11.793a.694.694,0,0,0,.693.694h18.038a.694.694,0,0,0,.693-.694V642.99h1.388v36.075h-2.081V663.109a.694.694,0,0,0-.694-.693H556.292a.693.693,0,0,0-.693.693v15.957h-1.388Zm-8.325,8.325h6.938V652.7h-6.938Zm0,2.775h6.938v22.2h-1.387v-3.468a.694.694,0,0,0-.694-.694h-2.775a.693.693,0,0,0-.693.694v3.468h-1.388Zm4.162,19.424v2.775h-1.387v-2.775Zm-4.162,4.162h6.938v1.388h-6.938Z" transform="translate(-544.499 -641.603)"/>
      <path id="Trazado_15805" data-name="Trazado 15805" d="M578.526,659.1H581.3a.694.694,0,0,0,.693-.694V655.63a.693.693,0,0,0-.693-.694h-2.775a.694.694,0,0,0-.694.694V658.4A.7.7,0,0,0,578.526,659.1Zm.694-2.775h1.387v1.388H579.22Z" transform="translate(-543.145 -641.061)"/>
      <path id="Trazado_15806" data-name="Trazado 15806" d="M578.526,664.431H581.3a.693.693,0,0,0,.693-.693v-2.775a.694.694,0,0,0-.693-.694h-2.775a.7.7,0,0,0-.694.694v2.775A.694.694,0,0,0,578.526,664.431Zm.694-2.774h1.387v1.387H579.22Z" transform="translate(-543.145 -640.845)"/>
      <path id="Trazado_15807" data-name="Trazado 15807" d="M578.526,669.766H581.3a.694.694,0,0,0,.693-.694V666.3a.693.693,0,0,0-.693-.693h-2.775a.694.694,0,0,0-.694.693v2.775A.7.7,0,0,0,578.526,669.766Zm.694-2.775h1.387v1.387H579.22Z" transform="translate(-543.145 -640.628)"/>
      <path id="Trazado_15808" data-name="Trazado 15808" d="M547.859,659.1h2.775a.7.7,0,0,0,.694-.694V655.63a.694.694,0,0,0-.694-.694h-2.775a.693.693,0,0,0-.693.694V658.4A.694.694,0,0,0,547.859,659.1Zm.694-2.775h1.387v1.388h-1.387Z" transform="translate(-544.391 -641.061)"/>
      <path id="Trazado_15809" data-name="Trazado 15809" d="M547.859,664.431h2.775a.694.694,0,0,0,.694-.693v-2.775a.7.7,0,0,0-.694-.694h-2.775a.694.694,0,0,0-.693.694v2.775A.693.693,0,0,0,547.859,664.431Zm.694-2.774h1.387v1.387h-1.387Z" transform="translate(-544.391 -640.845)"/>
      <path id="Trazado_15810" data-name="Trazado 15810" d="M547.859,669.766h2.775a.7.7,0,0,0,.694-.694V666.3a.694.694,0,0,0-.694-.693h-2.775a.693.693,0,0,0-.693.693v2.775A.694.694,0,0,0,547.859,669.766Zm.694-2.775h1.387v1.387h-1.387Z" transform="translate(-544.391 -640.628)"/>
    </g>
    <g id="Grupo_7135" data-name="Grupo 7135" transform="translate(762.409 469.269)">
      <rect id="Rectángulo_1481" data-name="Rectángulo 1481" width="8.13" height="24.552" transform="translate(30.243 16.26)" fill="#e6ffff"/>
      <g id="Grupo_7133" data-name="Grupo 7133" transform="translate(27.804 6.504)">
        <path id="Trazado_15811" data-name="Trazado 15811" d="M777.514,464.812H764.506l2.439,3.252h8.13Z" transform="translate(-764.506 -458.308)" fill="#81b3e6"/>
        <rect id="Rectángulo_1482" data-name="Rectángulo 1482" width="13.008" height="6.504" fill="#81b3e6"/>
      </g>
      <rect id="Rectángulo_1483" data-name="Rectángulo 1483" width="6.504" height="5.691" transform="translate(31.056 0.813)" fill="#e6ffff"/>
      <rect id="Rectángulo_1484" data-name="Rectángulo 1484" width="22.764" height="3.252" transform="translate(0.813 2.114)" fill="#b53c1d"/>
      <path id="Trazado_15812" data-name="Trazado 15812" d="M738.568,457.468v16.26h22.764v-16.26Z" transform="translate(-737.755 -452.103)" fill="#e6ffff"/>
      <g id="Grupo_7134" data-name="Grupo 7134" transform="translate(4.065 8.617)">
        <rect id="Rectángulo_1485" data-name="Rectángulo 1485" width="6.504" height="6.504" fill="#6e6e6e"/>
        <rect id="Rectángulo_1486" data-name="Rectángulo 1486" width="6.504" height="6.504" transform="translate(9.756)" fill="#6e6e6e"/>
      </g>
      <rect id="Rectángulo_1487" data-name="Rectángulo 1487" width="29.43" height="19.186" transform="translate(0.813 21.625)" fill="#81b3e6"/>
      <path id="Trazado_15813" data-name="Trazado 15813" d="M779.311,465.71a.814.814,0,0,0,.1-.39v-6.5A.813.813,0,0,0,778.6,458H776.16v-4.878a.813.813,0,0,0-.813-.813h-6.5a.813.813,0,0,0-.814.813V458h-2.438a.813.813,0,0,0-.814.813v6.5a.816.816,0,0,0,.156.477l2.283,3.046v1.919a4.281,4.281,0,0,0-2.6-.889,2.484,2.484,0,0,1-2.439.082V454.426a.812.812,0,0,0-.813-.813H738.6a.813.813,0,0,0-.813.813v38.7a.813.813,0,0,0,.813.813h37.56a.813.813,0,0,0,.813-.813V468.842S779.293,465.744,779.311,465.71Zm-1.526-1.2H775.6l2.183-2.184Zm0-4.483-4.483,4.483h-2.578l4.877-4.878h2.183ZM766.4,463.949l4.321-4.321H773.3l-4.878,4.878H766.4Zm3.252-10.012h4.877V458h-4.877Zm-1.231,5.691L766.4,461.65v-2.021Zm-2.363,15.121-3.1,3.092-3.116-3.092h6.22ZM745.1,471.5h0a2.445,2.445,0,0,1,2.3,1.627h-1.568A4.057,4.057,0,0,0,745.1,471.5Zm9.756,0h0a2.445,2.445,0,0,1,2.3,1.627h-1.568A4.058,4.058,0,0,0,754.857,471.5Zm6.506,0h0a4.042,4.042,0,0,0-.733,1.627h-1.568A2.443,2.443,0,0,1,761.363,471.5Zm-12.711,3.556,3.479,3.449-3.878,3.862-3.685-3.654Zm-5.241,2.51-2.837-2.814h5.979Zm7.244-2.814H755.9l-2.616,2.606Zm1.905-1.625a.728.728,0,1,1,1.347,0Zm-1.684,0h-1.568a2.443,2.443,0,0,1,2.3-1.627h0A4.043,4.043,0,0,0,750.877,473.124Zm-8.072,0a.728.728,0,1,1,1.347,0Zm-1.683,0h-1.569a2.442,2.442,0,0,1,2.3-1.627h0A4.044,4.044,0,0,0,741.122,473.124Zm-1.71,2.764,2.786,2.762-2.786,2.492Zm3.942,3.909,3.746,3.715-3.407,3.392-3.912-3.911Zm4.9,4.86,3.937,3.9-3.429,3.414-3.921-3.921Zm1.152-1.148,3.877-3.861,3.938,3.9-3.877,3.862Zm8.969,1.188,3.665,3.634L757.975,492l-3.476-3.447Zm1.153-1.148,3.43-3.416,3.888,3.858-3.6,3.249Zm-1.155-1.145-3.938-3.9,3.432-3.417,3.937,3.905Zm2.176-12.449a3.322,3.322,0,0,1-5.691-.083,4.055,4.055,0,0,1-3.252,0,4.061,4.061,0,0,1-6.5,0,4.055,4.055,0,0,1-3.252,0,4.043,4.043,0,0,0-2.439.816v-12.2h21.138Zm-18.01,18.1-3.128,3.115v-6.243Zm1.15,1.15,3.109,3.108h-6.231Zm9.657.5,2.628,2.6h-5.244Zm9.852-.228,2.857,2.833h-5.994Zm1.208-1.092,2.81-2.538v5.325Zm-.3-9.4,3.105-3.092v6.172Zm.5-7.488a2.676,2.676,0,0,1,2.44,1.627h-1.709a4.057,4.057,0,0,0-.734-1.627Zm-1.625.623a2.459,2.459,0,0,1,.673,1h-1.347A2.44,2.44,0,0,1,762.99,472.121Zm-23.577-16.883h21.138v1.626H739.412Zm35.935,37.072h-1.626V480.441a.813.813,0,0,0-1.625,0V492.31h-3.252V469.384h6.5Zm.406-24.551h-7.317l-1.22-1.626h9.756Z" transform="translate(-737.787 -452.312)"/>
      <path id="Trazado_15814" data-name="Trazado 15814" d="M741.725,467.941h6.5a.813.813,0,0,0,.813-.813v-6.5a.812.812,0,0,0-.813-.813h-6.5a.813.813,0,0,0-.813.813v6.5A.813.813,0,0,0,741.725,467.941Zm.813-3.252h1.626v1.626h-1.626Zm3.252,1.626v-1.626h1.626v1.626Zm1.626-3.252h-1.626v-1.627h1.626Zm-3.252-1.627v1.627h-1.626v-1.627Z" transform="translate(-737.66 -452.007)"/>
      <path id="Trazado_15815" data-name="Trazado 15815" d="M751.1,467.941h6.5a.812.812,0,0,0,.813-.813v-6.5a.812.812,0,0,0-.813-.813h-6.5a.813.813,0,0,0-.813.813v6.5A.813.813,0,0,0,751.1,467.941Zm.813-3.252h1.626v1.626h-1.626Zm3.252,1.626v-1.626h1.626v1.626Zm1.626-3.252h-1.626v-1.627h1.626Zm-3.252-1.627v1.627h-1.626v-1.627Z" transform="translate(-737.279 -452.007)"/>
      <path id="Trazado_15816" data-name="Trazado 15816" d="M771.569,477.062a.813.813,0,1,0-.813-.813A.814.814,0,0,0,771.569,477.062Z" transform="translate(-736.448 -451.373)"/>
    </g>
    <g id="Grupo_7140" data-name="Grupo 7140" transform="translate(372.542 467.312)">
      <path id="Trazado_15817" data-name="Trazado 15817" d="M384.794,490.535H365.337a1.611,1.611,0,0,1-1.611-1.612v-8a8.1,8.1,0,0,1,8.1-8.1h6.489a8.1,8.1,0,0,1,8.095,8.1v8A1.611,1.611,0,0,1,384.794,490.535Z" transform="translate(-363.115 -449.521)" fill="#698ed5"/>
      <path id="Trazado_15818" data-name="Trazado 15818" d="M377.834,472.826h-2.379a8.1,8.1,0,0,1,8.1,8.1v8a1.611,1.611,0,0,1-1.611,1.612h2.379a1.611,1.611,0,0,0,1.611-1.612v-8A8.1,8.1,0,0,0,377.834,472.826Z" transform="translate(-362.639 -449.521)" fill="#4073c8"/>
      <path id="Trazado_15819" data-name="Trazado 15819" d="M377.744,472.826h-.067V476.1h6.572A8.085,8.085,0,0,0,377.744,472.826Z" transform="translate(-362.548 -449.521)" fill="#f6e266"/>
      <path id="Trazado_15820" data-name="Trazado 15820" d="M381.87,476.1h2.379a7.84,7.84,0,0,0-6.572-3.276v.336a8.1,8.1,0,0,1,4.193,2.94Z" transform="translate(-362.548 -449.521)" fill="#ffd064"/>
      <path id="Trazado_15821" data-name="Trazado 15821" d="M371.824,476.1v-3.276h-.066a8.085,8.085,0,0,0-6.5,3.276Z" transform="translate(-363.053 -449.521)" fill="#f6e266"/>
      <path id="Trazado_15822" data-name="Trazado 15822" d="M371.572,490.431h6.35l-3.175-15.041Z" transform="translate(-362.796 -449.417)" fill="#544f57"/>
      <path id="Trazado_15823" data-name="Trazado 15823" d="M374.65,475.39l-.687,3.254,2.488,11.787h1.374Z" transform="translate(-362.699 -449.417)" fill="#454045"/>
      <path id="Trazado_15824" data-name="Trazado 15824" d="M371.975,479.248l2.75-2.75,2.75,2.75-2.75,2.75Z" transform="translate(-362.78 -449.372)" fill="#afaab4"/>
      <path id="Trazado_15825" data-name="Trazado 15825" d="M374.781,478.661l4.036-10h-8.071Z" transform="translate(-362.83 -449.69)" fill="#544f57"/>
      <g id="Grupo_7136" data-name="Grupo 7136" transform="translate(6.919 22.306)">
        <path id="Trazado_15826" data-name="Trazado 15826" d="M374.819,478.531l-2.691-6.665-1.774,1.455a1.546,1.546,0,0,0-.442,1.8l2.256,5.292Z" transform="translate(-369.787 -471.866)" fill="#f6f1f1"/>
        <path id="Trazado_15827" data-name="Trazado 15827" d="M374.623,478.531l2.69-6.665,1.775,1.455a1.548,1.548,0,0,1,.442,1.8l-2.256,5.292Z" transform="translate(-369.591 -471.866)" fill="#f6f1f1"/>
      </g>
      <path id="Trazado_15828" data-name="Trazado 15828" d="M374.907,474.532a7.27,7.27,0,0,1-7.27-7.27v-5.8h14.54v5.8a7.27,7.27,0,0,1-7.27,7.27Z" transform="translate(-362.956 -449.983)" fill="#f1d0a5"/>
      <path id="Trazado_15829" data-name="Trazado 15829" d="M380.477,461.458h-12.84V463.5a16.366,16.366,0,0,0,10.992,1.25,1.494,1.494,0,0,1,1.847,1.449v1.068a7.269,7.269,0,0,1-6.42,7.22,7.4,7.4,0,0,0,.85.05,7.27,7.27,0,0,0,7.27-7.27v-5.8Z" transform="translate(-362.956 -449.983)" fill="#f1b986"/>
      <g id="Grupo_7137" data-name="Grupo 7137" transform="translate(2.426 13.957)">
        <path id="Trazado_15830" data-name="Trazado 15830" d="M367.725,467.491h-.6a1.653,1.653,0,0,1-1.653-1.652V465.5a1.653,1.653,0,0,1,1.653-1.652h.6Z" transform="translate(-365.47 -463.843)" fill="#e2a770"/>
        <path id="Trazado_15831" data-name="Trazado 15831" d="M381.609,467.491h.6a1.653,1.653,0,0,0,1.653-1.652V465.5a1.653,1.653,0,0,0-1.653-1.652h-.6Z" transform="translate(-364.814 -463.843)" fill="#e2a770"/>
      </g>
      <path id="Trazado_15832" data-name="Trazado 15832" d="M382.581,462.2a16.523,16.523,0,0,1-15.289,0,.669.669,0,0,1-.376-.6V460.21h16.04V461.6A.669.669,0,0,1,382.581,462.2Z" transform="translate(-362.986 -450.034)" fill="#544f57"/>
      <path id="Trazado_15833" data-name="Trazado 15833" d="M381.461,460.21V461.6a.669.669,0,0,1-.376.6,17.425,17.425,0,0,1-7.042,1.862,17.046,17.046,0,0,0,8.248-1.862.669.669,0,0,0,.376-.6V460.21Z" transform="translate(-362.696 -450.034)" fill="#454045"/>
      <path id="Trazado_15834" data-name="Trazado 15834" d="M383.284,454.434a7.878,7.878,0,0,1-7.385-2.978,1.128,1.128,0,0,0-1.786,0,7.879,7.879,0,0,1-7.385,2.978l-.711-.1a.72.72,0,0,0-.711,1.1A7.042,7.042,0,0,1,366.4,459.2v1.388h17.216V459.2a7.042,7.042,0,0,1,1.092-3.765.72.72,0,0,0-.711-1.1Z" transform="translate(-363.056 -450.407)" fill="#698ed5"/>
      <g id="Grupo_7138" data-name="Grupo 7138" transform="translate(2.391 0.61)">
        <path id="Trazado_15835" data-name="Trazado 15835" d="M366.969,454.339c-.083-.009-.167-.021-.251-.033l-.711-.1a.7.7,0,0,0-.57.162A7.837,7.837,0,0,0,366.969,454.339Z" transform="translate(-365.437 -450.889)" fill="#4073c8"/>
        <path id="Trazado_15836" data-name="Trazado 15836" d="M380.89,454.468a7.882,7.882,0,0,1-5.339-3.012,1.128,1.128,0,0,0-1.786,0l0,.005a7.876,7.876,0,0,0,7.129,3.006Z" transform="translate(-365.099 -451.018)" fill="#4073c8"/>
        <path id="Trazado_15837" data-name="Trazado 15837" d="M383.346,454.2l-.711.1c-.172.026-.342.045-.513.058a.721.721,0,0,1,.141.938,7.041,7.041,0,0,0-1.092,3.765v1.388h1.794v-1.388a7.042,7.042,0,0,1,1.092-3.765.719.719,0,0,0-.711-1.1Z" transform="translate(-364.798 -450.889)" fill="#4073c8"/>
        <path id="Trazado_15838" data-name="Trazado 15838" d="M372.9,460.21Z" transform="translate(-365.134 -450.644)" fill="#4073c8"/>
      </g>
      <path id="Trazado_15839" data-name="Trazado 15839" d="M374.685,458.3l.8-.582a1.925,1.925,0,0,0,.7-2.151l-.306-.941h-2.387l-.306.941a1.925,1.925,0,0,0,.7,2.151Z" transform="translate(-362.735 -450.26)" fill="#f6e266"/>
      <path id="Trazado_15840" data-name="Trazado 15840" d="M376.15,455.572l-.306-.941h-1.111l.253.778a1.923,1.923,0,0,1-.7,2.151l-.331.24.694.5.8-.582A1.925,1.925,0,0,0,376.15,455.572Z" transform="translate(-362.7 -450.26)" fill="#ffd064"/>
      <path id="Trazado_15841" data-name="Trazado 15841" d="M381.611,479.616l.428.866a.227.227,0,0,0,.17.124l.956.139a.226.226,0,0,1,.125.385l-.691.674a.224.224,0,0,0-.066.2l.163.952a.226.226,0,0,1-.328.238l-.855-.45a.227.227,0,0,0-.21,0l-.854.45a.226.226,0,0,1-.328-.238l.163-.952a.227.227,0,0,0-.066-.2l-.692-.674a.226.226,0,0,1,.126-.385l.955-.139a.224.224,0,0,0,.171-.124l.428-.866a.226.226,0,0,1,.4,0Z" transform="translate(-362.476 -449.251)" fill="#f6e266"/>
      <path id="Trazado_15842" data-name="Trazado 15842" d="M370.467,483.406h-4.28a.44.44,0,0,1-.44-.44v-1.122a.441.441,0,0,1,.44-.441h4.28a.441.441,0,0,1,.44.441v1.122a.44.44,0,0,1-.44.44Z" transform="translate(-363.033 -449.173)" fill="#f6f1f1"/>
      <g id="Grupo_7139" data-name="Grupo 7139" transform="translate(0)">
        <path id="Trazado_15843" data-name="Trazado 15843" d="M380.532,473.406a7.758,7.758,0,0,0,.995-1.151.61.61,0,0,0-1-.7,6.659,6.659,0,0,1-12.1-3.84v-4a16.9,16.9,0,0,0,13.318,0v4a6.672,6.672,0,0,1-.248,1.805.61.61,0,1,0,1.175.331,7.839,7.839,0,0,0,.237-1.2h.049a2.266,2.266,0,0,0,2.263-2.263v-.343a2.266,2.266,0,0,0-2.256-2.263v-.619l.033-.016h0a1.29,1.29,0,0,0,.718-1.15v-.774h.6a.61.61,0,0,0,0-1.221h-.011v-.778a6.417,6.417,0,0,1,1-3.438,1.331,1.331,0,0,0-1.316-2.031l-.711.105a7.277,7.277,0,0,1-6.813-2.748,1.739,1.739,0,0,0-2.751,0,7.3,7.3,0,0,1-2.525,2.069.61.61,0,1,0,.542,1.094,8.519,8.519,0,0,0,2.948-2.416.519.519,0,0,1,.82,0,8.5,8.5,0,0,0,7.957,3.21l.711-.105a.1.1,0,0,1,.107.048.105.105,0,0,1,0,.122,7.637,7.637,0,0,0-1.186,4.092V460h-16v-.778a7.637,7.637,0,0,0-1.186-4.092.105.105,0,0,1,0-.122.1.1,0,0,1,.107-.048l.711.105a8.487,8.487,0,0,0,2.348.017.61.61,0,0,0-.16-1.21,7.259,7.259,0,0,1-2.009-.015l-.711-.105a1.331,1.331,0,0,0-1.316,2.031,6.417,6.417,0,0,1,1,3.438V460h-.011a.61.61,0,1,0,0,1.221h.6v.774a1.29,1.29,0,0,0,.718,1.15l.033.016v.619a2.266,2.266,0,0,0-2.256,2.263v.343a2.266,2.266,0,0,0,2.263,2.263h.048a7.862,7.862,0,0,0,2.384,4.759,8.71,8.71,0,0,0-6.51,8.426v8a2.225,2.225,0,0,0,2.222,2.222h1.911a.61.61,0,0,0,0-1.221h-1.911a1,1,0,0,1-1-1v-8a7.464,7.464,0,0,1,1.3-4.209h4.557l1.664,3.9a.611.611,0,0,0,.4.349.675.675,0,0,0,.613-.157l.38.38-1.845,8.738h-1.708a.61.61,0,1,0,0,1.221h15.107a2.225,2.225,0,0,0,2.222-2.223v-8a8.712,8.712,0,0,0-6.508-8.426ZM384,466.04v.343a1.044,1.044,0,0,1-1.035,1.043V465A1.044,1.044,0,0,1,384,466.04Zm-1.506-4.822c-.013.779.028.8-.033.827a15.924,15.924,0,0,1-14.752,0,.061.061,0,0,1-.034-.054v-.774Zm-16.324,5.166v-.343A1.044,1.044,0,0,1,367.21,465v2.428A1.043,1.043,0,0,1,366.174,466.384Zm11.3,13.966-1.641-1.167,1.594-3.95a7.919,7.919,0,0,0,1.587-.694l.151.124a.942.942,0,0,1,.268,1.093Zm3.082-4.116a2.16,2.16,0,0,0,.058-1.531,7.464,7.464,0,0,1,2.866,1.7h-3Zm-4.568-.7-.9,2.232-.9-2.231a8.046,8.046,0,0,0,.9.052A7.863,7.863,0,0,0,375.991,475.538Zm-9.295.864a7.463,7.463,0,0,1,2.866-1.7,2.16,2.16,0,0,0,.058,1.531l.071.168Zm4.047-.646a.942.942,0,0,1,.268-1.093l.15-.123a7.872,7.872,0,0,0,1.588.7l1.594,3.947L372.7,480.35Zm4.347,4.395,1.2.85-1.2,1.2-1.2-1.2Zm-2.423,10.685,1.628-7.708c.278.236.414.542.8.542s.515-.3.8-.542l1.628,7.708Zm13.152-1a1,1,0,0,1-1,1H378.76l-1.845-8.738.379-.38a.675.675,0,0,0,.613.157.61.61,0,0,0,.4-.349l1.664-3.9h4.556a7.457,7.457,0,0,1,1.3,4.209v8Z" transform="translate(-363.139 -450.431)"/>
        <path id="Trazado_15844" data-name="Trazado 15844" d="M377.215,466.2v.739a.611.611,0,0,0,1.222,0V466.2a.611.611,0,0,0-1.222,0Z" transform="translate(-362.567 -449.815)"/>
        <path id="Trazado_15845" data-name="Trazado 15845" d="M370.857,466.2v.739a.61.61,0,0,0,1.221,0V466.2a.61.61,0,0,0-1.221,0Z" transform="translate(-362.826 -449.815)"/>
        <path id="Trazado_15846" data-name="Trazado 15846" d="M375.706,469.238a1.477,1.477,0,0,1-2.01,0,.61.61,0,1,0-.738.972,2.664,2.664,0,0,0,3.486,0,.61.61,0,0,0-.738-.972Z" transform="translate(-362.75 -449.672)"/>
        <path id="Trazado_15847" data-name="Trazado 15847" d="M374.35,458.823a.611.611,0,0,0,.718,0l.8-.582a2.529,2.529,0,0,0,.921-2.834l-.306-.941a.611.611,0,0,0-.581-.423h-2.387a.61.61,0,0,0-.581.423l-.306.941a2.529,2.529,0,0,0,.921,2.834Zm-.56-3.039.169-.519h1.5l.169.519a1.312,1.312,0,0,1-.478,1.469l-.441.321-.442-.321a1.312,1.312,0,0,1-.477-1.469Z" transform="translate(-362.759 -450.284)"/>
        <path id="Trazado_15848" data-name="Trazado 15848" d="M383.277,480.164l-.757-.109-.338-.686a.831.831,0,0,0-.75-.466h0a.83.83,0,0,0-.749.466l-.338.686-.757.109a.836.836,0,0,0-.463,1.427l.547.533-.129.753a.836.836,0,0,0,1.213.881l.676-.355.675.355a.836.836,0,0,0,1.213-.881l-.129-.752.547-.534a.836.836,0,0,0-.463-1.427Zm-1.081,1.227a.835.835,0,0,0-.24.74l.031.185-.165-.087a.837.837,0,0,0-.778,0l-.165.087.032-.184a.838.838,0,0,0-.24-.741l-.134-.131.185-.026a.836.836,0,0,0,.63-.458l.083-.168.082.168a.838.838,0,0,0,.63.458l.185.026Z" transform="translate(-362.5 -449.274)"/>
        <path id="Trazado_15849" data-name="Trazado 15849" d="M371.542,482.99v-1.122a1.052,1.052,0,0,0-1.051-1.051h-4.28a1.052,1.052,0,0,0-1.051,1.051v1.122a1.052,1.052,0,0,0,1.051,1.051h4.28a1.052,1.052,0,0,0,1.051-1.051Zm-1.221-.17h-3.941v-.783h3.941Z" transform="translate(-363.057 -449.197)"/>
      </g>
    </g>
  </g>
</svg>
