<?xml version="1.0" encoding="utf-8"?>
<!-- Generator: Adobe Illustrator 24.1.2, SVG Export Plug-In . SVG Version: 6.00 Build 0)  -->
<svg version="1.1" id="Capa_1" xmlns="http://www.w3.org/2000/svg" xmlns:xlink="http://www.w3.org/1999/xlink" x="0px" y="0px"
	 viewBox="0 0 825.6 134" style="enable-background:new 0 0 825.6 134;" xml:space="preserve">
<style type="text/css">
	.st0{fill:#023C7D;}
	.st1{fill:#E0F2FF;}
	.st2{fill:#ABD0DE;}
	.st3{fill:#BA7965;}
	.st4{fill:#1CA1FF;}
	.st5{fill:#A26152;}
	.st6{fill:#FCBB66;}
</style>
<path class="st0" d="M825.6,109.3c0-11-9-20-20-20H177.4c-21.4,0-39.8-15.1-44-36.1v0.4c-6.1-30.9-33.4-54.1-66-54.1
	C30.2-0.4,0.1,29.7,0.1,66.9v67.3h134.6v0h690.9V109.3z"/>
<g>
	<path class="st1" d="M49.9,90.1c0-1.1,0-2,0-3c0-1.1,0.3-2,1.1-2.7c0.5-0.4,0.6-0.8,0.6-1.4c0-6.3,0-12.7,0-19c0-2.4,0-4.8,0-7.2
		c-6.2,0-12.2,0-18.3,0c0,11.2,0,22.3,0,33.4C38.7,90.1,44.2,90.1,49.9,90.1z"/>
	<path class="st1" d="M88.4,90.3c0.6-0.3,1.1-0.4,1.4-0.7c1.7-1.6,3.3-3.3,4.9-4.9c0.2-0.2,0.4-0.6,0.4-0.9
		c-0.1-1.3,0.4-2.3,1.3-3.1c0.6-0.6,1.3-1.1,1.9-1.7c-0.9-1-1.6-1.7-2.8-1.8c-1.5-0.1-4.9-3.5-5-4.9c-0.1-1.3-0.2-2.7-0.4-4
		c-0.2-1.6-0.1-3.3,0-5c0.1-1.5,0.8-2.8,2.2-3c2.4-0.4,4.9-0.9,7.1,0.8c2-1.6,3.9-3.7,4-4.4c-5.5,0-11,0-16.5,0
		c0,0.2-0.1,0.2-0.1,0.3c0,8.8,0,17.5,0,26.3c0,0.3,0.2,0.7,0.4,0.9c0.9,0.8,1.3,1.7,1.3,2.9C88.4,88,88.4,89,88.4,90.3z"/>
	<g>
		<path d="M130.2,80.3c0,0.5,0,1,0,1.6c-0.6,0.8-1.2,1.7-1.9,2.4c-1.6,1.7-3.2,3.2-4.8,4.9c-2,2-4,4-6,6c-1.3,1.3-3.1,1.5-4.4,0.4
			c-1.1-0.9-2.1-2-3-3c-0.3-0.4-0.6-0.9-0.6-1.4c0.1-1.3-0.8-2-1.8-2.8c-0.6,0.7-1.3,1.4-2,2.2c-0.7,0.7-1.5,1.2-2.5,1
			c-0.7-0.1-1.1,0.2-1.5,0.6c-4.7,4.7-9.4,9.4-14.1,14.2c-1,1-2,1.9-3.3,2.3c-0.8,0-1.6,0-2.4,0c-0.1-0.1-0.1-0.1-0.2-0.2
			c-3.9-1.6-4.7-5.6-1.7-8.7c1.8-1.8,3.7-3.7,5.5-5.5c0.2-0.2,0.4-0.4,0.6-0.8c-0.4,0-0.7,0-0.9,0c-6.9,0-13.7,0-20.6,0
			c-10.3,0-20.6,0-31,0c-2.1,0-3.6-1.3-3.6-3.3c0-11.2,0-22.4,0-33.6c0-1.3,0.6-2.3,1.7-2.9c0.6-0.3,1.4-0.4,2.2-0.5
			c2-0.1,4,0,6.1,0c0-0.5,0-0.8,0-1.2c0-2.9,0-5.8,0-8.6c0-3,1.9-5,4.9-5.3c0.3,0,0.8-0.3,0.9-0.6c4.3-7.8,11.2-11.6,19.8-12.6
			c0.9-0.1,1.1-0.4,1.1-1.2c0-4.4,0-8.8,0-13.3c0-1,0.2-1.8,1-2.5c0.4,0,0.8,0,1.2,0c0.4,0.5,0.9,0.9,1.1,1.4c0.1,0.6,0.4,0.8,1,1
			c2.8,0.9,5.6,1.9,8.4,2.8c1.7,0.6,2.5,1.8,2.4,3.4c-0.1,1.5-1,2.4-2.3,2.8c-2.8,1-5.7,1.9-8.5,2.8c-0.6,0.2-0.9,0.5-0.8,1.1
			c0.1,0.4,0,0.9,0,1.3c1,0.1,1.8,0.2,2.6,0.3c7.9,1.4,14.2,5.2,18.2,12.5c0.2,0.3,0.6,0.5,1,0.6c3,0.3,4.9,2.2,4.9,5.3
			c0,2.9,0,5.8,0,8.6c0,0.3,0,0.7,0,1.1c0.5,0,0.8,0,1.2,0c1.8,0,3.5,0,5.3,0c1.9,0,3,1,3.5,2.8c0.1,0.3,0.3,0.5,0.5,0.8
			c1.1,1.1,2.3,2.1,3.3,3.2c0.4,0.5,0.5,1.3,0.7,2c0.2,0.4,0.3,0.9,0.6,1.2c3.7,3.8,7.5,7.5,11.3,11.3c0.5,0.5,1,0.8,1.8,0.8
			c0.5,0,1.1,0.2,1.5,0.5C127.8,77.2,129.4,78.4,130.2,80.3z M83.3,83.4c0-0.2,0-0.2,0-0.3c0-9.6,0-19.2,0-28.9c0-1-0.4-1.6-1.4-1.9
			c-4.3-1.3-8.5-2.6-12.8-3.8c-0.5-0.2-1.2-0.1-1.7,0.1c-3.6,1.2-7.2,2.4-10.8,3.6c-1.5,0.5-1.7,0.8-1.7,2.4c0,9.3,0,18.5,0,27.8
			c0,0.3,0,0.7,0,1c1.7,0,3.3,0,5,0c0-7.2,0-14.4,0-21.6c-1.3-0.6-1.8-1.2-1.6-2.1c0.2-0.9,0.9-1.4,2.3-1.4c5.8,0,11.7,0,17.5,0
			c1,0,1.7,0.5,1.9,1.4c0.1,0.9-0.3,1.6-1.2,1.9c-0.1,0.1-0.3,0.1-0.4,0.2c0,7.3,0,14.4,0,21.6C80,83.4,81.6,83.4,83.3,83.4z
			 M49.9,90.1c0-1.1,0-2,0-3c0-1.1,0.3-2,1.1-2.7c0.5-0.4,0.6-0.8,0.6-1.4c0-6.3,0-12.7,0-19c0-2.4,0-4.8,0-7.2
			c-6.2,0-12.2,0-18.3,0c0,11.2,0,22.3,0,33.4C38.7,90.1,44.2,90.1,49.9,90.1z M93.3,53.2c0-3.3,0-6.5,0-9.7c0-1.5-0.5-2-2-2
			c-15.3,0-30.7,0-46,0c-1.6,0-2.1,0.6-2.1,2.1c0,2.9,0,5.8,0,8.7c0,0.2,0,0.5,0.1,0.8c2.7,0,5.3,0,7.9,0c0.2,0,0.5-0.4,0.6-0.6
			c0.5-1.8,1.7-2.9,3.4-3.5c3.8-1.3,7.6-2.5,11.4-3.8c1.2-0.4,2.3-0.4,3.5,0c4.2,1.3,8.5,2.6,12.7,3.8c1.9,0.6,3.2,1.7,3.8,3.6
			c0.1,0.2,0.4,0.5,0.7,0.5C89.2,53.2,91.2,53.2,93.3,53.2z M49.2,38.1c12.8,0,25.3,0,38.1,0C82.5,31.3,76.1,28,68,28.1
			C60.1,28.2,53.9,31.5,49.2,38.1z M120.9,77.3c-3.9-3.9-7.8-7.8-11.6-11.6c-3.2,3.2-6.4,6.5-9.6,9.6c3.8,3.9,7.8,7.8,11.6,11.7
			C114.4,83.7,117.7,80.5,120.9,77.3z M88.4,90.3c0.6-0.3,1.1-0.4,1.4-0.7c1.7-1.6,3.3-3.3,4.9-4.9c0.2-0.2,0.4-0.6,0.4-0.9
			c-0.1-1.3,0.4-2.3,1.3-3.1c0.6-0.6,1.3-1.1,1.9-1.7c-0.9-1-1.6-1.7-2.8-1.8c-1.5-0.1-4.9-3.5-5-4.9c-0.1-1.3-0.2-2.7-0.4-4
			c-0.2-1.6-0.1-3.3,0-5c0.1-1.5,0.8-2.8,2.2-3c2.4-0.4,4.9-0.9,7.1,0.8c2-1.6,3.9-3.7,4-4.4c-5.5,0-11,0-16.5,0
			c0,0.2-0.1,0.2-0.1,0.3c0,8.8,0,17.5,0,26.3c0,0.3,0.2,0.7,0.4,0.9c0.9,0.8,1.3,1.7,1.3,2.9C88.4,88,88.4,89,88.4,90.3z
			 M74.9,61.7c-1.6,0-3.2,0-4.9,0c0,7.2,0,14.4,0,21.7c1.6,0,3.2,0,4.9,0C74.9,76.1,74.9,68.9,74.9,61.7z M53.3,86.8
			c0,1.1,0,2.2,0,3.3c10.6,0,21.1,0,31.6,0c0-1.1,0-2.2,0-3.3C74.4,86.8,63.9,86.8,53.3,86.8z M97.2,87c-0.2,0.1-0.3,0.3-0.5,0.4
			c-4.9,4.9-9.8,9.8-14.6,14.6c-0.2,0.2-0.3,0.3-0.4,0.5c-0.5,0.7-0.4,1.4,0.1,2c0.6,0.6,1.3,0.8,2,0.4c0.3-0.2,0.6-0.4,0.8-0.7
			c4.8-4.8,9.6-9.6,14.3-14.4c0.2-0.2,0.3-0.4,0.4-0.5C98.7,88.6,97.9,87.8,97.2,87z M63.4,61.6c0,7.3,0,14.5,0,21.7
			c1.1,0,2.1,0,3.2,0c0-7.3,0-14.5,0-21.7C65.5,61.6,64.5,61.6,63.4,61.6z M105.6,59.8c-4,4-7.9,7.9-11.7,11.7
			c0.7,0.7,1.4,1.5,2,2.1c3.9-3.9,7.8-7.8,11.8-11.8C107,61.2,106.3,60.5,105.6,59.8z M114.9,92.7c3.9-3.9,7.9-7.9,11.7-11.7
			c-0.7-0.7-1.4-1.5-2-2.2c-3.9,3.9-7.8,7.8-11.7,11.8C113.5,91.3,114.2,92,114.9,92.7z M78,16.4c-2.8-0.9-5.4-1.8-8-2.7
			c0,1.8,0,3.5,0,5.3C72.7,18.2,75.2,17.3,78,16.4z M105.2,86c-1.6-1.6-3.1-3.1-4.5-4.5c-0.7,0.6-1.4,1.3-2.1,1.8
			c1.5,1.6,3.1,3.1,4.6,4.7C103.9,87.4,104.5,86.7,105.2,86z M93.4,63.3c0,1.3,0,2.4,0,3.8c1.2-1.3,2.3-2.4,3.4-3.5
			c-0.1-0.1-0.1-0.2-0.2-0.3c-0.6,0-1.2,0-1.7,0C94.4,63.3,93.9,63.3,93.4,63.3z"/>
		<path d="M46.5,81c0,0.9,0,1.8,0,2.6c-0.1,1.7-1.4,3.1-3.2,3.1c-1.2,0-2.3,0-3.5,0c-1.9,0-3.3-1.4-3.3-3.3c0-1.7,0-3.4,0-5.1
			c0-1.8,1.3-3.2,3.2-3.3c1.2-0.1,2.4-0.1,3.6,0c1.9,0.1,3.2,1.5,3.2,3.4C46.5,79.3,46.5,80.1,46.5,81C46.5,81,46.5,81,46.5,81z
			 M39.9,78.4c0,1.7,0,3.3,0,4.9c1.1,0,2.2,0,3.2,0c0-1.7,0-3.3,0-4.9C42,78.4,41,78.4,39.9,78.4z"/>
		<path d="M46.5,65.8c0,0.9,0,1.8,0,2.6c-0.1,1.8-1.4,3.1-3.1,3.1c-1.2,0-2.4,0-3.6,0c-1.8-0.1-3.2-1.4-3.2-3.2
			c-0.1-1.8-0.1-3.5,0-5.3c0.1-1.8,1.4-3.1,3.2-3.2c1.2-0.1,2.4-0.1,3.5,0c1.9,0.1,3.2,1.4,3.3,3.3C46.5,64.1,46.5,65,46.5,65.8
			C46.5,65.8,46.5,65.8,46.5,65.8z M39.9,68.2c1.1,0,2.2,0,3.2,0c0-1.7,0-3.3,0-4.9c-1.1,0-2.1,0-3.2,0C39.9,65,39.9,66.6,39.9,68.2
			z"/>
	</g>
	<path class="st2" d="M83.3,83.4c0-0.2,0-0.2,0-0.3c0-9.6,0-19.2,0-28.9c0-1-0.4-1.6-1.4-1.9c-4.3-1.3-8.5-2.6-12.8-3.8
		c-0.5-0.2-1.2-0.1-1.7,0.1c-3.6,1.2-7.2,2.4-10.8,3.6c-1.5,0.5-1.7,0.8-1.7,2.4c0,9.3,0,18.5,0,27.8c0,0.3,0,0.7,0,1
		c1.7,0,3.3,0,5,0c0-7.2,0-14.4,0-21.6c-1.3-0.6-1.8-1.2-1.6-2.1c0.2-0.9,0.9-1.4,2.3-1.4c5.8,0,11.7,0,17.5,0c1,0,1.7,0.5,1.9,1.4
		c0.1,0.9-0.3,1.6-1.2,1.9c-0.1,0.1-0.3,0.1-0.4,0.2c0,7.3,0,14.4,0,21.6C80,83.4,81.6,83.4,83.3,83.4z"/>
	<path class="st1" d="M93.3,53.2c0-3.3,0-6.5,0-9.7c0-1.5-0.5-2-2-2c-15.3,0-30.7,0-46,0c-1.6,0-2.1,0.6-2.1,2.1c0,2.9,0,5.8,0,8.7
		c0,0.2,0,0.5,0.1,0.8c2.7,0,5.3,0,7.9,0c0.2,0,0.5-0.4,0.6-0.6c0.5-1.8,1.7-2.9,3.4-3.5c3.8-1.3,7.6-2.5,11.4-3.8
		c1.2-0.4,2.3-0.4,3.5,0c4.2,1.3,8.5,2.6,12.7,3.8c1.9,0.6,3.2,1.7,3.8,3.6c0.1,0.2,0.4,0.5,0.7,0.5C89.2,53.2,91.2,53.2,93.3,53.2z
		"/>
	<path class="st1" d="M49.2,38.1c12.8,0,25.3,0,38.1,0C82.5,31.3,76.1,28,68,28.1C60.1,28.2,53.9,31.5,49.2,38.1z"/>
	<path class="st3" d="M120.9,77.3c-3.9-3.9-7.8-7.8-11.6-11.6c-3.2,3.2-6.4,6.5-9.6,9.6c3.8,3.9,7.8,7.8,11.6,11.7
		C114.4,83.7,117.7,80.5,120.9,77.3z"/>
	<path class="st4" d="M74.9,61.7c-1.6,0-3.2,0-4.9,0c0,7.2,0,14.4,0,21.7c1.6,0,3.2,0,4.9,0C74.9,76.1,74.9,68.9,74.9,61.7z"/>
	<path class="st2" d="M53.3,86.8c0,1.1,0,2.2,0,3.3c10.6,0,21.1,0,31.6,0c0-1.1,0-2.2,0-3.3C74.4,86.8,63.9,86.8,53.3,86.8z"/>
	<path class="st3" d="M97.2,87c-0.2,0.1-0.3,0.3-0.5,0.4c-4.9,4.9-9.8,9.8-14.6,14.6c-0.2,0.2-0.3,0.3-0.4,0.5
		c-0.5,0.7-0.4,1.4,0.1,2c0.6,0.6,1.3,0.8,2,0.4c0.3-0.2,0.6-0.4,0.8-0.7c4.8-4.8,9.6-9.6,14.3-14.4c0.2-0.2,0.3-0.4,0.4-0.5
		C98.7,88.6,97.9,87.8,97.2,87z"/>
	<path class="st4" d="M63.4,61.6c0,7.3,0,14.5,0,21.7c1.1,0,2.1,0,3.2,0c0-7.3,0-14.5,0-21.7C65.5,61.6,64.5,61.6,63.4,61.6z"/>
	<path class="st5" d="M105.6,59.8c-4,4-7.9,7.9-11.7,11.7c0.7,0.7,1.4,1.5,2,2.1c3.9-3.9,7.8-7.8,11.8-11.8
		C107,61.2,106.3,60.5,105.6,59.8z"/>
	<path class="st5" d="M114.9,92.7c3.9-3.9,7.9-7.9,11.7-11.7c-0.7-0.7-1.4-1.5-2-2.2c-3.9,3.9-7.8,7.8-11.7,11.8
		C113.5,91.3,114.2,92,114.9,92.7z"/>
	<path class="st6" d="M78,16.4c-2.8-0.9-5.4-1.8-8-2.7c0,1.8,0,3.5,0,5.3C72.7,18.2,75.2,17.3,78,16.4z"/>
	<path class="st5" d="M105.2,86c-1.6-1.6-3.1-3.1-4.5-4.5c-0.7,0.6-1.4,1.3-2.1,1.8c1.5,1.6,3.1,3.1,4.6,4.7
		C103.9,87.4,104.5,86.7,105.2,86z"/>
	<path class="st2" d="M93.4,63.3c0,1.3,0,2.4,0,3.8c1.2-1.3,2.3-2.4,3.4-3.5c-0.1-0.1-0.1-0.2-0.2-0.3c-0.6,0-1.2,0-1.7,0
		C94.4,63.3,93.9,63.3,93.4,63.3z"/>
	<path class="st2" d="M39.9,68.2c1.1,0,2.2,0,3.2,0c0-1.7,0-3.3,0-4.9c-1.1,0-2.1,0-3.2,0C39.9,65,39.9,66.6,39.9,68.2z"/>
	<path class="st2" d="M39.9,78.4c0,1.7,0,3.3,0,4.9c1.1,0,2.2,0,3.2,0c0-1.7,0-3.3,0-4.9C42,78.4,41,78.4,39.9,78.4z"/>
</g>
</svg>
