<svg xmlns="http://www.w3.org/2000/svg" width="63.311" height="85.28" viewBox="0 0 63.311 85.28">
  <g id="Grupo_7194" data-name="Grupo 7194" transform="translate(-2846.968 -839.672)">
    <path id="Trazado_16051" data-name="Trazado 16051" d="M2860.972,967.424a4.236,4.236,0,0,1-3.111-4.774c.058-.964.01-1.934.01-3.026-1.155,0-2.229.021-3.3,0a4.974,4.974,0,0,1-4.988-4.623,5.736,5.736,0,0,1,.169-1.808c1.015-4.313,2.061-8.619,3.114-13-.239-.1-.458-.194-.68-.279a7.893,7.893,0,0,1-2.771-13.138c.672-.661,1.379-1.288,2.087-1.91a5.7,5.7,0,0,0,2.016-4.551c-.029-4.633-.009-9.267-.009-13.9,0-.277-.007-.555,0-.832.028-.956.516-1.526,1.289-1.512.754.014,1.208.543,1.208,1.48q.008,7.575-.006,15.149a7.656,7.656,0,0,1-2.5,5.7c-.823.785-1.714,1.5-2.5,2.322a5.164,5.164,0,0,0-1.3,5.305,5.384,5.384,0,0,0,3.751,3.675c.463-1.916.912-3.769,1.36-5.621.326-1.346.637-2.7.984-4.037a4.992,4.992,0,0,1,4.962-3.894c2.3-.019,4.6,0,6.993,0,0-1.163.021-2.264-.022-3.362-.007-.174-.275-.385-.47-.5-5.453-3.134-8.05-7.928-8.1-14.129-.016-1.876.259-3.755.406-5.633a1.55,1.55,0,0,1,1.105-1.407,11.379,11.379,0,0,0,4.884-3.754,2.187,2.187,0,0,1,3.339-.505,23.446,23.446,0,0,0,17.73,3.836c1.165-.2,1.642.125,1.865,1.3a25.167,25.167,0,0,1,.159,9.751,14.936,14.936,0,0,1-7.573,10.415,1.106,1.106,0,0,0-.658,1.168c.045.906.012,1.815.012,2.813h4.145q2.039,0,4.079,0a5.342,5.342,0,0,1,4.706,2.5c.773,1.151,1.588,2.274,2.332,3.444a1.258,1.258,0,0,0,1.4.727,8.973,8.973,0,0,1,1.373-.012c-.272-.532-.488-.97-.718-1.4a1.266,1.266,0,0,1,.363-1.81,1.2,1.2,0,0,1,1.715.479c.485.923.816,1.926,1.249,2.878a1.415,1.415,0,0,0,.567.685,10.764,10.764,0,0,1,5.541,14.364,1.193,1.193,0,0,0,.09.949c.645,1.034,1.374,2.016,2.043,3.036a5.038,5.038,0,0,1-2.476,7.774c-2.891,1.125-5.8,2.2-8.689,3.332a4.473,4.473,0,0,0-1.438.921c-1.766,1.706-3.147,1.94-5.535.7a12.735,12.735,0,0,0-1.029,1.949,4.468,4.468,0,0,1-2.862,2.774Zm6.729-40.785c-2.211,0-4.372,0-6.533,0a2.65,2.65,0,0,0-3.046,2.4q-2.944,12.238-5.891,24.475c-.547,2.27.5,3.611,2.852,3.612q11.276,0,22.553,0h.772v-5.093h-1.03q-7.948,0-15.9,0c-2.224,0-3.3-1.391-2.788-3.548.321-1.347.638-2.695.965-4.04.417-1.722.824-3.448,1.271-5.163a1.215,1.215,0,0,1,1.493-.978,1.244,1.244,0,0,1,.911,1.539c-.028.191-.076.38-.122.568q-.988,4.121-1.976,8.241c-.062.258-.1.523-.163.886h1c3.773,0,7.545-.013,11.318.013a1.847,1.847,0,0,0,1.451-.613q6.209-6.266,12.459-12.491c1.9-1.888,3.6-4.03,6.34-4.971-.948-1.364-1.767-2.684-2.744-3.875a2.606,2.606,0,0,0-1.7-.9c-2.905-.091-5.814-.042-8.708-.042-1.239,4.3-3.338,6.18-6.691,6.021C2870.556,932.52,2868.379,930.4,2867.7,926.639Zm.012-29.561a32.481,32.481,0,0,1-4.231,3.35,3.053,3.053,0,0,0-1.792,2.881,19.461,19.461,0,0,0,.937,8.189c3.218,8.172,12.822,10.647,19.388,4.965,3.321-2.874,4.575-6.641,4.52-10.916-.018-1.4-.175-2.791-.272-4.242a27.136,27.136,0,0,1-9.821-.424A25.146,25.146,0,0,1,2867.714,897.078Zm33.254,40.881c.218.264.285.342.35.423a1.206,1.206,0,0,1,.032,1.779,1.165,1.165,0,0,1-1.723.038,3.637,3.637,0,0,1-1.007-1.72,2.731,2.731,0,0,1,2.065-3.015c.505-.187,1.031-.315,1.586-.482-2.792-2.568-7.9-2.156-10.78.808a8.235,8.235,0,0,0,11.639,11.65c3.367-3.232,2.909-8.232,1.108-10.318Zm-2.8,14.308a10.9,10.9,0,0,1-8.351-3.162,11.32,11.32,0,0,1-3.27-8.342c-.656.544-1.139,1.247-1.789,1.717a4.051,4.051,0,0,0-1.586,4.153c.088.742.2,1.484.242,2.229.026.53.252.679.755.749a4.982,4.982,0,0,1,4.137,3.815,5.15,5.15,0,0,1-1.006,4.405c.28.337.541.658.809.973s.541.624.811.936a4.471,4.471,0,0,1,1.4-3.738c.38-.365.746-.744,1.119-1.117,1.781-1.78,2.909-2.009,5.2-1.068Zm-26.264,7.4H2860.37c0,1.191-.008,2.347,0,3.5.012,1.3.464,1.754,1.757,1.755q6.2,0,12.4,0c.2,0,.409-.026.759-.049A11.145,11.145,0,0,1,2871.9,959.666Zm-1.6-38.113c0,1.914-.1,3.689.028,5.447a3.655,3.655,0,0,0,3.6,3.175,3.564,3.564,0,0,0,3.808-2.9,53.727,53.727,0,0,0,.045-5.7A11.769,11.769,0,0,1,2870.3,921.553Zm4.222,38.075a8.208,8.208,0,0,0,6.78,5.231,7.955,7.955,0,0,0,6.808-2.4c-.914-1.005-1.742-1.937-2.6-2.84a.869.869,0,0,0-.611-.208c-.854.048-1.7.2-2.558.206C2879.8,959.647,2877.252,959.628,2874.526,959.628Zm24.848-1.709c2.318-.892,4.679-1.748,6.994-2.714a2.365,2.365,0,0,0,1.189-3.229c-.6-1.138-1.392-2.173-2.012-3.119l-6.912,6.838ZM2881,957.11c.926,0,1.785.053,2.635-.012a2.569,2.569,0,0,0,2.314-2.425,2.45,2.45,0,0,0-2.033-2.556,26.517,26.517,0,0,0-2.916-.021Zm13.6-1.386a2.8,2.8,0,0,0-.777.367c-.693.637-1.371,1.295-2,1.992a1.16,1.16,0,0,0,.024,1.657,8.979,8.979,0,0,0,.818.827,1.268,1.268,0,0,0,1.913,0c.505-.473.979-.981,1.475-1.464.477-.464.94-.979.557-1.664A3.316,3.316,0,0,0,2894.6,955.724Zm-13.934-8.844-2.618,2.59h2.89C2880.841,948.556,2880.752,947.709,2880.666,946.88Z" transform="translate(0 -42.473)" fill="#023c7d"/>
    <path id="Trazado_16052" data-name="Trazado 16052" d="M2917.5,866.2c0,3.857.008,7.714,0,11.57a6.074,6.074,0,0,0,.941,3.392,1.292,1.292,0,0,1-.281,1.952c-.639.381-1.315.166-1.826-.608a8.2,8.2,0,0,1-1.329-4.646c0-7.38-.111-14.763.031-22.141a13.171,13.171,0,0,0-13.616-13.543c-2.716.092-5.438.033-8.157.009a6.6,6.6,0,0,0-5.657,2.781c-.265.356-.55.7-.817,1.052a5.262,5.262,0,0,1-4.134,2.145,3.723,3.723,0,0,0-3.757,3.923c-.02,1.554,0,3.108-.008,4.661-.007.954-.434,1.458-1.2,1.474s-1.282-.505-1.28-1.417c.006-1.94-.078-3.894.121-5.817a6.008,6.008,0,0,1,5.809-5.3,3.114,3.114,0,0,0,2.614-1.36c.351-.5.731-.979,1.128-1.441a8.6,8.6,0,0,1,6.613-3.174q4.91-.077,9.822,0a15.458,15.458,0,0,1,14.975,15c.056,3.828.01,7.658.01,11.487Z" transform="translate(-22.873)" fill="#023c7d"/>
    <path id="Trazado_16053" data-name="Trazado 16053" d="M2954.54,974.294a5.558,5.558,0,0,1-3.319-1.26,1.225,1.225,0,0,1-.334-1.694,1.155,1.155,0,0,1,1.668-.375,3.389,3.389,0,0,0,4.363-.023,1.114,1.114,0,0,1,1.611.349,1.22,1.22,0,0,1-.256,1.706A6.088,6.088,0,0,1,2954.54,974.294Z" transform="translate(-80.642 -101.901)" fill="#023c7d"/>
    <path id="Trazado_16054" data-name="Trazado 16054" d="M2936.424,944.346c-.005.905-.46,1.464-1.21,1.484-.774.021-1.295-.583-1.292-1.5,0-.888.476-1.455,1.229-1.472C2935.953,942.839,2936.429,943.4,2936.424,944.346Z" transform="translate(-67.611 -80.231)" fill="#023c7d"/>
    <path id="Trazado_16055" data-name="Trazado 16055" d="M2994.933,944.365c0,.935-.5,1.527-1.274,1.5a1.322,1.322,0,0,1-1.228-1.489c0-.929.5-1.5,1.3-1.484C2994.5,942.915,2994.932,943.438,2994.933,944.365Z" transform="translate(-113.104 -80.261)" fill="#023c7d"/>
    <path id="Trazado_16056" data-name="Trazado 16056" d="M3056.945,1109.013c0,1.1-.716,1.713-1.515,1.462a5.228,5.228,0,0,1-3.48-3.415,1.126,1.126,0,0,1,.684-1.505,1.112,1.112,0,0,1,1.554.547,4.3,4.3,0,0,0,2.11,2.129C3056.634,1108.4,3056.824,1108.86,3056.945,1109.013Z" transform="translate(-159.318 -206.641)" fill="#023c7d"/>
    <path id="Trazado_16057" data-name="Trazado 16057" d="M3062.179,1088.6a1.417,1.417,0,0,1-1.407,1.35,1.2,1.2,0,0,1-1.195-1.228,1.388,1.388,0,0,1,1.4-1.349A1.214,1.214,0,0,1,3062.179,1088.6Z" transform="translate(-165.313 -192.598)" fill="#023c7d"/>
    <path id="Trazado_16058" data-name="Trazado 16058" d="M3081.292,1110.4a1.386,1.386,0,0,1,1.415-1.322,1.216,1.216,0,0,1,1.177,1.247,1.409,1.409,0,0,1-1.424,1.323A1.2,1.2,0,0,1,3081.292,1110.4Z" transform="translate(-182.198 -209.478)" fill="#023c7d"/>
  </g>
</svg>
