<svg id="Grupo_7150" data-name="Grupo 7150" xmlns="http://www.w3.org/2000/svg" width="50.454" height="60" viewBox="0 0 50.454 60">
  <path id="Trazado_15923" data-name="Trazado 15923" d="M100.065-241.986a4.476,4.476,0,0,0-4.467-4.475H61.256a4.476,4.476,0,0,0-4.468,4.475v46.577h-2.71a4.476,4.476,0,0,0-4.468,4.474,4.476,4.476,0,0,0,4.468,4.474h9.638a.879.879,0,0,0,.879-.88.88.88,0,0,0-.879-.88H57.628a4.454,4.454,0,0,0,.918-2.714v-51.051a2.715,2.715,0,0,1,2.71-2.714,2.715,2.715,0,0,1,2.71,2.714,2.715,2.715,0,0,1-2.71,2.714.88.88,0,0,0-.879.88.88.88,0,0,0,.879.88h24a.879.879,0,0,0,.879-.88.879.879,0,0,0-.879-.88H64.806a4.455,4.455,0,0,0,.918-2.714,4.453,4.453,0,0,0-.918-2.714H95.6a2.715,2.715,0,0,1,2.71,2.714,2.715,2.715,0,0,1-2.71,2.714H89.353a.88.88,0,0,0-.879.88.88.88,0,0,0,.879.88h5.366v46.577a2.715,2.715,0,0,1-2.71,2.714H67.81a.879.879,0,0,0-.879.88.879.879,0,0,0,.879.88h24.2a4.476,4.476,0,0,0,4.468-4.474V-237.6a4.48,4.48,0,0,0,3.588-4.387Zm-48.7,51.051a2.715,2.715,0,0,1,2.71-2.714h2.71v2.714a2.715,2.715,0,0,1-2.71,2.714A2.715,2.715,0,0,1,51.369-190.935Z" transform="translate(-49.611 246.461)" fill="#00223d"/>
  <path id="Trazado_15924" data-name="Trazado 15924" d="M74.918-214.706h7.869a1.147,1.147,0,0,0,1.146-1.147A1.147,1.147,0,0,0,82.786-217H74.918a1.146,1.146,0,0,0-1.146,1.147A1.147,1.147,0,0,0,74.918-214.706Z" transform="translate(-62.385 231.565)" fill="#00223d"/>
  <path id="Trazado_15925" data-name="Trazado 15925" d="M74.918-206.473h36.2a1.146,1.146,0,0,0,1.145-1.147,1.146,1.146,0,0,0-1.145-1.147h-36.2a1.146,1.146,0,0,0-1.146,1.147,1.147,1.147,0,0,0,1.146,1.147Z" transform="translate(-66.879 227.402)" fill="#00223d"/>
  <path id="Trazado_15926" data-name="Trazado 15926" d="M126.518-200.554h-7.562a1.147,1.147,0,0,0-1.146,1.147,1.146,1.146,0,0,0,1.146,1.147h7.562a1.146,1.146,0,0,0,1.145-1.147A1.146,1.146,0,0,0,126.518-200.554Z" transform="translate(-85.601 223.249)" fill="#00223d"/>
  <path id="Trazado_15927" data-name="Trazado 15927" d="M74.918-198.26H98.272a1.146,1.146,0,0,0,1.146-1.147,1.147,1.147,0,0,0-1.146-1.147H74.918a1.146,1.146,0,0,0-1.146,1.147A1.146,1.146,0,0,0,74.918-198.26Z" transform="translate(-64.055 223.249)" fill="#00223d"/>
  <path id="Trazado_15928" data-name="Trazado 15928" d="M74.918-185.376h7.869a1.147,1.147,0,0,0,1.146-1.147,1.147,1.147,0,0,0-1.146-1.147H74.918a1.146,1.146,0,0,0-1.146,1.147A1.147,1.147,0,0,0,74.918-185.376Z" transform="translate(-62.385 216.735)" fill="#00223d"/>
  <path id="Trazado_15929" data-name="Trazado 15929" d="M74.918-177.143h36.2a1.146,1.146,0,0,0,1.145-1.147,1.146,1.146,0,0,0-1.145-1.147h-36.2a1.146,1.146,0,0,0-1.146,1.147,1.147,1.147,0,0,0,1.146,1.147Z" transform="translate(-66.879 212.572)" fill="#00223d"/>
  <path id="Trazado_15930" data-name="Trazado 15930" d="M74.918-168.93h7.562a1.146,1.146,0,0,0,1.145-1.147,1.146,1.146,0,0,0-1.145-1.147H74.918a1.146,1.146,0,0,0-1.146,1.147A1.146,1.146,0,0,0,74.918-168.93Z" transform="translate(-62.361 208.42)" fill="#00223d"/>
  <path id="Trazado_15931" data-name="Trazado 15931" d="M118.026-171.224H94.671a1.146,1.146,0,0,0-1.145,1.147,1.146,1.146,0,0,0,1.145,1.147h23.355a1.146,1.146,0,0,0,1.145-1.147A1.146,1.146,0,0,0,118.026-171.224Z" transform="translate(-75.864 208.42)" fill="#00223d"/>
  <path id="Trazado_15932" data-name="Trazado 15932" d="M121.659-156.967a5.457,5.457,0,0,0-5.446,5.454,5.456,5.456,0,0,0,5.446,5.454,5.456,5.456,0,0,0,5.446-5.454A5.456,5.456,0,0,0,121.659-156.967Zm0,8.614a3.161,3.161,0,0,1-3.155-3.16,3.161,3.161,0,0,1,3.155-3.16,3.161,3.161,0,0,1,3.155,3.16A3.161,3.161,0,0,1,121.659-148.353Z" transform="translate(-84.983 196.965)" fill="#00223d"/>
  <path id="Trazado_15933" data-name="Trazado 15933" d="M74.918-152.158h9.7a1.146,1.146,0,0,0,1.146-1.147,1.146,1.146,0,0,0-1.146-1.147h-9.7a1.146,1.146,0,0,0-1.146,1.147A1.147,1.147,0,0,0,74.918-152.158Z" transform="translate(-62.532 199.939)" fill="#00223d"/>
  <path id="Trazado_15934" data-name="Trazado 15934" d="M74.918-143.942H92.254a1.146,1.146,0,0,0,1.145-1.147,1.146,1.146,0,0,0-1.145-1.147H74.918a1.146,1.146,0,0,0-1.146,1.147A1.147,1.147,0,0,0,74.918-143.942Z" transform="translate(-63.273 193.213)" fill="#00223d"/>
</svg>
