<svg xmlns="http://www.w3.org/2000/svg" width="825.5" height="134.634" viewBox="0 0 825.5 134.634">
  <g id="Grupo_7415" data-name="Grupo 7415" transform="translate(-204.25 -653)">
    <path id="Trazado_16079" data-name="Trazado 16079" d="M1013.75,188.451a20,20,0,0,0-20-20H365.6a44.888,44.888,0,0,1-44.011-36.062v.442A67.319,67.319,0,0,0,188.25,146.013V213.33h825.5Z" transform="translate(16 574.304)" fill="#023c7d"/>
    <g id="Grupo_7200" data-name="Grupo 7200" transform="translate(16 574.304)">
      <g id="Grupo_7198" data-name="Grupo 7198">
        <path id="Trazado_16080" data-name="Trazado 16080" d="M301.351,117.179h-4.345v56.978s-5.84,1.7-19.638-2.457a22.365,22.365,0,0,0-19.81,3.08c-.754.532-1.651,1.412-2.574,1.412h-.115c-.923,0-1.82-.88-2.574-1.412a22.366,22.366,0,0,0-19.81-3.08c-13.8,4.158-19.638,2.457-19.638,2.457V117.179H208.5a2.113,2.113,0,0,0-2.113,2.113V178.7a2.112,2.112,0,0,0,2.113,2.112h37.956a2.909,2.909,0,0,1,2.639,1.639,6.446,6.446,0,0,0,11.659,0,2.91,2.91,0,0,1,2.639-1.639h37.956a2.112,2.112,0,0,0,2.113-2.112V119.292a2.114,2.114,0,0,0-2.113-2.113Z" fill="#f87c68"/>
        <g id="Grupo_7197" data-name="Grupo 7197">
          <path id="Trazado_16081" data-name="Trazado 16081" d="M217.2,178.7v-4.2a16.192,16.192,0,0,1-4.35-.338V117.179H208.5a2.113,2.113,0,0,0-2.113,2.113V178.7a2.113,2.113,0,0,0,2.113,2.112H219.31A2.113,2.113,0,0,1,217.2,178.7Z" fill="#ec625e"/>
        </g>
        <path id="Trazado_16082" data-name="Trazado 16082" d="M295.7,112.632c-2.815.226-8.824.144-18.337-2.723a22.368,22.368,0,0,0-22.442,5.293l-1.5,1.977v56.915l1.5,2.021v.077h.058a4.469,4.469,0,0,0,2.574-.826,22.365,22.365,0,0,1,19.81-3.08c13.8,4.158,20.224,2.457,20.224,2.457V114.378a1.749,1.749,0,0,0-1.887-1.746Z" fill="#dbedff"/>
        <path id="Trazado_16083" data-name="Trazado 16083" d="M260.657,111.149a20.882,20.882,0,0,0-5.731,4.053l-1.5,1.977v56.915l1.5,2.021v.077h.058a4.469,4.469,0,0,0,2.574-.826,23.259,23.259,0,0,1,3.1-1.839Z" fill="#b5dcff"/>
        <path id="Trazado_16084" data-name="Trazado 16084" d="M214.148,112.632c2.814.226,8.823.144,18.337-2.723a22.365,22.365,0,0,1,22.441,5.293v60.99h-.057a4.469,4.469,0,0,1-2.574-.826,22.366,22.366,0,0,0-19.81-3.08c-13.8,4.158-20.224,2.457-20.224,2.457V114.378a1.749,1.749,0,0,1,1.887-1.746Z" fill="#dbedff"/>
        <path id="Trazado_16085" data-name="Trazado 16085" d="M218.706,112.624a31.163,31.163,0,0,1-4.558.008,1.749,1.749,0,0,0-1.887,1.746v60.365a22.262,22.262,0,0,0,6.445.256Z" fill="#b5dcff"/>
      </g>
      <g id="Grupo_7199" data-name="Grupo 7199">
        <path id="Trazado_16086" data-name="Trazado 16086" d="M290.926,121.31a62.835,62.835,0,0,1-13.1-2.629,23.718,23.718,0,0,0-16.628.8,1.465,1.465,0,1,0,1.157,2.692,20.863,20.863,0,0,1,14.626-.683,65.643,65.643,0,0,0,13.72,2.745c.038,0,.076,0,.114,0a1.465,1.465,0,0,0,.11-2.926Z"/>
        <path id="Trazado_16087" data-name="Trazado 16087" d="M290.926,127.536a62.849,62.849,0,0,1-13.1-2.629,23.718,23.718,0,0,0-16.628.8,1.465,1.465,0,1,0,1.157,2.692,20.863,20.863,0,0,1,14.626-.683,65.668,65.668,0,0,0,13.72,2.745c.038,0,.076,0,.114,0a1.465,1.465,0,0,0,.11-2.925Z"/>
        <path id="Trazado_16088" data-name="Trazado 16088" d="M290.926,158.666a62.765,62.765,0,0,1-13.1-2.63,23.718,23.718,0,0,0-16.628.8,1.465,1.465,0,1,0,1.157,2.692,20.869,20.869,0,0,1,14.626-.684,65.65,65.65,0,0,0,13.72,2.746c.038,0,.076,0,.114,0a1.465,1.465,0,0,0,.11-2.925Z"/>
        <path id="Trazado_16089" data-name="Trazado 16089" d="M290.926,164.891a62.772,62.772,0,0,1-13.1-2.629,23.718,23.718,0,0,0-16.628.8,1.465,1.465,0,1,0,1.157,2.691,20.874,20.874,0,0,1,14.626-.683,65.715,65.715,0,0,0,13.72,2.746c.038,0,.076,0,.114,0a1.465,1.465,0,0,0,.11-2.926Z"/>
        <path id="Trazado_16090" data-name="Trazado 16090" d="M290.926,133.762a62.765,62.765,0,0,1-13.1-2.63,23.718,23.718,0,0,0-16.628.8,1.465,1.465,0,1,0,1.157,2.692,20.864,20.864,0,0,1,14.626-.683,65.708,65.708,0,0,0,13.72,2.745c.038,0,.076,0,.114,0a1.465,1.465,0,0,0,.11-2.925Z"/>
        <path id="Trazado_16091" data-name="Trazado 16091" d="M290.926,146.213a62.719,62.719,0,0,1-13.1-2.629,23.718,23.718,0,0,0-16.628.8,1.465,1.465,0,1,0,1.157,2.692,20.869,20.869,0,0,1,14.626-.684,65.675,65.675,0,0,0,13.72,2.746c.038,0,.076,0,.114,0a1.465,1.465,0,0,0,.11-2.926Z"/>
        <path id="Trazado_16092" data-name="Trazado 16092" d="M290.926,139.988a62.779,62.779,0,0,1-13.1-2.63,23.718,23.718,0,0,0-16.628.8,1.465,1.465,0,1,0,1.157,2.692,20.864,20.864,0,0,1,14.626-.683,65.708,65.708,0,0,0,13.72,2.745c.038,0,.076,0,.114,0a1.465,1.465,0,0,0,.11-2.925Z"/>
        <path id="Trazado_16093" data-name="Trazado 16093" d="M290.926,152.439a62.718,62.718,0,0,1-13.1-2.629,23.718,23.718,0,0,0-16.628.8,1.465,1.465,0,1,0,1.157,2.692,20.869,20.869,0,0,1,14.626-.684,65.65,65.65,0,0,0,13.72,2.746c.038,0,.076,0,.114,0a1.465,1.465,0,0,0,.11-2.926Z"/>
        <path id="Trazado_16094" data-name="Trazado 16094" d="M219.11,124.236c.037,0,.075,0,.114,0a65.644,65.644,0,0,0,13.72-2.745,20.864,20.864,0,0,1,14.626.683,1.465,1.465,0,0,0,1.157-2.692,23.718,23.718,0,0,0-16.628-.8A62.843,62.843,0,0,1,219,121.31a1.465,1.465,0,0,0,.111,2.926Z"/>
        <path id="Trazado_16095" data-name="Trazado 16095" d="M219.11,130.461c.037,0,.075,0,.113,0a65.677,65.677,0,0,0,13.721-2.745,20.864,20.864,0,0,1,14.626.683,1.465,1.465,0,0,0,1.157-2.692,23.718,23.718,0,0,0-16.628-.8,62.873,62.873,0,0,1-13.1,2.629,1.465,1.465,0,0,0,.11,2.925Z"/>
        <path id="Trazado_16096" data-name="Trazado 16096" d="M219.11,161.591c.037,0,.075,0,.114,0a65.65,65.65,0,0,0,13.72-2.746,20.864,20.864,0,0,1,14.626.684,1.465,1.465,0,0,0,1.157-2.692,23.718,23.718,0,0,0-16.628-.8,62.786,62.786,0,0,1-13.1,2.63,1.465,1.465,0,0,0,.111,2.925Z"/>
        <path id="Trazado_16097" data-name="Trazado 16097" d="M219.11,167.817c.037,0,.075,0,.114,0a65.65,65.65,0,0,0,13.72-2.746,20.869,20.869,0,0,1,14.626.683,1.465,1.465,0,0,0,1.157-2.691,23.718,23.718,0,0,0-16.628-.8,62.78,62.78,0,0,1-13.1,2.629,1.465,1.465,0,0,0,.111,2.926Z"/>
        <path id="Trazado_16098" data-name="Trazado 16098" d="M219.11,136.687c.037,0,.075,0,.114,0a65.708,65.708,0,0,0,13.72-2.745,20.864,20.864,0,0,1,14.626.683,1.465,1.465,0,0,0,1.157-2.692,23.723,23.723,0,0,0-16.628-.8,62.786,62.786,0,0,1-13.1,2.63,1.465,1.465,0,0,0,.111,2.925Z"/>
        <path id="Trazado_16099" data-name="Trazado 16099" d="M219.11,149.139c.037,0,.075,0,.113,0a65.683,65.683,0,0,0,13.721-2.746,20.864,20.864,0,0,1,14.626.684,1.465,1.465,0,0,0,1.157-2.692,23.718,23.718,0,0,0-16.628-.8,62.744,62.744,0,0,1-13.1,2.629,1.465,1.465,0,0,0,.11,2.926Z"/>
        <path id="Trazado_16100" data-name="Trazado 16100" d="M219.11,142.913c.037,0,.075,0,.114,0a65.708,65.708,0,0,0,13.72-2.745,20.864,20.864,0,0,1,14.626.683,1.465,1.465,0,0,0,1.157-2.692,23.718,23.718,0,0,0-16.628-.8,62.787,62.787,0,0,1-13.1,2.63,1.465,1.465,0,0,0,.111,2.925Z"/>
        <path id="Trazado_16101" data-name="Trazado 16101" d="M219.11,155.365c.037,0,.075,0,.113,0a65.671,65.671,0,0,0,13.721-2.746,20.864,20.864,0,0,1,14.626.684,1.465,1.465,0,0,0,1.157-2.692,23.718,23.718,0,0,0-16.628-.8,62.718,62.718,0,0,1-13.1,2.629,1.465,1.465,0,0,0,.11,2.926Z"/>
        <path id="Trazado_16102" data-name="Trazado 16102" d="M301.387,115.782h-2.293v-1.337a3.217,3.217,0,0,0-3.47-3.206c-2.161.173-6.895.184-14.309-1.7a1.464,1.464,0,1,0-.72,2.839c7.432,1.885,12.4,2.007,15.264,1.778a.283.283,0,0,1,.3.285V173.56c-5.549.6-12.962-.99-18.337-2.609-12.005-3.618-19.765,2.6-21.4,3.483V115.879a20.952,20.952,0,0,1,17.457-5.215,1.465,1.465,0,0,0,.466-2.893,23.7,23.7,0,0,0-19.392,5.482,23.905,23.905,0,0,0-22.86-4.679c-9.333,2.813-15.158,2.876-17.8,2.666a3.215,3.215,0,0,0-3.469,3.205v1.337h-2.293a3.581,3.581,0,0,0-3.578,3.577v59.406a3.582,3.582,0,0,0,3.578,3.578h37.956a1.444,1.444,0,0,1,1.314.8,7.921,7.921,0,0,0,14.307,0,1.446,1.446,0,0,1,1.315-.8h37.956a3.582,3.582,0,0,0,3.577-3.578V150.983a1.465,1.465,0,0,0-2.93,0v27.782a.648.648,0,0,1-.647.648H263.431a4.385,4.385,0,0,0-3.963,2.478,4.988,4.988,0,0,1-9.01,0,4.385,4.385,0,0,0-3.963-2.478H208.539a.648.648,0,0,1-.648-.648V119.359a.648.648,0,0,1,.648-.647h2.293v56.1a1.464,1.464,0,0,0,1.09,1.416c.279.074,6.988,1.759,21.022-2.47a21.02,21.02,0,0,1,18.543,2.875,6.048,6.048,0,0,0,6.952,0,21.011,21.011,0,0,1,18.543-2.875c14.034,4.229,20.743,2.544,21.022,2.47a1.464,1.464,0,0,0,1.09-1.416v-56.1h2.293a.648.648,0,0,1,.648.647v24.788a1.465,1.465,0,1,0,2.93,0V119.359A3.581,3.581,0,0,0,301.387,115.782Zm-87.625-1.337a.283.283,0,0,1,.305-.285c2.846.228,9.083.171,18.877-2.781a20.888,20.888,0,0,1,20.554,4.5v58.554a24.165,24.165,0,0,0-21.4-3.483c-.791.238-1.659.485-2.462.7l-.03.008c-4.717,1.258-10.991,2.425-15.845,1.9V114.445Z"/>
      </g>
    </g>
  </g>
</svg>
