<svg xmlns="http://www.w3.org/2000/svg" width="825.5" height="134.634" viewBox="0 0 825.5 134.634">
  <g id="Grupo_7143" data-name="Grupo 7143" transform="translate(-1162.334 -49.669)">
    <path id="Trazado_15850" data-name="Trazado 15850" d="M1987.834,159.424a20,20,0,0,0-20-20H1339.68a44.889,44.889,0,0,1-44.011-36.062v.442a67.319,67.319,0,0,0-133.335,13.182V184.3h825.5Z" fill="#023c7d"/>
    <g id="Grupo_7142" data-name="Grupo 7142">
      <path id="Trazado_15851" data-name="Trazado 15851" d="M1274.361,136.517v15.626h-32.813a7.813,7.813,0,0,1,0-15.626Z" fill="#e6e9ed"/>
      <path id="Trazado_15852" data-name="Trazado 15852" d="M1268.111,119.329a6.25,6.25,0,0,1,0,12.5h-26.563v-12.5Z" fill="#e6e9ed"/>
      <path id="Trazado_15853" data-name="Trazado 15853" d="M1263.439,100.61h9.375a4.688,4.688,0,0,1-9.375,0Z" fill="#656d78"/>
      <path id="Trazado_15854" data-name="Trazado 15854" d="M1241.579,100.61h9.375a4.688,4.688,0,0,1-9.375,0Z" fill="#656d78"/>
      <path id="Trazado_15855" data-name="Trazado 15855" d="M1191.546,99.016l-4.688,4.688V95.891a14.063,14.063,0,0,1,14.063-14.063h12.5v6.25a7.815,7.815,0,0,1,7.813,7.813V103.7l-4.687-4.688a26.564,26.564,0,0,1-25,0Z" fill="#965353"/>
      <path id="Trazado_15856" data-name="Trazado 15856" d="M1213.421,92.766a3.129,3.129,0,0,1,3.126,3.125v3.125l4.687,4.688V95.891a7.815,7.815,0,0,0-7.813-7.813v-6.25h-4.687v6.25A4.687,4.687,0,0,0,1213.421,92.766Z" fill="#844747"/>
      <path id="Trazado_15857" data-name="Trazado 15857" d="M1221.234,103.7v6.25a17.188,17.188,0,1,1-34.376,0V103.7l4.688-4.688a26.564,26.564,0,0,0,25,0Z" fill="#eac6bb"/>
      <path id="Trazado_15858" data-name="Trazado 15858" d="M1216.547,99.016l-.005,0v10.934a17.2,17.2,0,0,1-9.375,15.313,16.954,16.954,0,0,1-5.468,1.7,17.323,17.323,0,0,0,2.347.172,17.179,17.179,0,0,0,17.188-17.188V103.7Z" fill="#d3b1a9"/>
      <path id="Trazado_15859" data-name="Trazado 15859" d="M1218.109,130.267a9.364,9.364,0,0,1,9.376,9.376v9.375a3.124,3.124,0,0,1-3.126,3.125h-15.61l7.643-14.235-1.377-1.359Z" fill="#545c66"/>
      <path id="Trazado_15860" data-name="Trazado 15860" d="M1218.109,130.267l-3.094,6.282,1.375,1.359-7.641,14.235h-3.125l1.766-6.219,4.469-15.657Z" fill="#656d78"/>
      <path id="Trazado_15861" data-name="Trazado 15861" d="M1204.046,131.83l-3.125,1.562-4.688-3.125v-5a17.216,17.216,0,0,0,15.626,0v5l-4.688,3.125Z" fill="#f5f7fa"/>
      <path id="Trazado_15862" data-name="Trazado 15862" d="M1211.859,130.267l-4.469,15.657-1.781-7.813v-.031l1.562-4.688Z" fill="#e6e9ed"/>
      <path id="Trazado_15863" data-name="Trazado 15863" d="M1205.609,138.08v.031h-3.125l-1.563-4.719,3.125-1.562,3.125,1.562Z" fill="#ed5565"/>
      <path id="Trazado_15864" data-name="Trazado 15864" d="M1200.921,133.392l1.563,4.719-1.782,7.813-4.469-15.657Z" fill="#e6e9ed"/>
      <path id="Trazado_15865" data-name="Trazado 15865" d="M1205.609,138.111l1.781,7.813-1.766,6.219h-3.156l-1.766-6.219,1.782-7.813Z" fill="#da4453"/>
      <path id="Trazado_15866" data-name="Trazado 15866" d="M1200.7,145.924l1.766,6.219h-3.141l-7.641-14.235,1.391-1.359-3.109-6.282h6.265Z" fill="#656d78"/>
      <path id="Trazado_15867" data-name="Trazado 15867" d="M1191.686,137.908l7.643,14.235h-15.6a3.134,3.134,0,0,1-3.125-3.125v-9.375a9.36,9.36,0,0,1,9.36-9.376l3.109,6.282Z" fill="#545c66"/>
      <path id="Trazado_15868" data-name="Trazado 15868" d="M1241.548,153.687a9.375,9.375,0,1,1,0-18.75,1.563,1.563,0,0,1,0,3.125,6.25,6.25,0,1,0,0,12.5,1.563,1.563,0,0,1,0,3.125Z"/>
      <path id="Trazado_15869" data-name="Trazado 15869" d="M1277.486,138.062h-35.938a1.563,1.563,0,1,1,0-3.125h35.938a1.563,1.563,0,1,1,0,3.125Z"/>
      <path id="Trazado_15870" data-name="Trazado 15870" d="M1277.486,153.687h-35.938a1.563,1.563,0,1,1,0-3.125h35.938a1.563,1.563,0,1,1,0,3.125Z"/>
      <path id="Trazado_15871" data-name="Trazado 15871" d="M1274.361,153.687a1.561,1.561,0,0,1-1.562-1.562V136.5a1.563,1.563,0,0,1,3.125,0v15.626A1.561,1.561,0,0,1,1274.361,153.687Z"/>
      <path id="Trazado_15872" data-name="Trazado 15872" d="M1268.111,133.374a1.563,1.563,0,0,1,0-3.125,4.688,4.688,0,0,0,0-9.376,1.563,1.563,0,0,1,0-3.125,7.813,7.813,0,0,1,0,15.626Z"/>
      <path id="Trazado_15873" data-name="Trazado 15873" d="M1268.111,133.374h-29.689a1.563,1.563,0,0,1,0-3.125h29.689a1.563,1.563,0,1,1,0,3.125Z"/>
      <path id="Trazado_15874" data-name="Trazado 15874" d="M1268.111,120.873h-29.689a1.563,1.563,0,0,1,0-3.125h29.689a1.563,1.563,0,1,1,0,3.125Z"/>
      <path id="Trazado_15875" data-name="Trazado 15875" d="M1241.548,133.374a1.561,1.561,0,0,1-1.563-1.563v-12.5a1.563,1.563,0,1,1,3.125,0v12.5A1.561,1.561,0,0,1,1241.548,133.374Z"/>
      <path id="Trazado_15876" data-name="Trazado 15876" d="M1180.608,141.184a1.561,1.561,0,0,1-1.563-1.563,10.951,10.951,0,0,1,10.938-10.935,1.563,1.563,0,1,1,0,3.125,7.821,7.821,0,0,0-7.813,7.81A1.561,1.561,0,0,1,1180.608,141.184Z"/>
      <path id="Trazado_15877" data-name="Trazado 15877" d="M1196.233,131.811h-6.25a1.563,1.563,0,0,1,0-3.125h6.25a1.563,1.563,0,1,1,0,3.125Z"/>
      <path id="Trazado_15878" data-name="Trazado 15878" d="M1180.608,150.562a1.561,1.561,0,0,1-1.563-1.562v-8.93a1.563,1.563,0,1,1,3.125,0V149A1.561,1.561,0,0,1,1180.608,150.562Z"/>
      <path id="Trazado_15879" data-name="Trazado 15879" d="M1227.485,141.184a1.561,1.561,0,0,1-1.563-1.563,7.821,7.821,0,0,0-7.813-7.81,1.563,1.563,0,0,1,0-3.125,10.951,10.951,0,0,1,10.938,10.935A1.561,1.561,0,0,1,1227.485,141.184Z"/>
      <path id="Trazado_15880" data-name="Trazado 15880" d="M1218.109,131.811h-6.25a1.563,1.563,0,1,1,0-3.125h6.25a1.563,1.563,0,1,1,0,3.125Z"/>
      <path id="Trazado_15881" data-name="Trazado 15881" d="M1227.485,150.562a1.561,1.561,0,0,1-1.563-1.562v-8.93a1.563,1.563,0,1,1,3.125,0V149A1.561,1.561,0,0,1,1227.485,150.562Z"/>
      <path id="Trazado_15882" data-name="Trazado 15882" d="M1224.359,153.687h-40.626a1.563,1.563,0,1,1,0-3.125h40.626a1.563,1.563,0,1,1,0,3.125Z"/>
      <path id="Trazado_15883" data-name="Trazado 15883" d="M1196.233,131.811a1.56,1.56,0,0,1-1.562-1.562v-5a1.563,1.563,0,1,1,3.125,0v5A1.561,1.561,0,0,1,1196.233,131.811Z"/>
      <path id="Trazado_15884" data-name="Trazado 15884" d="M1211.859,131.811a1.561,1.561,0,0,1-1.563-1.562v-5a1.563,1.563,0,1,1,3.125,0v5A1.56,1.56,0,0,1,1211.859,131.811Z"/>
      <path id="Trazado_15885" data-name="Trazado 15885" d="M1204.046,128.686a18.771,18.771,0,0,1-18.751-18.75,1.563,1.563,0,1,1,3.126,0,15.625,15.625,0,0,0,31.251,0,1.563,1.563,0,1,1,3.125,0A18.771,18.771,0,0,1,1204.046,128.686Z"/>
      <path id="Trazado_15886" data-name="Trazado 15886" d="M1186.858,111.5a1.562,1.562,0,0,1-1.563-1.562V95.876a1.563,1.563,0,1,1,3.126,0v14.063A1.562,1.562,0,0,1,1186.858,111.5Z"/>
      <path id="Trazado_15887" data-name="Trazado 15887" d="M1221.234,111.5a1.562,1.562,0,0,1-1.562-1.562V95.876a1.563,1.563,0,1,1,3.125,0v14.063A1.562,1.562,0,0,1,1221.234,111.5Z"/>
      <path id="Trazado_15888" data-name="Trazado 15888" d="M1221.234,97.438a1.562,1.562,0,0,1-1.562-1.562,6.257,6.257,0,0,0-6.251-6.251,1.563,1.563,0,0,1,0-3.125,9.385,9.385,0,0,1,9.376,9.376A1.562,1.562,0,0,1,1221.234,97.438Z"/>
      <path id="Trazado_15889" data-name="Trazado 15889" d="M1213.421,89.625a1.562,1.562,0,0,1-1.562-1.562v-6.25a1.563,1.563,0,1,1,3.125,0v6.25A1.562,1.562,0,0,1,1213.421,89.625Z"/>
      <path id="Trazado_15890" data-name="Trazado 15890" d="M1213.421,83.375h-12.5a1.563,1.563,0,1,1,0-3.125h12.5a1.563,1.563,0,1,1,0,3.125Z"/>
      <path id="Trazado_15891" data-name="Trazado 15891" d="M1186.858,97.438a1.562,1.562,0,0,1-1.563-1.562,15.643,15.643,0,0,1,15.626-15.626,1.563,1.563,0,1,1,0,3.125,12.514,12.514,0,0,0-12.5,12.5A1.562,1.562,0,0,1,1186.858,97.438Z"/>
      <path id="Trazado_15892" data-name="Trazado 15892" d="M1221.234,105.251a1.556,1.556,0,0,1-1.1-.458l-4.688-4.688a1.562,1.562,0,0,1,2.209-2.209l4.688,4.688a1.563,1.563,0,0,1-1.1,2.667Z"/>
      <path id="Trazado_15893" data-name="Trazado 15893" d="M1204.046,103.688a31,31,0,0,1-13.241-3.312,1.562,1.562,0,0,1,1.48-2.752,25.007,25.007,0,0,0,23.521,0,1.561,1.561,0,1,1,1.48,2.75A30.983,30.983,0,0,1,1204.046,103.688Z"/>
      <path id="Trazado_15894" data-name="Trazado 15894" d="M1186.858,105.251a1.563,1.563,0,0,1-1.1-2.667l4.688-4.688a1.562,1.562,0,0,1,2.209,2.209l-4.687,4.688A1.554,1.554,0,0,1,1186.858,105.251Z"/>
      <path id="Trazado_15895" data-name="Trazado 15895" d="M1200.921,134.937a1.576,1.576,0,0,1-.866-.263l-4.689-3.125a1.563,1.563,0,1,1,1.735-2.6l4.689,3.125a1.563,1.563,0,0,1-.869,2.863Z"/>
      <path id="Trazado_15896" data-name="Trazado 15896" d="M1200.924,134.937a1.564,1.564,0,0,1-.7-2.962l3.123-1.562a1.563,1.563,0,1,1,1.4,2.795l-3.123,1.563A1.555,1.555,0,0,1,1200.924,134.937Z"/>
      <path id="Trazado_15897" data-name="Trazado 15897" d="M1207.171,134.937a1.563,1.563,0,0,1-.869-2.863l4.689-3.125a1.563,1.563,0,1,1,1.735,2.6l-4.689,3.125A1.56,1.56,0,0,1,1207.171,134.937Z"/>
      <path id="Trazado_15898" data-name="Trazado 15898" d="M1207.168,134.937a1.58,1.58,0,0,1-.7-.164l-3.123-1.563a1.563,1.563,0,1,1,1.4-2.8l3.122,1.563a1.562,1.562,0,0,1-.7,2.96Z"/>
      <path id="Trazado_15899" data-name="Trazado 15899" d="M1224.359,153.687a1.563,1.563,0,0,1,0-3.125,1.563,1.563,0,0,0,1.563-1.562,1.563,1.563,0,1,1,3.125,0A4.692,4.692,0,0,1,1224.359,153.687Z"/>
      <path id="Trazado_15900" data-name="Trazado 15900" d="M1183.733,153.687a4.694,4.694,0,0,1-4.688-4.687,1.563,1.563,0,1,1,3.125,0,1.564,1.564,0,0,0,1.563,1.562,1.563,1.563,0,0,1,0,3.125Z"/>
      <path id="Trazado_15901" data-name="Trazado 15901" d="M1205.612,153.722a1.563,1.563,0,0,1-1.505-1.991l6.249-21.909a1.563,1.563,0,0,1,3.006.856l-6.249,21.909A1.563,1.563,0,0,1,1205.612,153.722Z"/>
      <path id="Trazado_15902" data-name="Trazado 15902" d="M1208.737,153.722a1.564,1.564,0,0,1-1.375-2.3l7.1-13.235-.549-.538a1.559,1.559,0,0,1-.306-1.807l3.1-6.283a1.562,1.562,0,0,1,2.8,1.385l-2.6,5.268.577.565a1.563,1.563,0,0,1,.283,1.855l-7.657,14.268A1.565,1.565,0,0,1,1208.737,153.722Z"/>
      <path id="Trazado_15903" data-name="Trazado 15903" d="M1202.474,153.722a1.563,1.563,0,0,1-1.5-1.135l-6.249-21.909a1.563,1.563,0,1,1,3.006-.856l6.249,21.909a1.563,1.563,0,0,1-1.075,1.931A1.635,1.635,0,0,1,1202.474,153.722Z"/>
      <path id="Trazado_15904" data-name="Trazado 15904" d="M1199.349,153.722a1.563,1.563,0,0,1-1.378-.824l-7.657-14.268a1.563,1.563,0,0,1,.283-1.855l.577-.565-2.6-5.268a1.562,1.562,0,1,1,2.8-1.385l3.105,6.283a1.565,1.565,0,0,1-.306,1.807l-.549.538,7.1,13.235a1.564,1.564,0,0,1-1.375,2.3Z"/>
      <path id="Trazado_15905" data-name="Trazado 15905" d="M1202.484,139.659a1.561,1.561,0,0,1-1.484-1.074l-1.561-4.72a1.563,1.563,0,0,1,2.968-.98l1.561,4.72a1.566,1.566,0,0,1-1.484,2.054Z"/>
      <path id="Trazado_15906" data-name="Trazado 15906" d="M1205.609,139.627a1.588,1.588,0,0,1-.492-.079,1.567,1.567,0,0,1-.992-1.977l1.562-4.691a1.563,1.563,0,1,1,2.967.986l-1.561,4.691A1.563,1.563,0,0,1,1205.609,139.627Z"/>
      <path id="Trazado_15907" data-name="Trazado 15907" d="M1200.694,147.471a1.561,1.561,0,0,1-1.525-1.911l1.791-7.813a1.563,1.563,0,0,1,3.046.7l-1.791,7.813A1.559,1.559,0,0,1,1200.694,147.471Z"/>
      <path id="Trazado_15908" data-name="Trazado 15908" d="M1207.392,147.471a1.566,1.566,0,0,1-1.524-1.215l-1.783-7.844a1.562,1.562,0,0,1,3.047-.693l1.785,7.844a1.563,1.563,0,0,1-1.179,1.869A1.524,1.524,0,0,1,1207.392,147.471Z"/>
      <path id="Trazado_15909" data-name="Trazado 15909" d="M1205.609,139.659h-3.125a1.563,1.563,0,0,1,0-3.126h3.125a1.563,1.563,0,0,1,0,3.126Z"/>
      <path id="Trazado_15910" data-name="Trazado 15910" d="M1268.132,89.657h-21.867a1.563,1.563,0,0,1,0-3.126h21.867a1.563,1.563,0,0,1,0,3.126Z"/>
      <path id="Trazado_15911" data-name="Trazado 15911" d="M1257.2,116.223a1.561,1.561,0,0,1-1.563-1.562V83.406a1.563,1.563,0,0,1,3.125,0v31.255A1.562,1.562,0,0,1,1257.2,116.223Z"/>
      <path id="Trazado_15912" data-name="Trazado 15912" d="M1268.136,116.223h-21.872a1.563,1.563,0,1,1,0-3.125h21.872a1.563,1.563,0,1,1,0,3.125Z"/>
      <path id="Trazado_15913" data-name="Trazado 15913" d="M1246.265,106.845a6.256,6.256,0,0,1-6.25-6.25,1.563,1.563,0,1,1,3.125,0,3.125,3.125,0,1,0,6.25,0,1.563,1.563,0,1,1,3.125,0A6.257,6.257,0,0,1,1246.265,106.845Z"/>
      <path id="Trazado_15914" data-name="Trazado 15914" d="M1250.953,102.157h-9.376a1.563,1.563,0,0,1,0-3.125h9.376a1.563,1.563,0,0,1,0,3.125Z"/>
      <path id="Trazado_15915" data-name="Trazado 15915" d="M1241.577,102.157a1.592,1.592,0,0,1-.55-.1,1.565,1.565,0,0,1-.914-2.013l4.688-12.5a1.563,1.563,0,0,1,2.927,1.1l-4.688,12.5A1.563,1.563,0,0,1,1241.577,102.157Z"/>
      <path id="Trazado_15916" data-name="Trazado 15916" d="M1250.953,102.157a1.566,1.566,0,0,1-1.464-1.014l-4.688-12.5a1.563,1.563,0,1,1,2.927-1.1l4.687,12.5a1.564,1.564,0,0,1-1.462,2.113Z"/>
      <path id="Trazado_15917" data-name="Trazado 15917" d="M1268.132,106.845a6.257,6.257,0,0,1-6.251-6.25,1.563,1.563,0,1,1,3.126,0,3.125,3.125,0,1,0,6.25,0,1.563,1.563,0,1,1,3.125,0A6.257,6.257,0,0,1,1268.132,106.845Z"/>
      <path id="Trazado_15918" data-name="Trazado 15918" d="M1272.819,102.157h-9.375a1.563,1.563,0,1,1,0-3.125h9.375a1.563,1.563,0,1,1,0,3.125Z"/>
      <path id="Trazado_15919" data-name="Trazado 15919" d="M1263.444,102.157a1.588,1.588,0,0,1-.55-.1,1.565,1.565,0,0,1-.914-2.013l4.688-12.5a1.563,1.563,0,1,1,2.926,1.1l-4.687,12.5A1.564,1.564,0,0,1,1263.444,102.157Z"/>
      <path id="Trazado_15920" data-name="Trazado 15920" d="M1272.819,102.157a1.566,1.566,0,0,1-1.464-1.014l-4.687-12.5a1.563,1.563,0,1,1,2.926-1.1l4.688,12.5a1.565,1.565,0,0,1-1.463,2.113Z"/>
    </g>
  </g>
</svg>
