<svg xmlns="http://www.w3.org/2000/svg" width="76.376" height="76.376" viewBox="0 0 76.376 76.376">
  <g id="Grupo_7420" data-name="Grupo 7420" transform="translate(-531.813 -1743.982)">
    <g id="Grupo_7174" data-name="Grupo 7174" transform="translate(-3208.542 836.579)">
      <circle id="Elipse_717" data-name="Elipse 717" cx="38.188" cy="38.188" r="38.188" transform="translate(3740.354 907.403)" fill="#0853a2"/>
    </g>
    <g id="Grupo_7176" data-name="Grupo 7176" transform="translate(-3208.542 836.579)">
      <path id="Trazado_16025" data-name="Trazado 16025" d="M3778.268,944.025a2.7,2.7,0,1,0-2.7-2.7A2.7,2.7,0,0,0,3778.268,944.025Zm0-4.1a1.4,1.4,0,1,1-1.4,1.4A1.4,1.4,0,0,1,3778.268,939.923Z" fill="#fff"/>
      <path id="Trazado_16026" data-name="Trazado 16026" d="M3766.955,934.874a3.579,3.579,0,1,0-3.579-3.579A3.582,3.582,0,0,0,3766.955,934.874Zm0-5.856a2.277,2.277,0,1,1-2.277,2.277A2.28,2.28,0,0,1,3766.955,929.018Z" fill="#fff"/>
      <path id="Trazado_16027" data-name="Trazado 16027" d="M3797.891,962.164h-3.806v-4.539h1.351l-1.019-7.526h1.7a.651.651,0,0,0,.65-.677l-1.649-12.984a.651.651,0,0,0-.651-.625H3784.7a.651.651,0,0,0-.651.625l-1.06,8.344-9.032.022-.336-8.366a.651.651,0,0,0-.65-.625h-12.025a.653.653,0,0,0-.651.625l-.521,12.984a.652.652,0,0,0,.651.677h2.029v12.065h-3.258a.651.651,0,1,0,0,1.3h38.7a.651.651,0,0,0,0-1.3Zm-12.569-25.049h8.517l1.6,11.682h-1.2l-1.215-8.968h-6.891l-1.214,8.968h-1.2Zm-3.636,17.645h.436a1.577,1.577,0,0,0,1.576-1.576V950.1h1.046l-1.019,7.526h1.351v4.539h-3.39Zm-6.836,7.4h-3.39V950.1h1.378v4.01a.65.65,0,0,0,.651.651h1.361ZM3761.1,948.8l.468-11.682h10.775l.468,11.682h-1.351v-7.38a.651.651,0,1,0-1.3,0v6.17h-6.405v-6.17a.651.651,0,1,0-1.3,0v7.38Zm6.506,13.367V951.772a.651.651,0,1,0-1.3,0v10.392h-2.551V948.889h6.405v13.275Zm11.313,0v-6.489a.651.651,0,1,0-1.3,0v6.489h-1.465V949.013a.651.651,0,1,0-1.3,0v4.445h-.71v-4.119c0-.008,0-.015,0-.023l-.129-3.21,8.815-.022-.424,3.338s0,.008,0,.013l0,.013v3.736a.273.273,0,0,1-.274.274h-.436v-4.445a.651.651,0,1,0-1.3,0v13.151Zm7.459-4.539h2.552v4.539h-2.552Zm3.853,4.539v-4.539h2.552v4.539Z" fill="#fff"/>
      <path id="Trazado_16028" data-name="Trazado 16028" d="M3789.58,934.874h3.58v-3.579h0a3.579,3.579,0,1,0-7.158,0h0v3.579Zm0-5.856a2.277,2.277,0,1,1-2.276,2.278h0A2.279,2.279,0,0,1,3789.58,929.018Z" fill="#fff"/>
    </g>
  </g>
</svg>
