<svg xmlns="http://www.w3.org/2000/svg" width="826" height="134.634" viewBox="0 0 826 134.634">
  <g id="Grupo_7414" data-name="Grupo 7414" transform="translate(-204 -1430.908)">
    <path id="Trazado_16077" data-name="Trazado 16077" d="M1014,734.871a20,20,0,0,0-20-20H365.346a44.888,44.888,0,0,1-44.011-36.062v.442A67.319,67.319,0,0,0,188,692.433V759.75h826Z" transform="translate(16 805.792)" fill="#034ea2"/>
    <g id="Grupo_7196" data-name="Grupo 7196" transform="translate(16 805.792)">
      <g id="g2126">
        <path id="path2128" d="M257.044,648.38h6.568l-5.3,4.125,2.058,6.543-5.273-4.029-5.274,4.029,2.079-6.543-5.336-4.125h6.547L255.1,642Z" fill="#fff200"/>
      </g>
      <g id="g2130">
        <path id="path2132" d="M257.275,732.6h6.58l-5.3,3.975,2.058,6.291-5.274-3.876-5.274,3.876,2.079-6.291L246.8,732.6h6.56l1.983-6.14Z" fill="#fff200"/>
      </g>
      <g id="g2134">
        <path id="path2136" d="M278.108,727.024h6.581l-5.3,3.966,2.062,6.3-5.277-3.888-5.27,3.888,2.075-6.3-5.345-3.966h6.556l1.984-6.141Z" fill="#fff200"/>
      </g>
      <g id="g2138">
        <path id="path2140" d="M278.108,654h6.581l-5.3,3.967,2.062,6.3-5.277-3.88-5.27,3.88,2.075-6.3L267.635,654h6.556l1.984-6.14Z" fill="#fff200"/>
      </g>
      <g id="g2142">
        <path id="path2144" d="M293.576,669.465h6.568l-5.294,3.962,2.058,6.3-5.274-3.88-5.265,3.88,2.079-6.3-5.349-3.962h6.548l1.987-6.141Z" fill="#fff200"/>
      </g>
      <g id="g2146">
        <path id="path2148" d="M293.576,711.767h6.568l-5.294,3.98,2.058,6.294-5.274-3.884-5.265,3.884,2.079-6.294-5.349-3.98h6.548l1.987-6.14Z" fill="#fff200"/>
      </g>
      <g id="g2150">
        <path id="path2152" d="M299.371,690.293h6.581l-5.3,3.971,2.058,6.3-5.274-3.887-5.273,3.887,2.078-6.3-5.348-3.971h6.552l1.991-6.133Z" fill="#fff200"/>
      </g>
      <g id="g2154">
        <path id="path2156" d="M235.8,654.05h6.568l-5.295,3.975,2.058,6.295-5.273-3.884-5.274,3.884,2.079-6.295-5.336-3.975h6.547l1.984-6.141Z" fill="#fff200"/>
      </g>
      <g id="g2158">
        <path id="path2160" d="M220.765,669.516h6.581l-5.3,3.967,2.05,6.3-5.265-3.879-5.274,3.879,2.075-6.3-5.341-3.967h6.556l1.984-6.141Z" fill="#fff200"/>
      </g>
      <g id="g2162">
        <path id="path2164" d="M215.184,690.345h6.572l-5.294,3.971,2.058,6.3-5.274-3.875-5.274,3.875,2.079-6.3-5.34-3.971h6.552l1.983-6.133Z" fill="#fff200"/>
      </g>
      <g id="g2166">
        <path id="path2168" d="M220.765,711.819h6.581l-5.3,3.979,2.05,6.3-5.265-3.88-5.274,3.88,2.075-6.3-5.341-3.979h6.556l1.984-6.132Z" fill="#fff200"/>
      </g>
      <g id="g2170">
        <path id="path2172" d="M236.023,727.076h6.568l-5.294,3.97,2.046,6.295-5.266-3.884-5.269,3.884,2.078-6.295-5.336-3.97h6.544l1.983-6.141Z" fill="#fff200"/>
      </g>
    </g>
  </g>
</svg>
