<?xml version="1.0" encoding="utf-8"?>
<!-- Generator: Adobe Illustrator 24.1.2, SVG Export Plug-In . SVG Version: 6.00 Build 0)  -->
<svg version="1.1" id="Capa_1" xmlns="http://www.w3.org/2000/svg" xmlns:xlink="http://www.w3.org/1999/xlink" x="0px" y="0px"
	 viewBox="0 0 826 134.1" style="enable-background:new 0 0 826 134.1;" xml:space="preserve">
<style type="text/css">
	.st0{fill:#007FFF;}
	.st1{fill:#FFFFFF;}
</style>
<path class="st0" d="M826,109.2c0-11-9-20-20-20l-628.5,0.4c-21.4,0-39.8-15-44.1-36V54c-7.2-36.5-42.5-60.3-79-53.1
	C22.6,7.1-0.2,35.1,0,67.4l0.1,67.3l134.6-0.2l0,0l691.3-0.5V109.2z"/>
<path id="Trazado_15733_1_" class="st1" d="M66,25.8c-5.3,0-10.6,1.2-15.4,3.7l0.4,0.7c4.5-2.3,9.5-3.5,14.6-3.5v6.2
	c-4.1,0.1-8.1,1-11.7,2.8l0.4,0.7c3.5-1.7,7.4-2.7,11.3-2.7v5.6c-3,0.1-6,0.8-8.7,2.1l0,0c-2,1-3.8,2.2-5.3,3.7l-4-4
	c2-1.9,4.2-3.5,6.7-4.7l-0.4-0.7l0,0c-2.5,1.3-4.9,2.9-6.9,4.9l-4.4-4.4c2.5-2.4,5.3-4.5,8.4-6l-0.4-0.7
	c-6.7,3.4-12.1,8.8-15.5,15.6l0,0c-2.3,4.7-3.5,9.9-3.5,15.2c0,3.3,0.5,6.5,1.4,9.7l0.8-0.2c-0.9-3-1.3-6-1.4-9.1h6.2
	c0,2.6,0.4,5.1,1.2,7.6l0.8-0.2c-0.7-2.4-1.1-4.9-1.1-7.4h5.6c0,0.8,0.1,1.6,0.2,2.4c-0.3,0-0.5,0.1-0.8,0.2l-0.2,0.6
	c-0.4,0.1-0.6,0.7-0.6,0.7c-0.3,0.1-0.6,0.5-0.5,0.6c0.1,0.1-0.2,0.1-0.2,0.1v0.8l-0.2,0.3l0,0.8c0.2,0,0.2,0.4,0.2,0.4
	c-0.4,0-0.3,0.5-0.3,0.5l-0.7,0.3L42,68.4l-0.9,0l-0.2,0.3l0,0c-0.1-0.2-0.1-0.5-0.2-0.7l-0.8,0.2c0,0.1,0,0.2,0.1,0.3h-1l-0.1-0.2
	l-0.4-0.1l0-0.4l-0.5,0L37.8,68l-0.6,0c0,0.4-0.6,0.9-0.6,0.7c-0.1-0.1-0.5-0.5-0.3-0.6c0.2-0.1,0.4-0.1,0.6-0.1v-0.3l-1.3,0
	l-0.1,0.2L35,68v0.6l-0.3,0.1c-0.2,0.1,0,0.5,0,0.5c0.3,0.3,0,0.6,0,0.6c-0.2,0.2,0.2,0.6,0.2,0.6c0.3,0.1-0.2,0.3-0.2,0.3
	c0,0.2,0.1,0.4,0.3,0.5c-0.1,0.2-0.1,0.4,0.1,0.5c0,0,0,0,0.1,0l0,0.6l0.2,0.1v0.4l0.1,0.3h0.6l0-0.8c-0.5-0.6,0.4-0.7,0.5-0.5
	c0,0.2,0.4,0.3,0.4,0.3c0.1,0.5,0.7,0.8,0.8,0.3c0.2-0.5,0.3-0.2,0.4,0c0.2,0.3,0.5,0.6,0.8,0.9h0.5l0.1,0.5c0.6,0,0.8,0,1,0.8
	c0.1,0.5,0.5,0.8,0.9,1l0.5,0c0-0.4,0.5,0.1,0.5,0.3c0,0.2,0.9,1,0.9,1l0.9,0.2l0.2,0.1c0.6,0.7,1.2,1.4,1.8,2.1L42,83.6
	c-3.8-3.9-6.6-8.7-8.2-14L33,69.8c1.6,5.5,4.6,10.6,8.7,14.7c2.8,2.8,6,5,9.5,6.7l0.4-0.7c-3.3-1.6-6.4-3.7-9-6.3l4.4-4.4
	c2.2,2.2,4.8,4,7.7,5.3l0.4-0.7c-2.8-1.3-5.3-3-7.5-5.1l0.8-0.8c0.1,0.1,0.1,0.2,0.1,0.3c0.1,0.5,0.3,0.4,0.3,0.4l2,0l0.7-0.6l1.8,0
	c0.9,0,0.4-1.3,0.2-1.3c-0.1-0.1-0.1-0.3-0.1-0.4c1.4,1.1,2.9,2,4.6,2.7l0.4-0.7c-1.9-0.8-3.6-1.9-5.2-3.2l-0.9-0.9l4.4-4.4
	c1.4,1.3,3,2.3,4.8,3l0,0c0.5,0.2,1,0.3,1.5,0.4c-0.1,0.1-0.1,0.1-0.1,0.2c0.1,0.2-0.3,0.4-0.3,0.4l-0.3,0.1l-0.2,0.3l-0.4,0.1
	l-0.1,0.7l-0.2,0.1V76L60.9,76v0.2l-0.4,0l0.2,0.5l0.3,0.1c0.5,0.1,0.3,0.7,0.3,0.7l0.3,0l0.1,0.4l0.3,0.6c0.1,0.4,0.4,0.3,0.6,0.3
	c0.1,0,0.3,0.4,0.3,0.4l1.4,0c0,0-0.1,0.1,0.2,0.2c0.4,0.1,0.8,0.1,1.1,0.1v0.6c-2.5,0-5-0.6-7.3-1.6l-0.4,0.7
	c2.4,1,5.1,1.6,7.7,1.7v5.6c-3.6-0.1-7.2-0.9-10.5-2.4l-0.4,0.7c3.4,1.6,7.2,2.4,11,2.5v6.2c-4.8,0-9.6-1.2-14-3.2l-0.4,0.7
	c9.6,4.6,20.8,4.4,30.4-0.3c3.3-1.7,6.2-3.8,8.8-6.4c2.7-2.7,5-5.9,6.6-9.3l0,0c6.4-13.2,3.7-29-6.7-39.3c-3.3-3.3-7.2-5.9-11.5-7.6
	l0,0C74.7,26.6,70.4,25.8,66,25.8L66,25.8z M66.4,26.6c4.2,0,8.3,0.9,12.1,2.4l0,0c4.1,1.6,7.8,4.1,10.9,7.1l-3.7,3.7
	c-0.1,0-0.2,0-0.4,0c-0.3-0.1,0.1-0.4,0.1-0.4v-0.3l-0.2-0.2c0,0-0.6,0.1-0.6,0c0-0.1-0.1-0.6-0.1-0.6l0-0.6l-0.3-0.1l0-0.2l-0.4,0
	v-0.4l-0.2-0.1L83.4,37l0-0.4l-0.8,0l-0.3-0.4L82,35.8l-0.9-0.1l-0.2-0.2l-0.4-0.1l-0.3-0.1l-0.1,0.2l-0.7,0l0,0.2
	c-0.4,0.1-0.8,0.1-1.2,0.1c-0.7-0.4-1.3-0.7-2-1L76,35.6c0.6,0.2,1.1,0.5,1.6,0.8c0,0.1-0.1,0.2-0.2,0.2c-0.2,0-0.1,0.5-0.1,0.5
	c0.2,0,0.4,0,0.6,0c0.1,0,0.1,0.4,0.1,0.4c0.5,0,0.7,0.7,0.7,0.9c-0.1,0.2,0.2,0.2,0.2,0.2c0,0.2,0,0.5-0.1,0.7
	c-0.1,0.1,0.5,0.3,0.6,0.5c0.1,0.3,0,0.7-0.2,1c-0.1,0,0.3,0.1,0.3,0.3c0,0.2,0.1,0,0.1,0.3c0,0.3,0.1,0.9,0.1,0.9l0.5,0
	c0.1-0.5,1-0.5,1.1-0.4c0.5,0.3,0.9,0.8,1,1.3c0,0.2-0.4,0.3-0.4,0.3l0,0.2l-1.2,1.2c-0.1-0.1-0.3-0.1-0.3-0.1
	c-0.2,0.1-0.1-0.7-0.1-0.7s0.3-0.2,0.5-0.1c0.1,0.1-1.2-1.8-1.5-1.6c-0.3,0.2-0.9-0.2-0.9-0.5c0-0.3-1.3-1.4-1.3-1.4
	s-0.4-0.3-0.5-0.1c-0.1,0.2-0.2,0.4,0,0.5c0.2,0.1,0.2-0.2,0.4,0.1c0.2,0.3,0.7,0.6,0.5,0.8c-0.1,0.1-0.2,0.2-0.4,0.3l0.3,0.3H78
	l0.1,0.6c0,0,0.4,0.2,0.5,0.5c0.1,0.1,0.1,0.2,0.1,0.4c-0.8-0.6-1.6-1.1-2.4-1.6c0-0.1,0-0.1,0-0.2c-0.1-0.3,0.3-0.4,0.5-0.1l0.4,0
	l0.1-0.3l-0.5-0.4h-0.4c0,0,0,0.3-0.3,0.2c-0.1-0.1-0.2-0.1-0.3-0.1c-0.2,0-0.1,0.4-0.1,0.5c-0.5-0.3-1.1-0.5-1.7-0.8l0,0
	c-2.4-1-4.9-1.5-7.5-1.6v-3.2c0.2,0,0.3-0.1,0.4-0.2c0-0.1,0.1-0.2,0.3-0.2s0-0.5-0.3-0.4c-0.1,0-0.3,0-0.4-0.1v-1.6
	c3.3,0,6.5,0.7,9.6,1.9l0.3-0.8c-3.1-1.3-6.5-1.9-9.9-2L66.4,26.6L66.4,26.6z M72.2,28.1l-0.3,0.2l-0.2-0.1l-0.1,0.2l0.3,0.2l0.1,0
	l0.1,0l0.4-0.2L72.2,28.1L72.2,28.1z M73.8,28.9l-0.3,0.2L73.4,29l-0.1,0.1l0.3,0.3l0.1,0.1l0.1-0.1l0.4-0.3L73.8,28.9L73.8,28.9z
	 M40.3,29.1c-3.4,1.3-7.2,2.7-9.4,6.3c-1.3,2.1-1.5,4.5-2.5,6.7c1.9-1.8,4.1-3.1,5.8-5.3C36.1,34.2,37.8,31.3,40.3,29.1z M91.6,29.1
	c2.5,2.2,4.2,5.1,6.2,7.7c1.6,2.2,3.8,3.5,5.8,5.3c-1-2.1-1.2-4.6-2.5-6.7C98.8,31.9,95.1,30.5,91.6,29.1z M71.3,29.6
	c-0.1,0-0.3,0.1-0.3,0.1c0,0.1-0.3,0.2-0.3,0.2l-0.8,0.1c-0.1,0.2-0.5,0.4-0.5,0.2l0,0c-0.1-0.3-0.5,0.4-0.1,0.5
	c0.3,0.1,0.6,0.1,0.9,0l0.1-0.2l1.7,0c0.1-0.1,0.2-0.2,0.2-0.4c0,0,0.4-0.1,0.6-0.1c0.2,0.1,0-0.5-0.1-0.4c-0.2,0-0.3,0.1-0.5,0
	h-0.6C71.6,29.6,71.5,29.6,71.3,29.6L71.3,29.6z M68.3,30.3l-0.5,0.2l-0.5,0.3l-0.5,0.1l-0.3,0.3l1.1,0.1l0.2,0.4l0.8,0.1l0.5,0.5
	c0.5,0.1,0.6-0.1,0.3-0.3l0,0L69,31.4V31l-0.1-0.1l-0.1-0.5L68.3,30.3L68.3,30.3z M31,33.8c-1.8,0.5-3.4,1.6-4.6,3
	c-2.8,3.1-2.5,7.6-2.1,11.6c0.1,1.2,0.1,2.4-0.1,3.6c0.9-1.8,2.2-3.4,3.8-4.5c3.6-2.7,7.5-6.2,7.6-10.8c-1.2,3.3-4.8,4.7-7.2,7
	c-1.2,1.1-2.2,2.6-2.8,4.1l-0.1-0.1c0.3-1.3,0.9-2.5,1.3-3.8C27.8,40.4,27.6,36.2,31,33.8L31,33.8z M101,33.8
	c3.4,2.3,3.2,6.5,4.3,10.1c0.4,1.3,0.9,2.5,1.3,3.8l-0.1,0.1c-0.6-1.6-1.6-3-2.8-4.1c-2.4-2.3-6-3.6-7.2-7c0.1,4.6,4,8.1,7.6,10.8
	c1.6,1.2,2.9,2.8,3.8,4.5c-0.2-1.2-0.2-2.4-0.1-3.6c0.4-4,0.6-8.5-2.2-11.6C104.3,35.4,102.8,34.4,101,33.8z M82.1,34.5
	c-0.3,0-0.7,0.2-0.6,0.4c0.1,0.2,0.2,0.4,0.5,0.4l0.5,0.2c0,0,0.6,0.8,0.6,0.4c0-0.5-0.3-1-0.7-1.3C82.3,34.6,82.2,34.5,82.1,34.5
	L82.1,34.5z M71.2,35l-0.1,0.3l0.2,0.1l0.1-0.3L71.2,35L71.2,35z M71.9,35.3c0,0-0.2,0.3-0.4,0.3c0.2,0.1,0.4,0.2,0.4,0.2
	c0.2,0,0.4,0.1,0.5,0.3c0,0.1,0.4,0.1,0.4,0.1l0-0.3l-0.3-0.4l-0.3-0.2C72.3,35.5,71.9,35.4,71.9,35.3L71.9,35.3z M71.5,35.6
	C71.4,35.5,71.3,35.5,71.5,35.6C71.5,35.6,71.5,35.7,71.5,35.6L71.5,35.6z M70.4,35.5l0,0.2l0.3,0l0.2,0.3L71,36l-0.3-0.4l0,0h0
	C70.6,35.5,70.5,35.5,70.4,35.5L70.4,35.5z M62.4,36.4c-0.2,0-0.4,0-0.4,0.1c0.1,0.2,0.2,0.3,0.3,0.4c0,0,0.5,0,0.6,0.1
	c0,0.1,0.4,0.1,0.4,0c0-0.1,0.2-0.3-0.1-0.3c-0.3,0-0.3-0.2-0.4-0.3C62.7,36.4,62.5,36.4,62.4,36.4L62.4,36.4z M90,36.8
	c3.1,3.1,5.5,6.8,7.1,10.9l0,0c1.6,3.9,2.4,8,2.4,12.1h-6.2c0-3.3-0.7-6.6-1.9-9.7c-0.2-0.4-0.4-0.9-0.6-1.3
	c0.1-0.2,0.2-0.4,0.4-0.3c0.4,0.1,0.1-0.8,0.1-0.8s-0.5-0.4-0.5-0.5c0-0.2-0.5-0.5-0.5-0.7c0-0.1-0.5-0.4-0.4-0.6
	c0-0.1-0.2-0.5-0.2-0.5l-0.5-0.5l-0.1-0.3l-0.4,0l-0.8-1l0-0.3l-0.3,0v-0.4l-0.3-0.1l-0.4,0l-0.8-0.8l-0.1-0.4h-0.4l0.1-0.6L90,36.8
	L90,36.8z M71.2,36.8v0.3l0.4,0l-0.1-0.3L71.2,36.8L71.2,36.8z M42,36.8l4.4,4.4c-2.1,2.1-3.8,4.6-5,7.2c-1.7,3.6-2.6,7.5-2.7,11.4
	h-6.2c0.1-5,1.2-9.9,3.4-14.4l0,0C37.4,42.2,39.5,39.3,42,36.8L42,36.8z M72.9,38.4C72.8,38.4,72.8,38.4,72.9,38.4
	c-0.1,0.1,0.1,0.1,0.1,0.4c0.1,0.2,0,0.6,0.4,0.6c0.3,0.1,0.4,0.1,0.4,0.3c0,0.1,0.4,0.2,0.4,0.2l0.3,0.1l0.8,0.7v-0.3
	c0,0,0-0.3-0.2-0.3s-0.5-0.2-0.4-0.4s-0.6-0.3-0.6-0.3s-0.6-0.6-0.4-0.5s0.1-0.3,0.1-0.3c-0.2,0-0.3,0-0.5,0c-0.1,0-0.1-0.4-0.1-0.4
	C73.1,38.4,73,38.4,72.9,38.4L72.9,38.4z M53.8,38.7l-0.1,0.1l0.2,0.2l0.1-0.1L53.8,38.7L53.8,38.7z M23.8,40.1
	c-0.1,0-0.1,0.1-0.2,0.1c-2.5,2.9-3.9,6.6-4,10.4c0,5,2.9,8.6,3.3,13.3c0.8-4.9,4.9-8.4,7-12.8c0.8-1.7,1.4-3.6,1.6-5.5
	c-0.3,0.8-0.8,1.6-1.5,2.2c-2.8,2.7-6.1,5.2-6.7,9c-0.1,0.5-0.2,1.1-0.3,1.6c-0.1,0.1-0.1-0.1-0.2-0.1l0.4-4.6
	C23.5,49.1,21.1,44.1,23.8,40.1L23.8,40.1z M108.3,40.1c2.6,4,0.2,9,0.6,13.5l0.4,4.6c0,0,0,0.2-0.2,0.1c-0.1-0.5-0.2-1.1-0.3-1.6
	c-0.6-3.7-3.9-6.3-6.7-9c-0.6-0.6-1.1-1.3-1.5-2.2c0.2,1.9,0.8,3.7,1.6,5.5c2.2,4.3,6.3,7.8,7,12.8c0.4-4.7,3.3-8.2,3.3-13.3
	c-0.1-3.8-1.5-7.5-4-10.4C108.4,40.2,108.3,40.1,108.3,40.1L108.3,40.1z M65.6,40.1v6.2c-1.9,0.1-3.8,0.5-5.5,1.3l0.4,0.7l0,0
	c1.6-0.7,3.3-1.2,5.1-1.2v5.6c-0.7,0-1.4,0.2-2.1,0.4l0,0l0-0.4l0.2-0.1l-0.3-0.1l-0.2,0.3l-0.1,0.3l-0.4,0.1v0.2h-0.3v0.2
	c-0.5,0.3-1,0.6-1.4,1l-4-4c1-1,2.2-1.7,3.4-2.3l-0.4-0.7c-1.3,0.6-2.6,1.5-3.6,2.5l-4.4-4.4C55.7,42.2,60.5,40.2,65.6,40.1
	L65.6,40.1z M66.4,40.1c2.5,0,4.9,0.5,7.2,1.5c0.6,0.3,1.2,0.5,1.8,0.9c0,0,0.1,0,0.1,0.1c1,0.5,1.9,1.1,2.8,1.8l0,0
	c0,0.2,0.2,0.3,0.3,0.4l0.2,0c0.1,0.1,0.2,0.2,0.3,0.3v0.3c0.3,0,0.6,0.2,0.7,0.5l-4.3,4.3c-2.5-2.3-5.7-3.7-9.1-3.8L66.4,40.1
	L66.4,40.1z M46.9,41.7l4,4c-1.6,1.7-2.9,3.6-3.9,5.7l0,0c-1.2,2.6-1.9,5.5-1.9,8.4h-5.6C39.6,53,42.3,46.6,46.9,41.7L46.9,41.7z
	 M82.4,44.4c0.5,0.3,0.9,0.9,0.8,1.1c-0.1,0.1,0.4,0.1,0.4,0.1c0.1-0.6,0.7-0.4,0.7-0.2c0,0.2,0.1,0.7,0.1,0.7l0.2,0.3l0.3,0.3
	l0.4,0l0.1,0.2l0.5,0.1c0.2,0.2,0.3,0.3,0.4,0.5c0,0.1,0.6,0.1,0.7,0.1c0.1,0,0.4,0.1,0.4,0.3c0.1,0.2,0.1,0.3,0.3,0.5
	c0,0,0.4,0.1,0.5,0.3c0.1,0.2,0.1,0.3,0.2,0.5l0.4,0.3l0,0.3l0.4,0l0.1,0.4l0.6,0l0.4-0.3c0.1-0.1,0.2-0.1,0.3-0.2
	c0.1,0.3,0.3,0.6,0.4,0.9c1.2,3,1.8,6.2,1.9,9.4h-5.6c0-1-0.1-2-0.3-2.9c0-0.1,0.1-0.3,0-0.3c-0.1-0.1,0.1-0.6,0.1-0.6
	c0.1-0.2,0.1-0.4,0-0.6c-0.1-0.3,0-0.5,0.1-0.7l-0.3-0.1l-0.3,0l-0.2,0C86.1,54.2,86,54,86,53.8l0,0l0.2,0v-0.2l-0.3-0.1
	c0-0.1-0.1-0.3-0.1-0.4l0-0.7l-0.3-0.2l0.1-0.3l-0.3-0.1l0.1-0.5l-0.3-0.5h-0.4c-0.2-0.3-0.3-0.7-0.5-1c0,0,0.1,0,0.1-0.1
	c0.2,0,0.3-0.1,0.3-0.1l0-0.4l-0.3-0.2l-0.1-0.4c0,0-0.4,0.1-0.4,0.3c0,0,0,0.1-0.1,0.1c-0.2-0.4-0.5-0.8-0.8-1.1c0,0,0,0,0-0.1
	c0.1-0.2,0.1-0.4-0.2-0.5c-0.3-0.1-0.3-0.1-0.3-0.4c-0.1-0.2-0.2-0.3-0.4-0.4l-0.1-0.4l-0.3,0.2c-0.1-0.2-0.3-0.3-0.4-0.5l0.1-0.4
	c-0.1,0-0.2-0.1-0.3-0.2L82.4,44.4L82.4,44.4z M84.6,49.8L84.6,49.8C84.6,49.8,84.7,49.8,84.6,49.8L84.6,49.8z M60.1,45.2L60,45.4
	l0.2,0.2l0.1-0.2L60.1,45.2z M59.3,45.4l0,0.4h0.5c0.2,0-0.2-0.3-0.2-0.3S59.3,45.6,59.3,45.4L59.3,45.4z M82.4,45.4l-0.2,0l0,0.3
	l0.2,0L82.4,45.4z M51.5,46.3l4.4,4.4c-0.9,1-1.7,2.1-2.3,3.3c-0.1,0-0.3,0-0.3,0.1c-0.1,0.3-0.6,0.2-0.6,0.2l-0.1,0.1l-0.4,0.1
	l-0.1,0.2l-0.4,0.1l1,0c0.3,0-0.1,0.6-0.3,0.6l-0.5,0l-0.2,0.2h-0.5l-0.2,0.3l-0.7,0c0,0-0.4,0.3-0.4,0.4c0,0.1-0.1,0.4-0.2,0.4
	c-0.1,0-0.3,0.3-0.2,0.4c0.1,0.1-0.2,0.5-0.2,0.5l-0.1,0.4l-0.2,0.1v1l-0.4,0.3v0.4l-0.2,0.2h-2.8c0.1-2.7,0.7-5.5,1.8-8
	C48.7,49.8,49.9,47.9,51.5,46.3z M80.4,46.4c0.1,0.1,0.1,0.2,0.3,0.3c0.1,0,0.1,0.1,0.2,0.1c0.1,0.1,0.2,0.2,0.3,0.4l-0.1,0.1
	c0,0.4,0.2,0.3,0.4,0.3c0.1,0.1,0.1,0.1,0.2,0.2c0,0.2,0,0.6,0.4,0.5h0c0.4,0.6,0.9,1.2,1.2,1.9l0,0l0,0c0.1,0.1,0.1,0.2,0.2,0.3
	c-0.1,0-0.1,0.1-0.1,0.1l-0.6,0.1v0.6l-0.3,0.1l0,0.4l0.4,0c0,0,0,0.4,0.1,0.3s1,0,0.9,0.5c0,0.2,0.9,0.6,0.8,1.2
	c0.1,0,0.1,0,0.2,0.1c0.2,0.5,0.3,1,0.4,1.5l-0.1,0.1c0,0,0.1,0.1,0.1,0.1c0.1,0.4,0.2,0.9,0.3,1.3c0,0.4-0.1,0.8-0.3,0.9
	c-0.4,0.3,0,0.1,0,0.1l-0.1,0.8c0.1,0.4,0.3,0.2,0.4,0c0.1-0.1,0.1-0.1,0.2-0.2c0.1,0.5,0.1,1.1,0.1,1.6h-4.2c0,0,0-0.1,0.1-0.1
	l0.2-0.5l0.6-0.2l0.1-0.5l-0.3,0c0,0,0.4-0.6,0.5-0.6c0.5,0,0.9,0,1.4-0.1c0.2-0.2,0.3-0.5,0.3-0.7c0-0.1,0.3-0.1,0.4-0.2
	c0.2-0.1,0.3-0.3,0.4-0.5c0.1-0.1-0.2-1-0.3-0.9c-0.1,0.1-0.3,0.2-0.5,0.2l-0.1,0.4l-0.2,0.1c0,0.1,0,0.2,0,0.4
	c0,0.2-0.4,0.4-0.4,0.4l-0.1,0.2c-0.3,0-0.6,0-0.9,0c-0.1-0.1-0.2-0.2-0.1-0.4c0-0.1,0.1-0.2,0.2-0.2c0.2,0,0-0.6,0-0.6l0.3,0
	c0,0,0-0.6,0.1-0.6c0.1,0,0-0.2-0.2-0.3c-0.1-0.1-0.3-0.5-0.5-0.4c-0.2,0-0.5,0-0.7,0l-0.1,0.2L81.7,55c0,0,0,0.3,0,0.4
	c-0.2,0.3-1,0.8-0.7-0.1l0.1-0.2v-0.3l-0.6,0c0,0-0.3-0.1-0.3-0.3c0-0.1,0-0.2,0-0.3l-0.7-0.8l-0.9-0.1L78.4,53l-0.5-0.1
	c-0.1,0-0.2-0.1-0.2-0.1c-0.2-0.4-0.5-0.8-0.8-1.1c0,0,0-0.1,0-0.1c0-0.1-0.4-0.7-0.6-0.7c-0.1-0.1-0.1-0.2-0.2-0.3L80.4,46.4
	L80.4,46.4z M83.8,46.8C83.8,46.8,83.7,46.8,83.8,46.8c-0.1,0.2,0.1,0.3,0,0.5c0,0.1,0,0.2,0.1,0.3c0,0,0.1,0,0.1,0
	c0.1,0,0.3,0.1,0.4,0.1c0.1,0.1,0.3,0.2,0.4,0.3l0.4-0.1c0,0,0-0.4-0.1-0.3c-0.1,0.1-0.3-0.3-0.4-0.2c-0.1,0-0.2-0.1-0.4-0.3
	C84.2,47,84.2,47,84,46.9C84,46.8,83.9,46.8,83.8,46.8L83.8,46.8z M66.4,47.2c3.2,0.1,6.2,1.3,8.5,3.5l-0.2,0.2
	c-0.1-0.1-0.5-0.2-0.5-0.3c0-0.1-0.4-0.3-0.3-0.1c0,0.2-0.3,0.3-0.3,0.3c-0.1-0.1-0.3,0.2-0.3,0.2c0,0.1-0.1,0.2,0.1,0.3
	c0.2,0,0.6-0.1,0.6,0.1c0,0.1,0,0.1,0,0.2l-1.4,1.4c-0.1,0-0.2,0-0.4,0c-0.1,0.3-0.6,0-0.5-0.3c0.1-0.1,0.1-0.2,0.1-0.4l-0.2,0
	l-0.2,0.4c-0.5,0-0.6,0.3-0.5,0.5c0.1,0.2-0.1,0-0.2,0.2c-0.1,0.3,0,0.3,0.2,0.4c0.2,0.1-0.1,0.1,0,0.3c0.1,0.1,0.3,0.1,0.4,0.1
	l-0.3,0.3c-0.2,0-0.3,0.1-0.5,0c0,0.1,0,0.1-0.1,0.1c-0.6-0.5-1.2-0.8-1.8-1.1c0.1-0.1,0.3-0.1,0.4-0.3c0.1-0.3,0.2-0.7,0.2-1
	c0,0-0.6,0-0.6,0.1c0,0.2-0.4,0.3-0.4,0.3s-0.3,0.1-0.2,0.3s-0.2,0.2-0.2,0.2c0,0.1,0,0.1,0,0.2c-0.6-0.2-1.1-0.3-1.7-0.3L66.4,47.2
	L66.4,47.2z M84.9,48.3l-0.4,0c0.1,0.1,0.3,0.3,0.3,0.4s-0.1,0.3,0.1,0.3c0.2,0,0.4,0,0.4,0.1c0.1,0.2,0.1,0.4,0,0.6
	c0,0.1,0,0.4,0.2,0.4c0.2,0,0.2,0,0.2,0.1c0,0.1,0.2-0.4,0.2-0.4c-0.1-0.1-0.2-0.3-0.3-0.5c0,0-0.2-0.5-0.2-0.6
	c0-0.1-0.3-0.1-0.4-0.2C85,48.7,84.9,48.3,84.9,48.3L84.9,48.3z M81.6,48.5l-0.4,0l0,0.2l0.4,0L81.6,48.5z M81.8,48.7v0.2H82v-0.2
	H81.8z M81.5,49.1c-0.2,0.2-0.4,0.2-0.6,0.1c0,0-0.1,0.7-0.3,0.8h-0.5c0.1,0.1,0.1,0.2,0.2,0.3c0.1,0.1,0.4,0.3,0.1,0.5
	c-0.3,0.1,0,0.1,0,0.1s0,0.7-0.4,0.6c-0.3-0.1-0.4,0.4-0.4,0.5c0,0.1,1.2,0.2,1,0c-0.1-0.1,0.1-0.4,0.1-0.4s0.8,0.1,1,0.1
	c0.2,0,0.3,0,0.2-0.2c-0.1-0.2-0.4-0.1-0.4-0.1c-0.3,0.1-0.5,0-0.8-0.1C80.5,51.1,81,51,81,51c0.1,0,0.4-0.3,0.3-0.4
	c-0.1-0.2,0-0.5,0-0.4s0.4,0.2,0.5,0.1c0.1-0.2,0-0.4-0.2-0.5c-0.2-0.1,0.3-0.2,0.2-0.4C81.6,49.4,81.6,49.2,81.5,49.1L81.5,49.1z
	 M82.2,50.1v0.3h0.2v-0.3H82.2z M82.7,50.3l-0.1,0.2l0.2,0.1l0.1-0.2L82.7,50.3L82.7,50.3z M86,50.6c-0.1,0,0.1,0.4,0,0.5
	c-0.1,0.1-0.2,0.2-0.3,0.3c-0.1,0.1,0.2,0.3,0.2,0.4s0.1,0.6,0.1,0.6s0.3,0.1,0.3,0.3c0,0.1,0,0.4,0.1,0.5c0.1,0,0.3,0.2,0.3,0.3
	c0,0.1-0.1,0.3-0.1,0.4l0.1,0.3l0.3,0.2c0,0,0.1-0.8-0.1-0.9s-0.1-0.5-0.1-0.5s0.2-0.7-0.1-0.7c-0.3,0-0.1-0.4-0.3-0.5
	c-0.2-0.1-0.1-0.6-0.1-0.7C86.3,50.8,86.3,50.7,86,50.6C86.1,50.6,86,50.5,86,50.6L86,50.6z M77.6,51.2l-0.4,0l0,0.2l0.4,0
	L77.6,51.2L77.6,51.2z M72.3,51.2c-0.1,0-0.1,0-0.2,0l-0.6,0.1l0,0.3l0.4,0c0,0,0.2,0.1,0.2,0.3c0,0.1,0.3,0.2,0.4,0.2
	c0.2-0.1,0.4-0.2,0.5-0.3c0,0,0.2-0.5,0-0.5c-0.1,0-0.4,0.3-0.5,0C72.6,51.3,72.4,51.2,72.3,51.2L72.3,51.2z M56.5,51.3l3.4,3.4
	l-0.3,0c-0.1,0.3-0.5,0-0.5,0c-0.1-0.2-0.6,0-0.6,0c0,0.4-0.7-0.2-0.7-0.2l-1.2-0.9c-0.7-0.6-1.7,0.2-1.8,0.4c0,0.3-0.2,0.3-0.4,0.2
	C55,53.1,55.6,52.1,56.5,51.3L56.5,51.3z M70.1,51.3l-0.2,0l0.1,0.3l0.2,0L70.1,51.3z M71.3,51.4l-0.8,0v0.2l0.8,0V51.4z M64.7,51.5
	v0.2H65v-0.2H64.7z M66.5,51.5l0,0.2l0.3,0l0-0.2L66.5,51.5L66.5,51.5z M67,51.6l0,0.2l0.3,0l0-0.2L67,51.6z M64.2,51.7l0,0.2l0.2,0
	l0-0.2L64.2,51.7z M69.9,51.7l-0.1,0l0.1,0.2l0.1,0L69.9,51.7z M78.3,51.8L78.2,52l0.2,0.1l0.1-0.2L78.3,51.8z M75.7,51.8
	c0,0,0.2,0,0.4,0.1c0.2,0.2,0.3,0.4,0.5,0.6l-0.4-0.1l-0.3,0l-0.5,0c-0.3,0.2-0.5,0.5-0.6,0.8c-0.2,0.5-0.8,0-0.8-0.4l0.9-0.9H75
	C75.2,51.9,75.7,51.8,75.7,51.8L75.7,51.8z M67.4,51.9v0.2h0.3v-0.2H67.4z M63.9,51.9l0,0.2l0.3,0.1l0-0.2C64.1,52,64,52,63.9,51.9
	L63.9,51.9z M63.8,52.2l-0.2,0l0,0.2l0.2,0L63.8,52.2z M68,52.2h-0.2v0.3H68V52.2z M78.9,52.3c-0.1,0-0.3,0-0.4,0
	c-0.2,0-0.1,0.2,0,0.4l0.4-0.1c0,0,0.3-0.1,0.3-0.3C79.2,52.3,79,52.3,78.9,52.3L78.9,52.3z M76.6,52.5c0.1,0.2,0.3,0.4,0.4,0.5
	c0,0.1-0.1,0.2,0,0.3c0.1,0.5,0.3,0.7-0.1,0.7c-0.2,0-0.4-0.1-0.4-0.3c0,0-0.3-0.1-0.3,0c0,0.1-0.1,0.4,0,0.6
	c0.1,0.1-0.1,0.4-0.3,0.3c-0.1-0.1-0.4-0.4-0.3-0.5c0.1-0.1-0.5-0.8,0.1-0.9c0.6-0.1,0-0.4,0.2-0.5l0.3-0.1h0.3L76.6,52.5L76.6,52.5
	z M18.7,52.7c-0.5,1.2-0.8,2.5-1.1,3.8c-0.5,3.3-0.2,6.7,0.9,9.8c1.1,3.8,4.8,6.5,6.7,10l0.3,0.2c-0.4-1.9-0.3-3.8,0.1-5.7
	c0.9-2.8,1.7-5.7,2.4-8.7c0.5-2.3,0.8-4.8,0.6-7.2c-0.2,1.2-0.7,2.4-1.3,3.4c-2.5,3.9-5.1,8.5-3.3,13.5c0,0.1-0.1,0.1-0.2,0.1
	c-0.6-1.7-1-3.5-1.3-5.3C21.2,62,17.6,58,18.7,52.7L18.7,52.7z M113.3,52.7c1,5.4-2.5,9.3-3.8,13.9c-0.3,1.8-0.8,3.5-1.3,5.3
	c-0.1,0-0.1,0-0.2-0.1c1.8-5-0.8-9.5-3.3-13.5c-0.6-1.1-1.1-2.2-1.3-3.4c-0.1,2.4,0.1,4.8,0.6,7.2c0.5,3,1.5,5.8,2.4,8.7
	c0.4,1.9,0.5,3.8,0.1,5.7l0.3-0.2c1.9-3.5,5.6-6.2,6.7-10c1.1-3.2,1.4-6.5,0.9-9.8C114.2,55.1,113.8,53.9,113.3,52.7L113.3,52.7z
	 M65.9,53.6l0.1,0.8l-0.4-0.1h-0.3l-0.1-0.2l-0.2,0v0.8l0.2,0.2l0.2,0.2l0.4,0l0.1,0.4l0.9,0l0.1,0.2l0.5,0l1,1l-0.1,0.3l-0.2,0.1
	c0.1,0.3-0.5,0.1-0.5,0.1v0.2l0.3,0l0.3,0.1l0.4-0.6c0.4-0.2,0.6,0.1,0.6,0.3c0,0.2-0.2,0.2-0.2,0.2v0.5l0.2,0.1
	c0.2,0.2,0.2,0.4,0,0.6c0,0-0.1,0.1-0.1,0.1l-0.1,0.4c-0.1,0.3-0.5,0.3-0.5,0.3l-0.1,0.2l-0.4,0.1l0.8,0.1c0.1-0.3,0.3-0.4,0.4-0.2
	c0.1,0.1,0.1,0.3,0.1,0.4l0.2,0l0,0.4l0.2,0.1v1.1l0.3,0.3c0.4-0.2,0.4,0.1,0.2,0.2C69.8,62.4,70,63,70,63l-0.2,0.2v0.3l-0.2,0.1V64
	c-0.3-0.1-0.6-0.1-0.9,0c-0.3-0.2-1-0.1-1,0c0.2,0.3-0.3,0.4-0.3,0.4l-0.3,0.3c0.2,0.4-0.2,0.4-0.2,0.4v0.7l-0.4,0.4l0,0.6
	c-0.2,0-0.4,0-0.6,0c-1.6,0-3.2-0.6-4.4-1.7c0,0,0,0,0.1-0.1c0.1-0.2,0.3-0.3,0.5-0.3l0.1-0.3l0.9,0c0-0.1,0.1-0.3,0.3-0.3
	c0.1,0,0.2,0.1,0.2,0.2c0,0.2,0.4,0,0.4,0l0.3-0.4h0.4l0-0.4l0.2-0.1V63c0.3-0.1,0.5-0.4,0.5-0.7l0.1-0.2l-0.1-0.3
	c-0.3-0.1-0.1-0.4,0-0.3c0.2,0.1-0.3-0.3-0.3-0.3c-0.2,0.2-0.4-0.2-0.4-0.2h-0.5v-0.5l-0.1-0.5l-0.5-0.3l-0.4,0.4l-0.1,0.5v0.3
	L63,61.1l-0.1,1l-0.3,0.1l0,0.4l-0.4,0.1L62,62.7l-0.1,0.4l-0.3,0.2l-0.1,0.4l-0.2,1c-0.5-0.5-0.9-1.1-1.2-1.7
	c0-0.2,0.1-0.3,0.1-0.5c-0.3-0.1-0.1-0.6,0.2-0.2s-0.2-0.9-0.2-0.9l-0.3-0.3l-0.4,0c-0.1-0.3-0.1-0.7-0.1-1c0-0.1,0-0.3,0-0.4
	c0.1-0.1,0.1-0.1,0.2,0l0.2,0.2l0.3,0.3l0,0.2L60,60.4l0,0.3l0.1,0.4h0.3c0.1-0.3,0.4-0.5,0.7-0.4c0.1,0,0.3,0.1,0.3,0.2l0.2-0.5
	c-0.5-0.3,0-0.6,0.1-0.5c0.1,0.2,0.5-0.5,0.5-0.5s0.3,0.3,0-0.1c-0.1-0.2-0.1-0.5,0.1-0.6c0,0,0,0,0.1,0c-0.1-0.4,0.5-0.4,0.5-0.4
	l0-0.6l-0.5,0c-0.1,0.5-0.5,0.1-0.3,0c0.2-0.1,0.3-0.2,0.4-0.3v-0.3l0.2-0.1l0-0.4h0.5l0.5-0.2l0.1-0.2l0.5,0l0.7-0.6l-0.1-0.3
	c-0.4,0,0-0.3,0-0.3l0.1-0.5h-0.4l-0.1-0.8C65,53.6,65.5,53.6,65.9,53.6L65.9,53.6z M87.1,55.6l0,0.3l0.2,0l0-0.3H87.1z M86.9,56.6
	l-0.1,0.2l0.2,0.1l0.1-0.2L86.9,56.6z M50.9,58c0.2,0,0.4,0,0.6,0.2l0.5,0c0.1,0.1,0.2,0.2,0.3,0.3c0,0.3-0.1,0.7-0.1,1
	c0,0-0.1,0.1-0.1,0.1c0,0.1-0.1,0.2-0.1,0.3h-1.3v0l-0.4,0c-0.4-0.3-0.2-1.2-0.2-1.2C50.3,58.2,50.6,58,50.9,58L50.9,58z M63,58.6
	l-0.1,0.2h-0.2l0,0.3h0.2l0,0.2l-0.1,0.1l-0.1,0.2l-0.3,0.1l-0.6,0.6l0,0.3l-0.2,0.3l-0.2,0.5l-0.7,0L60.6,62l0.1,0.5l0.6,0.3
	l0.1-0.4l0.2-0.1l0-0.4l0.1-0.2l0.2-0.3l0.1-0.3l0.4-0.2l0.4-0.1l0.2-0.2l0.1-0.4l0-0.3l0.1-0.2l0.4-0.2v-0.7h-0.2l0-0.3L63,58.6
	L63,58.6z M84.7,58.8l0,0.2l0.4,0.1l0-0.2L84.7,58.8z M83.9,59.1l-0.1,0.1l-0.2,0.1l-0.2-0.1l-0.1,0.2l0.3,0.2l0.1,0l0,0l0.2-0.1
	l0,0.1l0.2-0.1l-0.1-0.2L83.9,59.1L83.9,59.1z M86.9,60.6h5.6c-0.1,3.7-0.9,7.4-2.5,10.8l0,0c-1.2,2.7-2.9,5.1-5,7.2l-0.1-0.1
	c0-0.4,0-0.9,0-0.9l-0.2-0.2l0-0.9c0.1-0.5-0.7-1.1-0.7-1c-0.1,0.1-0.5,0-0.5,0.2c0,0.1-0.3,0.8-0.1,1.1c0,0,0,0,0,0l-2.2-2.2
	c1.7-1.7,3-3.8,4-6C86.2,66.2,86.9,63.4,86.9,60.6L86.9,60.6z M93.4,60.6h6.2c-0.1,4.9-1.2,9.8-3.3,14.2l0,0
	c-1.6,3.3-3.7,6.2-6.2,8.8l-4.4-4.4c2.1-2.2,3.8-4.7,5.1-7.4l0,0C92.4,68.3,93.3,64.5,93.4,60.6L93.4,60.6z M81.2,60.6h4.9
	c-0.1,5-2.1,9.8-5.6,13.4c0-0.5-0.1-1-0.2-1.5L80,72.4l0.1-0.9h-0.4l-0.6,0.8L79,72.6l-0.4-0.4l0.2-0.2l0-0.4l0.3-0.2v-0.4l0.2-0.1
	l0-0.8l0.2,0v-1.7L79,68c0,0.2-0.6,0.2-0.6,0.2s-0.1,0.3-0.3,0.3c-0.1,0,0.1,0.3,0.1,0.5c-0.1,0.2-0.4,0.2-0.4,0.2l-0.5,0.1
	l-0.1,0.2h-0.5l0-0.3c0.1-0.1,0.1-0.1,0.2-0.2l0.4-0.1l0.4-0.2l0.2-0.4c0-0.4,0.5-0.3,0.5-0.3s0.8-0.7,0.8-1c0-0.3,0.3-1.2,0.8-1.2
	h0.9c0.4-0.1,0.3-0.6,0.3-0.6l0.5-0.1l0.1,0.3c0,0,0.6,0.1,0.7,0c0.1-0.1,0.2-0.4,0.4-0.3c0.2,0.1,0.7-0.3,0.7-0.3
	c0-0.3,0.9-0.1,0.9-0.1l0.1-0.3c0,0-0.6-0.8-0.7-0.8c-0.1,0-0.7-0.5-0.7-0.3c-0.6-0.1-0.5-0.9-0.5-0.9l-0.2-0.5
	c0-0.3-0.5-0.9-0.6-0.8C81.3,61,81.2,60.8,81.2,60.6L81.2,60.6z M45.9,60.6h2.4l0,0.2l-0.5,0.6l0.1,0.6L47.6,62l-0.1,0.3L47.4,63
	l0.4,0c0.2-0.1,0.1,0.5,0,0.5s-0.5,0.2-0.3,0.4c0.2,0.1-0.6,0.1-0.6-0.1s-0.4-0.4-0.5-0.3c-0.1,0-0.1-0.1-0.2-0.2
	C46,62.5,45.9,61.5,45.9,60.6L45.9,60.6z M49.5,60.6h0.2c0.1,0,0.1,0,0.2,0.1l0.5,0l0-0.1H52l0.1,0.9l-0.5,0.4
	c-0.4,0.2-0.4,0.7,0,0.8c0.3,0,0.2,0.7-0.3,0.3c-0.6,0,0.4,0.6,0.1,0.4c0.6,0.3,0.5-0.3,0.5-0.3l0.3-0.2c0.1,0.7,0.3,1.4,0.5,2l0,0
	c0.7,1.8,1.7,3.4,3,4.8l-4.4,4.4c-0.3-0.3-0.6-0.6-0.8-0.9c0-0.2,0.1-0.3,0.2-0.4c0.5-0.3-0.1-0.7-0.1-0.7c0-0.3-0.1-0.6-0.3-0.9
	c-0.4-0.3-0.6-0.8-0.5-1.2v-0.6c-0.5-0.5,0.2-0.6,0.2-0.6c0.1-0.3,0.1-0.6-0.2-0.7l0-0.5l-0.6-0.1l-0.1-1.6l-1.3-1.8
	c-0.3-0.1-0.1-0.5-0.1-0.5C48.4,63.4,48,63,48,63l0-0.8l0.7-0.1l0.2-0.3h0.4l0-0.9C49.3,60.7,49.4,60.6,49.5,60.6L49.5,60.6z
	 M58.2,60.6h0.4c0,0.3,0,0.5,0.1,0.7l-0.2,0.1l-0.1-0.1l-0.1,0.4h-0.6l0-0.4l0.4-0.1l0.1-0.2L58.2,60.6L58.2,60.6z M68.5,61.1
	c-0.1,0-0.1,0-0.2,0.2v0.5c0.2,0.3,0.4,0.6,0.7,0.9c0.2,0.1,0.5-0.1,0.3-0.3c-0.5-0.4-0.5-0.8-0.6-1.1
	C68.6,61.2,68.5,61.1,68.5,61.1L68.5,61.1z M50.3,61.4l0,0.2h0.2c0.1,0.6,0.2,1.1,0,1.7c0,0-0.4,0-0.5-0.2C50,63,49.8,63.6,50,63.8
	s0.6,0,0.7,0.4c0,0.4,0.3-0.3,0.3-0.3v-2.4L50.3,61.4L50.3,61.4z M67,62.1l-0.6,0.5c0.3,0,0.4,0.4,0.4,0.5c0.1,0.3,0.1-0.5,0.2-0.5
	C67.1,62.6,67,62.1,67,62.1z M53.1,62.4c0.3,0.1,0.5,0.4,0.6,0.7c0.5,0.1,0.9,0.1,1.4,0c0.3,0.2,0.4,0.5,0.5,0.9
	c0.4-0.5,1.2,0,0.6,0.3c0.6,0.4,0.6,0.7,0.6,0.7c0.5-0.1,0.5,0.2,0.5,0.3c0.1-0.2,0.1-0.3,0.1-0.5c-0.5-0.4,0.7-0.5,0.4,0.2
	l-0.2,0.3l0.4,0.3l0,0.8c0.8-0.1,0.6-1,0.6-1l0.4-0.1c0-0.3,0.3-0.1,0.3-0.1c-0.2-0.8,0.2-1.2,0.4-1.3c0.3,0.5,0.6,1,1,1.4l-4,4
	c-1.2-1.3-2.1-2.8-2.8-4.5C53.5,63.9,53.3,63.2,53.1,62.4L53.1,62.4z M84.6,63.2c-0.3,0-0.6,0.2-0.5,0.3c0.2,0.3,0.6,0.1,0.7,0.2
	c0.1,0,0.3,0.1,0.1-0.3C84.8,63.3,84.7,63.2,84.6,63.2L84.6,63.2z M51.6,63.7c-0.1,0-0.1,0.1-0.1,0.1c0,0,0,0,0,0l0,0
	c0,0.1,0.1,0.1,0.1,0.1c0.1,0,0.1-0.1,0.1-0.1C51.7,63.8,51.6,63.7,51.6,63.7z M51.2,64.2l-0.5,0.4l-0.4-0.2v0.8l0.6,0.7l0.2-0.5
	l0.1-0.3L50.9,65l0-0.5l0.2,0L51.2,64.2L51.2,64.2z M64,65.1l-0.3,0l0,0.5l0.2,0.2l0.4,0.1c0,0,0.5-0.1,0.6-0.6l-0.8,0L64,65.1
	L64,65.1z M68.4,65.3c0.3,0,0.2,0.7,0.2,0.9c-0.2,0.1-0.4,0.2-0.6,0.2v-0.8L68.4,65.3L68.4,65.3z M61.1,65.8
	c1.2,1.1,2.7,1.7,4.3,1.9v0c0,0-0.1,0.3,0,0.4c0.1,0,0.1,0.1,0.2,0.2l-0.1,0.2c-0.1-0.2-0.2,0.1-0.1,0.2c0.1,0.1-0.2,0-0.2,0.1
	c0,0.1-0.1,0.2,0,0.2c0.1,0.1,0,0.1-0.1,0.2c-0.1,0.1,0.4,0.1,0.4,0.1s-0.1-0.2,0-0.2h0.1v0.4c0,0-0.1,0-0.1,0v0.3l-0.3,0l0.3,0.3
	l0.2,0v0.6c0,0.5-1.1,0.1-1.3,0l0,0.6l-0.2,0l0,0.4l0,0.6l0.4-0.1v0.2l0.9,0l0.2-0.2V73L65,73l-0.3,0.1L64.6,73h-0.3l-0.2,0.2
	c-0.8-0.1-1.6-0.3-2.4-0.6l0,0C60,72,58.5,71,57.1,69.8L61.1,65.8L61.1,65.8z M28,66.1c0.5,3.1-0.8,5.8-1,8.7
	c-0.2,2.3,0.2,4.6,1.1,6.7c0.4,0.6,0.7,1.1,0.9,1.8c-0.9-0.8-1.6-1.8-2.1-2.8c-2.9-4.7-9-7.7-9.4-13.5c-0.3,2.5,0,5.1,0.9,7.5
	c1.3,3,3.4,5.7,6.1,7.6c2.7,2.1,5.9,3.8,8.4,5.7c-0.6-1.2-1.1-2.4-1.6-3.6C29.7,78.2,30.5,71.5,28,66.1L28,66.1z M104,66.1
	c-2.5,5.4-1.7,12.1-3.1,18c-0.4,1.2-1,2.5-1.6,3.6c2.5-1.9,5.7-3.5,8.4-5.7c2.7-1.9,4.8-4.6,6.1-7.6c0.8-2.4,1.1-5,0.9-7.5
	c-0.4,5.7-6.5,8.8-9.4,13.5c-0.6,1-1.3,2-2.2,2.8c0.3-0.6,0.6-1.2,0.9-1.8c1-2.1,1.4-4.4,1.1-6.7C104.8,71.9,103.6,69.2,104,66.1
	L104,66.1z M73.8,66.2c0.1,0,0.1,0,0.1,0.2c-0.1,0.1-0.1,0.3,0,0.5c0.5-0.4,0.8,0,0.8,0.1s0.3,0.2,0.4,0.1c0.2-0.1,0.4,0.3,0.3,0.5
	c-0.1,0.2-0.7,0.2-0.7,0s-0.1-0.1-0.2,0c-0.1,0.1-0.3,0.1-0.5,0.1l-0.1-0.1c0,0,0-0.1,0-0.1s-0.1,0-0.2,0L73.4,67
	c0-0.2,0.1-0.5,0-0.6C73.4,66.3,73.6,66.2,73.8,66.2L73.8,66.2z M51.2,66.3l-0.3,0l0,0.3l0.3,0L51.2,66.3L51.2,66.3z M94.6,66.6
	c-0.1,0-0.3,0.1-0.4,0.1l0.1,0.2c0.1-0.1,0.2-0.1,0.3-0.1v0l0.2,0c0-0.1,0-0.1-0.1-0.1L94.6,66.6z M51.3,67c-0.1,0-0.1,0.1-0.1,0.1
	c0,0.1,0.1,0.1,0.1,0.1h0c0.1,0,0.1-0.1,0.1-0.1c0,0,0,0,0,0C51.5,67.1,51.4,67,51.3,67L51.3,67z M68.6,67.2c0,0.1,0,0.1,0,0.2
	l0.2,0.1l-0.3,0.3L68.2,68l-0.4-0.1l-0.4,0l-0.1-0.3l-0.3,0l0,0.5l-0.2,0.2l-0.4,0.4c0.4,0,0.1,0.2-0.1,0.3v-1.4
	c0.4,0,0.9-0.1,1.3-0.2l0.1,0.1h0.3l0-0.2C68.3,67.3,68.4,67.2,68.6,67.2L68.6,67.2z M51.6,67.7c-0.1,0-0.1,0.1-0.1,0.1c0,0,0,0,0,0
	l0,0c0,0.1,0.1,0.1,0.1,0.1c0.1,0,0.1-0.1,0.1-0.1C51.7,67.8,51.6,67.7,51.6,67.7C51.6,67.7,51.6,67.7,51.6,67.7z M64.7,67.8
	c-0.2,0-0.3,0.5-0.4,0.7c0,0,0.1,0.3,0.2,0.3c0.1,0,0.3-0.1,0.4-0.1c0.1,0,0.2-0.2,0.2-0.5c0-0.1,0-0.2,0-0.3
	C65.1,67.9,65,68.1,64.7,67.8C64.7,67.8,64.7,67.8,64.7,67.8L64.7,67.8z M50.9,68.1l-0.3,0v0.3l0.3,0V68.1L50.9,68.1z M71.8,68.1
	h0.3l0,0.2l1.1,0.1h0c0.4,0.3,0.2,0.6,0.1,0.6c-0.1,0-0.2,0.1-0.4,0.1l-0.1,0.1l-0.9,0.1l-0.1,0.4c-0.3,0-0.5,0.2-0.6,0.4
	c0,0.1,0,0.2,0,0.2c0.1,0.1,0.1,0.3,0,0.5l0.4,0.2l0.5-0.1c0.1-0.4,0.4-0.4,0.7-0.6c0.3-0.2,0.7,0.4,0.6,0.7c0,0,0,0.1,0,0.1
	c-0.5,0.4-1.1,0.7-1.7,1l0,0c-0.9,0.5-1.9,0.8-2.9,1c0,0,0,0,0,0l-0.4-0.1l0-0.5c-0.1-0.4-0.7-0.4-0.7-0.1c0,0.3-1.2,0.1-1.3,0.1v-1
	l0.4-0.4l0.8-0.2c0.1-0.4,0.4,0.1,0.4,0.1c0.4,0,0.4,0.2,0.4,0.2l0.5,0.1c0.4,0.1,0.1,0.1,0.2,0.3c0,0.2,0.2,0.1,0.2,0.1l0.1-0.5
	l0.2,0l-0.2-0.3l-0.4-0.2l-0.4-0.2c-0.3-0.4,0.1-0.3,0.4-0.3h0.5c0.2,0.3,0.4,0.6,0.5,0.9c0,0.2,0.3,0.2,0.3,0.2l0.3,0l0.1,0.3h0.3
	l0.1,0.2h0.6l0-0.3L71,71.3l0-0.4l-0.4-0.1c-0.1-0.6,0.1-0.8,0.3-0.5l0.2,0L71,69.9l0.2-0.1l-0.1-0.7L71,69v-0.3l0.9,0
	C71.7,68.6,71.7,68.4,71.8,68.1L71.8,68.1z M96.9,69.7l-0.2,0.1c0,0,0,0.1,0,0.1c0,0.1,0,0.1,0.1,0.2c0,0,0.1,0,0.1,0l0-0.2
	c0,0,0,0,0,0v0C97,69.9,96.9,69.8,96.9,69.7L96.9,69.7z M96.7,70.1l-0.2,0c0.1,0.2,0.1,0.4,0.1,0.4l0.2-0.1
	C96.8,70.4,96.8,70.3,96.7,70.1L96.7,70.1z M80.4,70.3V71h0.3v-0.7H80.4z M72.9,70.5l-0.3,0.2l0.1,0.2l0.3-0.2L72.9,70.5z M95.5,71
	c0,0.2,0,0.4,0.2,0.4l0-0.2l0,0c0-0.1,0-0.1,0-0.2L95.5,71z M67.7,71.4 M95.4,71.4c-0.1,0-0.2,0.1-0.2,0.1c-0.2,0.1-0.1,0.7,0,0.5
	c0.1-0.1,0.3,0,0.3-0.4C95.5,71.4,95.5,71.4,95.4,71.4L95.4,71.4z M73.9,71.7l0.8,0.4c0.1,0.1,0.6,0.1,0.6,0.1l0.1,0.2
	c0.2,0,0.3,0,0.5,0.2c0.2,0.2,1.1,0,1.1,0l0.3,0.2l0.4,0.1l0.6,0l0.4,0.4c-0.6,0.2-1.3,0.2-2,0.1c-0.3-0.2-0.5-0.3-0.8-0.4
	c0,0-0.6-0.5-0.7-0.3c-0.1,0.1-0.6-0.2-0.6-0.1c0,0.1-0.5-0.3-0.5-0.3l-0.7-0.2l0.5-0.1L73.9,71.7C73.8,71.7,73.8,71.7,73.9,71.7
	L73.9,71.7z M68.8,71.8l-0.3,0.2l0.1,0.1l0.1,0.2l0.3-0.4L68.8,71.8L68.8,71.8z M36.2,73.7v0.4h0.3v0.5h0.2l0-0.5l-0.3-0.1v-0.2
	L36.2,73.7L36.2,73.7z M86.9,73.9l0,0.3l0.3,0l0-0.3L86.9,73.9L86.9,73.9z M86.6,74.6l-0.1,0.2c0,0,0,0,0.1,0l0,0.2c0,0,0,0,0,0.1
	l0.1,0.1c0.1-0.1,0.1-0.2,0.1-0.4C86.8,74.8,86.7,74.7,86.6,74.6L86.6,74.6z M80.5,75.3l1.5,1.5c-0.1,0.3-0.3,0.4-0.4,0.3
	c-0.1-0.1,0.2,0.2,0.3,0.3c0.1,0.1,0.2,0.1,0.3,0.1c0,0,0.1,0,0.1-0.1c0-0.1,0.1-0.3,0.1-0.4l0.7,0.7c-0.1,0.2-0.2,0.4-0.1,0.5l0,0
	l0.3,0.1l0,0.6c0.4,0.2,0.8,0.3,1.2,0.2l0.1,0.1c-1.3,1.2-2.7,2.4-4.2,3.3v-0.3c0.6-0.5,0.7-1.3,0.1-1.3c-0.4-0.1-0.3-0.5,0.2-0.6
	l0.3-0.1v-0.3l0.8-0.7v-0.6l-1.7-1.4c-0.4-0.1-0.4-0.6-0.3-1C79.9,75.9,80.2,75.6,80.5,75.3L80.5,75.3z M37.9,75.3l0.3,0.6l0.1,0.3
	l0.3,0.4L39,77l0.1-0.3l-0.3-0.5l-0.3-0.2l-0.2-0.5L37.9,75.3L37.9,75.3z M31.1,75.8c2.1,4.2,1.2,9.6,3.9,13.6
	c0.9,1.3,2,2.4,3.2,3.4l0,0c-1-0.5-2-1.2-2.8-1.9c-4.8-4-12-4.5-14.8-11c0.8,4.8,4.6,9,8.6,11.6c3.9,2.5,8.9,2.3,13.2,3.7
	c-4-3.2-4.6-8-6.4-12.3C34.7,80.5,33.1,78,31.1,75.8L31.1,75.8z M100.9,75.8c-2,2.2-3.6,4.6-4.8,7.3c-1.8,4.2-2.4,9-6.4,12.3
	c4.3-1.4,9.3-1.1,13.2-3.7c4.1-2.7,7.8-6.9,8.6-11.6c-2.9,6.5-10.1,7-14.8,11c-0.9,0.8-1.8,1.4-2.8,1.9l0,0c1.2-1,2.2-2.2,3.2-3.4
	C99.7,85.5,98.8,80.1,100.9,75.8L100.9,75.8z M46.5,77.4c0.3,0,0.6,0.2,0.8,0.5c0.1,0.1,0.1,0.2,0.2,0.3L47,78.7
	c-0.3-0.3-0.6-0.7-0.9-1h0.1C46.2,77.5,46.3,77.4,46.5,77.4L46.5,77.4z M67,79.3c0.2,0,0.4,0.1,0.6,0.2c0.3,0.2,0.6,0.2,0.9,0.1
	l0.4,0.5c-0.8,0.1-1.6,0.2-2.5,0.2v-0.8C66.6,79.3,66.8,79.3,67,79.3L67,79.3z M85.1,79.8l4.4,4.4c-2.5,2.4-5.3,4.4-8.3,5.9
	c-4.6,2.3-9.6,3.5-14.7,3.6v-6.2c2.5,0,5-0.4,7.4-1.1l0.6,0.2l0.2,0.6l0.3,0L75,87l0.8,0l0.4-0.4l0.5-0.1l3.3-2.8
	C81.8,82.6,83.5,81.3,85.1,79.8L85.1,79.8z M69.3,80.9l0.1,0.2l0.6,0.2l0.4,0.1l0.1,0.6l0.3,0l0.1,0.4c0.4,0.3-0.1,0.9-0.1,0.9V84
	l0.3,0.1l0,0.3l0.5,0.5l0.5,0l0.9,0.9c-2.1,0.6-4.3,0.9-6.5,0.9v-5.7C67.4,81.1,68.3,81,69.3,80.9L69.3,80.9z M60.9,81.4l-0.2,0.2
	l-0.1,0.1l0.1,0.1l0.3,0.2l0.1-0.2l-0.1-0.1l0.1-0.1L60.9,81.4z M63.4,84l-0.1,0.2l0.2,0.1l-0.1,0.1l0.1,0.1l0.2-0.2l0.1-0.1
	l-0.1-0.1L63.4,84L63.4,84z M45.8,85.7l0.3,0.4l0,0.3l0.4,0.1l0.1,0.2l0.3-0.1l-0.2-0.5l-0.5-0.4L45.8,85.7L45.8,85.7z M38,86.1
	c2.6,3.5,3.3,8.6,8.1,10.4c0.9,0.2,1.7,0.5,2.5,0.8c-0.9,0.1-1.7-0.1-2.6-0.3c-6.1-1.3-13.6,0.4-18.2-4.8c1.9,3.4,5,6,8.8,7.2
	c5.3,1.8,10.9-0.2,15.9-1.4c0.7-0.2,1.6-0.1,2.3-0.4c-2.8-0.4-5.5-1.6-7.7-3.4C44.1,91.4,41.3,88.3,38,86.1L38,86.1z M94,86.1
	c-3.3,2.2-6.1,5.2-9.2,8.1c-2.2,1.8-4.8,3-7.7,3.4c0.7,0.3,1.5,0.2,2.3,0.4c5,1.3,10.6,3.2,15.9,1.4c3.7-1.2,6.9-3.8,8.8-7.2
	C99.6,97.4,92.1,95.7,86,97c-0.8,0.3-1.7,0.4-2.6,0.3c0.8-0.4,1.7-0.6,2.5-0.8C90.7,94.7,91.4,89.6,94,86.1L94,86.1z M60.9,97.5
	c-4.7,0-8.9,2.3-13,4c-3.9,1.6-8.4,1.2-12-1c1.6,1.9,3.7,3.4,6.1,4.2c4.2,1.7,9.1,0.4,12.7-1.9c2.6-1.6,4.8-4,7.8-4
	c0.5,0,1.1,0.1,1.6,0.2c-4.2,1.8-8,4.4-11.3,7.7c0.6,0.7,1.3,1.3,2,1.8c3.4-3.5,7.3-7.3,11.1-8.9c3.9,1.6,7.7,5.4,11.1,8.9
	c0.7-0.5,1.4-1.1,2-1.8c-3.2-3.2-7.1-5.8-11.3-7.7c0.5-0.1,1.1-0.2,1.6-0.2c3.1,0,5.3,2.3,7.8,4c3.6,2.3,8.5,3.6,12.7,1.9
	c2.4-0.8,4.5-2.3,6.1-4.2c-3.6,2.2-8.1,2.6-12,1c-4.1-1.7-8.3-4-13-4c-1.7,0-3.4,0.3-5.1,0.8C64.4,97.8,62.7,97.5,60.9,97.5
	L60.9,97.5z"/>
</svg>
