<svg xmlns="http://www.w3.org/2000/svg" width="94.305" height="94.414" viewBox="0 0 94.305 94.414">
  <g id="Grupo_7288" data-name="Grupo 7288" transform="translate(-708.451 -1197.491)">
    <g id="Grupo_7286" data-name="Grupo 7286">
      <path id="Trazado_16240" data-name="Trazado 16240" d="M756.075,1197.491h-.943a46.681,46.681,0,0,0-46.681,46.681v1.053c0,.988.041,1.967.1,2.94a46.676,46.676,0,0,0,46.578,43.74h.945a46.657,46.657,0,0,0,46.68-46.68v-1.052A46.681,46.681,0,0,0,756.075,1197.491Z" fill="#e74835"/>
      <path id="Trazado_16241" data-name="Trazado 16241" d="M775.578,1256.511l-18.346-1.746,7.908-15.459L747.118,1209.6l-38.565,38.565a46.676,46.676,0,0,0,46.578,43.74h.945a46.652,46.652,0,0,0,13.583-2.014l16.288-16.288Z" opacity="0.2"/>
    </g>
    <g id="Grupo_7287" data-name="Grupo 7287">
      <rect id="Rectángulo_1633" data-name="Rectángulo 1633" width="9.375" height="13.452" transform="translate(751.443 1245.061)" fill="#bd8779"/>
      <path id="Trazado_16242" data-name="Trazado 16242" d="M760.818,1252.484l-9.375.047c-.2-.226-.473-.051-.773,0h-.01a.89.89,0,0,0-.687.585l-5.647,16.371c-.2.575.229,4.118.838,4.118h22.768c.617,0,1.044-3.568.832-4.145l-6.025-16.322a.887.887,0,0,0-.7-.569l-.411-.064C761.332,1252.46,761.017,1252.255,760.818,1252.484Z" fill="#d1fff4"/>
      <path id="Trazado_16243" data-name="Trazado 16243" d="M742.91,1230.227c-1.152,4.668.449,14.129,6.724,17.1h12.854c7-3.631,7.96-14.087,6.877-17.015-3.46-2.348-12.111-5.29-12.111-5.29S745.513,1227.968,742.91,1230.227Z" fill="#5e3324"/>
      <path id="Trazado_16244" data-name="Trazado 16244" d="M750.168,1273.606l-23.805,0s-.708-8.862,3.966-16.127c0-3.589,19.839-6.784,19.839-6.784Z" fill="#1f1f1f"/>
      <path id="Trazado_16245" data-name="Trazado 16245" d="M762.115,1273.608l23.832-.005s.687-8.911-3.988-16.174c0-3.591-19.844-6.784-19.844-6.784Z" fill="#1f1f1f"/>
      <path id="Trazado_16246" data-name="Trazado 16246" d="M743.532,1234.828a4.049,4.049,0,0,1-1.632-7.877C743.838,1226.551,745.475,1234.422,743.532,1234.828Z" fill="#ffb7a4"/>
      <path id="Trazado_16247" data-name="Trazado 16247" d="M768.495,1234.828a4.049,4.049,0,0,0,1.632-7.877C768.189,1226.551,766.555,1234.422,768.495,1234.828Z" fill="#ffb7a4"/>
      <path id="Trazado_16248" data-name="Trazado 16248" d="M756.111,1249.223c16.074,0,13.5-27.577,13.5-27.577s-.66-9.039-13.155-9.039a13.763,13.763,0,0,0-13.575,9.262S739.926,1249.223,756.111,1249.223Z" fill="#ffb7a4"/>
      <path id="Trazado_16249" data-name="Trazado 16249" d="M741.143,1227.212c1.314-.293,2.722,2.212,2.722,2.212l.54-9.563s5.915,4.135,21.107,1.99c-.438-3.343,2.111-2.02,2.111-2.02s1.143,10.459,1.1,10.058c.687-2.692,2.6-2.418,2.6-2.418s6.915-20.4-16.26-20.4c-7.9,0-8.233,2.813-10.656,6.342C736.9,1215.182,741.124,1226.892,741.143,1227.212Z" fill="#5e3324"/>
      <path id="Trazado_16250" data-name="Trazado 16250" d="M756.454,1254.165l4.066,3.135a.266.266,0,0,0,.418-.136l1.783-6.14a.267.267,0,0,0-.035-.223l-1.277-1.888a.264.264,0,0,0-.414-.032l-4.572,4.892A.266.266,0,0,0,756.454,1254.165Z" fill="#d1fff4"/>
      <path id="Trazado_16251" data-name="Trazado 16251" d="M755.911,1254.165l-4.065,3.135a.266.266,0,0,1-.418-.136l-1.783-6.14a.267.267,0,0,1,.035-.223l1.276-1.888a.266.266,0,0,1,.416-.032l4.572,4.892A.265.265,0,0,1,755.911,1254.165Z" fill="#d1fff4"/>
      <path id="Trazado_16252" data-name="Trazado 16252" d="M756.016,1240.889c-.856,1.283-6.843,1.283-6.843,1.283l.264-.825a3.939,3.939,0,0,1,3.752-2.738h2.827Z" fill="#5e3324"/>
      <path id="Trazado_16253" data-name="Trazado 16253" d="M756.016,1240.889c.855,1.283,6.842,1.283,6.842,1.283l-.264-.825a3.939,3.939,0,0,0-3.752-2.738h-2.826Z" fill="#5e3324"/>
    </g>
  </g>
</svg>
