<svg xmlns="http://www.w3.org/2000/svg" width="94.306" height="94.415" viewBox="0 0 94.306 94.415">
  <g id="Grupo_7253" data-name="Grupo 7253" transform="translate(-127.243 -693.533)">
    <g id="Grupo_7249" data-name="Grupo 7249">
      <path id="Trazado_16161" data-name="Trazado 16161" d="M174.868,693.533h-.944a46.681,46.681,0,0,0-46.681,46.68v1.054a46.708,46.708,0,0,0,46.681,46.681h.944a46.679,46.679,0,0,0,46.681-46.681v-1.054A46.68,46.68,0,0,0,174.868,693.533Z" fill="#60ab46"/>
      <path id="Trazado_16162" data-name="Trazado 16162" d="M206.228,755.159l-20.75-20.5L170.811,721.7l6.209-16.038-2.483-3.381-46.656,46.656a46.685,46.685,0,0,0,46.043,39.014h.944a46.934,46.934,0,0,0,7.394-.589l29.8-29.8Z" opacity="0.2"/>
    </g>
    <g id="Grupo_7252" data-name="Grupo 7252">
      <g id="Grupo_7250" data-name="Grupo 7250">
        <rect id="Rectángulo_1588" data-name="Rectángulo 1588" width="4.196" height="46.099" transform="translate(173.857 725.398) rotate(-45.001)" fill="#663f30"/>
        <rect id="Rectángulo_1589" data-name="Rectángulo 1589" width="4.196" height="1.794" transform="translate(202.794 754.334) rotate(-44.999)" fill="#8f6655"/>
        <rect id="Rectángulo_1590" data-name="Rectángulo 1590" width="4.196" height="1.794" transform="translate(200.677 752.216) rotate(-44.999)" fill="#8f6655"/>
        <rect id="Rectángulo_1591" data-name="Rectángulo 1591" width="4.196" height="3.876" transform="translate(173.858 725.397) rotate(-44.999)" fill="#523226"/>
        <rect id="Rectángulo_1592" data-name="Rectángulo 1592" width="9.371" height="3.707" rx="1.783" transform="translate(204.625 759.824) rotate(-45)" fill="#663f30"/>
        <path id="Trazado_16163" data-name="Trazado 16163" d="M205.984,761.183l-.1-.1a1.782,1.782,0,0,1,0-2.522l4.1-4.1a1.784,1.784,0,0,1,2.522,0l.1.1Z" fill="#523226"/>
        <rect id="Rectángulo_1593" data-name="Rectángulo 1593" width="9.371" height="3.707" rx="1.783" transform="translate(170.718 725.917) rotate(-45)" fill="#663f30"/>
        <path id="Trazado_16164" data-name="Trazado 16164" d="M172.077,727.276l-.1-.1a1.782,1.782,0,0,1,0-2.522l4.1-4.1a1.784,1.784,0,0,1,2.522,0l.1.1Z" fill="#523226"/>
        <rect id="Rectángulo_1594" data-name="Rectángulo 1594" width="21.68" height="12.122" transform="translate(157.795 721.697) rotate(-45)" fill="#663f30"/>
        <path id="Rectángulo_1595" data-name="Rectángulo 1595" d="M1.951,0h.036A1.947,1.947,0,0,1,3.934,1.947V14a1.947,1.947,0,0,1-1.947,1.947H1.947A1.947,1.947,0,0,1,0,14V1.951A1.951,1.951,0,0,1,1.951,0Z" transform="translate(173.312 703.468) rotate(-44.897)" fill="#663f30"/>
        <path id="Rectángulo_1596" data-name="Rectángulo 1596" d="M1.947,0H1.99A1.944,1.944,0,0,1,3.934,1.944V14a1.947,1.947,0,0,1-1.947,1.947H1.947A1.947,1.947,0,0,1,0,14V1.947A1.947,1.947,0,0,1,1.947,0Z" transform="translate(152.134 724.646) rotate(-44.897)" fill="#663f30"/>
        <rect id="Rectángulo_1597" data-name="Rectángulo 1597" width="2.168" height="12.122" transform="translate(173.124 706.367) rotate(-45)" fill="#8f6655"/>
        <rect id="Rectángulo_1598" data-name="Rectángulo 1598" width="2.168" height="12.122" transform="translate(156.262 723.23) rotate(-45)" fill="#8f6655"/>
      </g>
      <g id="Grupo_7251" data-name="Grupo 7251">
        <path id="Trazado_16165" data-name="Trazado 16165" d="M165.54,758.785H143.7v-.022c0-1.223,1.864-2.215,4.164-2.215h13.51c2.3,0,4.165.992,4.165,2.215Z" fill="#663f30"/>
        <rect id="Rectángulo_1599" data-name="Rectángulo 1599" width="21.839" height="1.457" transform="translate(143.701 758.763)" fill="#8f6655"/>
        <path id="Trazado_16166" data-name="Trazado 16166" d="M168.068,763.336h-26.9V763.3c0-1.683.979-3.048,2.187-3.048h22.522c1.208,0,2.187,1.365,2.187,3.048Z" fill="#663f30"/>
        <rect id="Rectángulo_1600" data-name="Rectángulo 1600" width="26.896" height="1.942" transform="translate(141.172 763.336)" fill="#40271e"/>
      </g>
      <path id="Trazado_16167" data-name="Trazado 16167" d="M154.62,748.177a1.107,1.107,0,0,1-1.106-1.107v-7.281a1.106,1.106,0,1,1,2.212,0v7.281A1.107,1.107,0,0,1,154.62,748.177Z" fill="#ffab45"/>
      <path id="Trazado_16168" data-name="Trazado 16168" d="M164.219,751.718a1.106,1.106,0,0,1,0-1.564l5.149-5.149a1.106,1.106,0,0,1,1.564,1.564l-5.149,5.149A1.106,1.106,0,0,1,164.219,751.718Z" fill="#ffab45"/>
      <path id="Trazado_16169" data-name="Trazado 16169" d="M145.328,752.46a1.106,1.106,0,0,1-1.564,0l-5.149-5.149a1.106,1.106,0,0,1,1.565-1.564l5.148,5.149A1.106,1.106,0,0,1,145.328,752.46Z" fill="#ffab45"/>
    </g>
  </g>
</svg>
