<svg xmlns="http://www.w3.org/2000/svg" width="94.306" height="94.414" viewBox="0 0 94.306 94.414">
  <g id="Grupo_7263" data-name="Grupo 7263" transform="translate(-417.847 -693.533)">
    <g id="Grupo_7254" data-name="Grupo 7254">
      <path id="Trazado_16170" data-name="Trazado 16170" d="M465.471,693.533h-.943a46.7,46.7,0,0,0-46.681,46.681v1.053a46.68,46.68,0,0,0,46.681,46.68h.943a46.682,46.682,0,0,0,46.682-46.681v-1.051A46.682,46.682,0,0,0,465.471,693.533Z" fill="#963e3e"/>
      <path id="Trazado_16171" data-name="Trazado 16171" d="M433.062,715.656l-14,14a46.787,46.787,0,0,0-1.214,10.557v1.053a46.68,46.68,0,0,0,46.681,46.68h.943a46.607,46.607,0,0,0,15.212-2.548l20.624-20.625Z" opacity="0.2"/>
    </g>
    <g id="Grupo_7262" data-name="Grupo 7262">
      <rect id="Rectángulo_1601" data-name="Rectángulo 1601" width="52.75" height="35.857" transform="translate(440.699 722.286)" fill="#1c1c1c"/>
      <g id="Grupo_7259" data-name="Grupo 7259">
        <rect id="Rectángulo_1602" data-name="Rectángulo 1602" width="3.744" height="35.857" transform="translate(449.389 722.286)" fill="#696969"/>
        <rect id="Rectángulo_1603" data-name="Rectángulo 1603" width="3.744" height="35.857" transform="translate(465 722.286)" fill="#696969"/>
        <rect id="Rectángulo_1604" data-name="Rectángulo 1604" width="3.744" height="35.857" transform="translate(480.524 722.286)" fill="#696969"/>
        <g id="Grupo_7255" data-name="Grupo 7255">
          <rect id="Rectángulo_1605" data-name="Rectángulo 1605" width="68.119" height="6.631" transform="translate(433.062 715.656)" fill="#ccc"/>
          <circle id="Elipse_728" data-name="Elipse 728" cx="1.283" cy="1.283" r="1.283" transform="translate(447.43 717.688)" fill="#8c8c8c"/>
          <circle id="Elipse_729" data-name="Elipse 729" cx="1.283" cy="1.283" r="1.283" transform="translate(459.183 717.688)" fill="#8c8c8c"/>
          <circle id="Elipse_730" data-name="Elipse 730" cx="1.283" cy="1.283" r="1.283" transform="translate(471.663 717.688)" fill="#8c8c8c"/>
          <circle id="Elipse_731" data-name="Elipse 731" cx="1.283" cy="1.283" r="1.283" transform="translate(484.144 717.688)" fill="#8c8c8c"/>
        </g>
        <g id="Grupo_7256" data-name="Grupo 7256">
          <rect id="Rectángulo_1606" data-name="Rectángulo 1606" width="68.119" height="6.631" transform="translate(433.062 758.144)" fill="#ccc"/>
          <circle id="Elipse_732" data-name="Elipse 732" cx="1.283" cy="1.283" r="1.283" transform="translate(447.43 760.176)" fill="#8c8c8c"/>
          <circle id="Elipse_733" data-name="Elipse 733" cx="1.283" cy="1.283" r="1.283" transform="translate(459.183 760.176)" fill="#8c8c8c"/>
          <circle id="Elipse_734" data-name="Elipse 734" cx="1.283" cy="1.283" r="1.283" transform="translate(471.663 760.176)" fill="#8c8c8c"/>
          <circle id="Elipse_735" data-name="Elipse 735" cx="1.283" cy="1.283" r="1.283" transform="translate(484.144 760.176)" fill="#8c8c8c"/>
        </g>
        <g id="Grupo_7257" data-name="Grupo 7257">
          <rect id="Rectángulo_1607" data-name="Rectángulo 1607" width="6.25" height="35.857" transform="translate(434.449 722.286)" fill="#858585"/>
          <rect id="Rectángulo_1608" data-name="Rectángulo 1608" width="6.25" height="3.963" transform="translate(434.449 722.286)" fill="#666"/>
          <rect id="Rectángulo_1609" data-name="Rectángulo 1609" width="6.25" height="3.963" transform="translate(434.449 754.181)" fill="#666"/>
        </g>
        <g id="Grupo_7258" data-name="Grupo 7258">
          <rect id="Rectángulo_1610" data-name="Rectángulo 1610" width="6.25" height="35.857" transform="translate(493.449 722.286)" fill="#858585"/>
          <rect id="Rectángulo_1611" data-name="Rectángulo 1611" width="6.25" height="3.963" transform="translate(493.449 722.286)" fill="#666"/>
          <rect id="Rectángulo_1612" data-name="Rectángulo 1612" width="6.25" height="3.963" transform="translate(493.449 754.181)" fill="#666"/>
        </g>
      </g>
      <g id="Grupo_7260" data-name="Grupo 7260">
        <rect id="Rectángulo_1613" data-name="Rectángulo 1613" width="3.467" height="7.211" rx="0.936" transform="translate(454.745 732.596)" fill="#b07e71"/>
        <path id="Trazado_16172" data-name="Trazado 16172" d="M454.679,746.428h-8.237a2.132,2.132,0,0,1-2.132-2.132v-10.92a2.132,2.132,0,0,1,2.132-2.132h8.541a1.752,1.752,0,0,1,1.345.629l.177.213a1.48,1.48,0,0,1,.056,1.826l-.758,1.032.824,1.092a1.482,1.482,0,0,1,.065,1.693l-.889,1.384.7.819a1.482,1.482,0,0,1,.1,1.8l-.8,1.174.618.674a1.482,1.482,0,0,1,.1,1.887l-.043.057A2.238,2.238,0,0,1,454.679,746.428Z" fill="#ffb7a4"/>
        <path id="Trazado_16173" data-name="Trazado 16173" d="M455.439,734.953l-6.266-.208v.624Z" fill="#b07e71"/>
        <path id="Trazado_16174" data-name="Trazado 16174" d="M455.439,739.044l-6.266-.208v.624Z" fill="#b07e71"/>
        <path id="Trazado_16175" data-name="Trazado 16175" d="M455.439,742.866l-6.266-.208v.624Z" fill="#b07e71"/>
      </g>
      <g id="Grupo_7261" data-name="Grupo 7261">
        <rect id="Rectángulo_1614" data-name="Rectángulo 1614" width="3.467" height="7.211" rx="0.936" transform="translate(474.682 737.552)" fill="#b07e71"/>
        <path id="Trazado_16176" data-name="Trazado 16176" d="M478.215,751.385h8.237a2.132,2.132,0,0,0,2.132-2.132v-10.92a2.132,2.132,0,0,0-2.132-2.133h-8.54a1.75,1.75,0,0,0-1.345.63l-.178.212a1.481,1.481,0,0,0-.056,1.827l.759,1.032-.824,1.092a1.482,1.482,0,0,0-.065,1.693l.889,1.384-.7.819a1.482,1.482,0,0,0-.1,1.8l.8,1.174-.618.674a1.481,1.481,0,0,0-.1,1.886l.043.058A2.236,2.236,0,0,0,478.215,751.385Z" fill="#ffb7a4"/>
        <path id="Trazado_16177" data-name="Trazado 16177" d="M477.456,739.91l6.266-.208v.624Z" fill="#b07e71"/>
        <path id="Trazado_16178" data-name="Trazado 16178" d="M477.456,744l6.266-.208v.624Z" fill="#b07e71"/>
        <path id="Trazado_16179" data-name="Trazado 16179" d="M477.456,747.823l6.266-.208v.624Z" fill="#b07e71"/>
      </g>
    </g>
  </g>
</svg>
