<svg xmlns="http://www.w3.org/2000/svg" width="94.305" height="94.414" viewBox="0 0 94.305 94.414">
  <g id="Grupo_7285" data-name="Grupo 7285" transform="translate(-417.847 -1197.491)">
    <g id="Grupo_7282" data-name="Grupo 7282">
      <path id="Trazado_16232" data-name="Trazado 16232" d="M465.472,1197.491h-.944a46.758,46.758,0,0,0-46.681,46.681v1.053c0,1.47.077,2.922.21,4.357a46.673,46.673,0,0,0,45.63,42.3c.281.005.559.021.841.021h.944a46.716,46.716,0,0,0,46.68-46.68v-1.054A46.68,46.68,0,0,0,465.472,1197.491Z" fill="#5599d9"/>
      <path id="Trazado_16233" data-name="Trazado 16233" d="M455.6,1214.054l-5.729,5.729-10.271-3.062-21.341,21.341a47,47,0,0,0-.411,6.11v1.053c0,1.47.077,2.922.21,4.357a46.673,46.673,0,0,0,45.63,42.3c.281.005.559.021.841.021h.944a47.063,47.063,0,0,0,6.532-.464l19.72-19.72Z" opacity="0.2"/>
    </g>
    <g id="Grupo_7284" data-name="Grupo 7284">
      <path id="Trazado_16234" data-name="Trazado 16234" d="M464.849,1279.8l-4.625-3.125L455.6,1279.8v-65.75h9.25Z" fill="#d43a3a"/>
      <rect id="Rectángulo_1625" data-name="Rectángulo 1625" width="45" height="55" transform="translate(446.724 1216.721)" fill="#663f30"/>
      <path id="Trazado_16235" data-name="Trazado 16235" d="M486.409,1219.3H451.914a2.94,2.94,0,0,1-2.94,2.94v43.62a2.94,2.94,0,0,1,2.94,2.94h34.495a2.94,2.94,0,0,1,2.94-2.94v-43.62A2.94,2.94,0,0,1,486.409,1219.3Zm1.818,45.349a2.776,2.776,0,0,0-2.776,2.776H452.872a2.776,2.776,0,0,0-2.777-2.776v-41.2a2.777,2.777,0,0,0,2.777-2.777h32.579a2.776,2.776,0,0,0,2.776,2.777Z" fill="#47281b"/>
      <rect id="Rectángulo_1626" data-name="Rectángulo 1626" width="1.333" height="55" transform="translate(445.391 1216.721)" fill="#452b20"/>
      <rect id="Rectángulo_1627" data-name="Rectángulo 1627" width="5.792" height="55" transform="translate(439.599 1216.721)" fill="#663f30"/>
      <rect id="Rectángulo_1628" data-name="Rectángulo 1628" width="4.125" height="8.625" transform="translate(439.599 1231.656)" fill="#875f4f"/>
      <rect id="Rectángulo_1629" data-name="Rectángulo 1629" width="5.792" height="2.75" transform="translate(439.599 1259.971)" fill="#40271e"/>
      <rect id="Rectángulo_1630" data-name="Rectángulo 1630" width="5.792" height="2.75" transform="translate(439.599 1264.471)" fill="#40271e"/>
      <rect id="Rectángulo_1631" data-name="Rectángulo 1631" width="5.792" height="2.75" transform="translate(439.599 1222.054)" fill="#40271e"/>
      <rect id="Rectángulo_1632" data-name="Rectángulo 1632" width="5.792" height="2.75" transform="translate(439.599 1226.554)" fill="#40271e"/>
      <g id="Grupo_7283" data-name="Grupo 7283">
        <path id="Trazado_16236" data-name="Trazado 16236" d="M459.63,1231.526h1.529v5.457h2.678v1.28H459.63Z" fill="#d48e3a"/>
        <path id="Trazado_16237" data-name="Trazado 16237" d="M466.369,1236.534l-.48,1.729H464.31l2.059-6.737h2l2.089,6.737h-1.64l-.519-1.729Zm1.709-1.14-.42-1.429c-.12-.4-.24-.9-.34-1.3h-.02c-.1.4-.2.909-.309,1.3l-.4,1.429Z" fill="#d48e3a"/>
        <path id="Trazado_16238" data-name="Trazado 16238" d="M471.859,1238.263l-1.6-6.737h1.629l.509,2.779c.15.8.29,1.669.4,2.349h.02c.11-.73.27-1.54.44-2.369l.57-2.759h1.619l.54,2.839c.15.789.26,1.509.359,2.258h.02c.1-.749.25-1.539.39-2.338l.55-2.759h1.549l-1.739,6.737h-1.649l-.57-2.9c-.13-.679-.24-1.309-.319-2.078h-.02c-.121.759-.23,1.4-.391,2.078l-.639,2.9Z" fill="#d48e3a"/>
      </g>
      <path id="Trazado_16239" data-name="Trazado 16239" d="M481.164,1243.8H457.159v-.5a2.781,2.781,0,0,0-2.779-2.779h-.5v-10.692h.5a2.781,2.781,0,0,0,2.779-2.779v-.5h24.005v.5a2.781,2.781,0,0,0,2.779,2.779h.5v10.692h-.5a2.781,2.781,0,0,0-2.779,2.779Zm-23.038-1H480.2a3.787,3.787,0,0,1,3.247-3.246V1230.8a3.789,3.789,0,0,1-3.247-3.247h-22.07a3.787,3.787,0,0,1-3.246,3.247v8.757A3.785,3.785,0,0,1,458.126,1242.8Z" fill="#d48e3a"/>
    </g>
  </g>
</svg>
