<svg xmlns="http://www.w3.org/2000/svg" width="252.545" height="266.3" viewBox="0 0 252.545 266.3">
  <g id="Grupo_7412" data-name="Grupo 7412" transform="translate(-6772.555 -946.3)">
    <path id="Trazado_18157" data-name="Trazado 18157" d="M927.8,1670.3c.7-.3,1.5-.6,2.2-.9V1686c-10.5,3.7-14.5,1.7-16.5-1.4C910.9,1680.7,912.1,1677.1,927.8,1670.3Zm-13.1-67.5c3-1.2,5.7-.2,11.4,12.2,1.2,2.6,2.5,5.9,3.9,9.4v16.9c-5.6-6.8-11.5-15.3-14.2-21.6C910.1,1607.1,912,1604,914.7,1602.8Zm-58.1,7.5c1.6-2.5,4.6-3,16.3,4,8.1,5,20.8,14.5,28.2,19.4,3.9,1.7,7.8,3.3,11.7,4.9-4.5-5.9-10.5-15-12.9-21-4-9.9-2.5-12.2-.3-12.9s4.5.2,8.5,9.9c2.8,6.8,6.1,18.8,8.2,25.4,4.6,1.7,9.2,3.3,13.8,4.7v2.9c-4.9-1.6-9.7-3.4-14.5-5.3-5.4,3.8-15.9,10.1-23.2,12.1-10.5,3-13.4,1.2-14.5-1.2-1.2-2.6-.2-4.9,10.2-7.7,6.5-1.8,17-3.3,24-4.7-3.5-1.4-6.9-3-10.4-4.6-8.1-1.8-24.8-7-33.7-12.6-12.3-7.3-12.9-11-11.4-13.3Zm45.8,46.6c7.4-2.4,18.8-5,27.6-7.4v6.8c-6.6,4.7-14.7,9.7-21.1,12-13.6,4.8-17.7,2.7-19.4-.6-1.9-3.3-.6-6.3,12.9-10.8Z" transform="translate(6095 -594.4)" fill="#eaeaea"/>
    <path id="Trazado_18158" data-name="Trazado 18158" d="M927.8,1670.3c.7-.3,1.5-.6,2.2-.9V1686c-10.5,3.7-14.5,1.7-16.5-1.4C910.9,1680.7,912.1,1677.1,927.8,1670.3Zm-13.1-67.5c3-1.2,5.7-.2,11.4,12.2,1.2,2.6,2.5,5.9,3.9,9.4v16.9c-5.6-6.8-11.5-15.3-14.2-21.6C910.1,1607.1,912,1604,914.7,1602.8Zm-58.1,7.5c1.6-2.5,4.6-3,16.3,4,8.1,5,20.8,14.5,28.2,19.4,3.9,1.7,7.8,3.3,11.7,4.9-4.5-5.9-10.5-15-12.9-21-4-9.9-2.5-12.2-.3-12.9s4.5.2,8.5,9.9c2.8,6.8,6.1,18.8,8.2,25.4,4.6,1.7,9.2,3.3,13.8,4.7v2.9c-4.9-1.6-9.7-3.4-14.5-5.3-5.4,3.8-15.9,10.1-23.2,12.1-10.5,3-13.4,1.2-14.5-1.2-1.2-2.6-.2-4.9,10.2-7.7,6.5-1.8,17-3.3,24-4.7-3.5-1.4-6.9-3-10.4-4.6-8.1-1.8-24.8-7-33.7-12.6-12.3-7.3-12.9-11-11.4-13.3Zm45.8,46.6c7.4-2.4,18.8-5,27.6-7.4v6.8c-6.6,4.7-14.7,9.7-21.1,12-13.6,4.8-17.7,2.7-19.4-.6-1.9-3.3-.6-6.3,12.9-10.8Z" transform="translate(6095 -594.4)" fill="#eaeaea"/>
    <path id="Trazado_18159" data-name="Trazado 18159" d="M810.1,1650c2.5-7.3,19.5-2.4,30.8-.3,12,2.1-4.7-19,11-13.9,17.5,5.3,34.5,34.1,42.9,37.5,9.6,4.1,2.2-24.3,24.9,1.3a85.543,85.543,0,0,1,10.4,16.8V1763a148.641,148.641,0,0,0-9.5-29.9,130.365,130.365,0,0,0-58.5-64.3c24.6,17.6,69.3,63.3,66.3,102.4a158.711,158.711,0,0,1-.2,35.8c-7.4-11.1-18.7-25.7-31.8-33.5a29.334,29.334,0,0,0-11.5-3.7c-2.6-7.4-4.3-13.1-5.2-15.5.9-13.1,17.5,3.4,23.2-1.4,7.6-11.4-49.9-42-55.2-41.8-5.6-6.8,24.2-13.8,12.6-18.7-12.1-6.7-44.2-10.3-42.6-15.2,1.5-6.4,20-7.2,17-11.4C831.7,1660.5,808,1656.5,810.1,1650Z" transform="translate(6095 -594.4)" fill="#373454"/>
    <path id="Trazado_18160" data-name="Trazado 18160" d="M894.8,1717.6c6.6-.1,10.3,3.7,9.9,31.8-.4,15-2.1,38.4-2.8,57.5H890.3c-5.5-18.3-9.8-41-9.2-56C882.2,1722.1,888.8,1717.9,894.8,1717.6Zm-119.2,11.6c12.1,3.9,30.6,11.9,43.3,16.4-5.5-7.3-10.5-14.9-15.4-22.6-9.6-.2-27.2-1.7-37.6-5.4-14.8-5.4-16.8-9.9-16-13.8.8-4.1,3.9-6,18.6-.4,9.1,3.4,22.8,10.6,32.2,14.9-2.9-4.7-5.6-9.4-8.3-14.2-8-8.9-23.2-29.3-29-43.4-8-19-5.6-23.8-1.8-25.3,4-1.6,8,.4,15.7,18.6,5.2,12.7,12.2,34.7,16.7,46.7,3.1,5.3,6.3,10.5,9.7,15.8-.3-10.8.4-26.6,2.7-35.8,3.7-15,7.5-16.4,10.6-15.4,3.4,1,5.3,4,1.6,18.8-2.5,10.3-8.8,27.2-12,36.8,5,7.6,10.3,14.9,15.7,22.1-1.5-14-1.6-34.2.9-46.2,4.1-19.6,8.9-21.7,13.1-20.8,4.5,1.2,6.8,4.6,3.1,24-2.7,13.3-9.5,35.7-12.7,48.7,7.7,9.7,15.8,18.9,24.2,27.9-3.3-16.5-5.6-39.9-3.7-54.2,3.2-23.5,8.7-26.4,13.8-25.9,5.4.7,8.3,4.5,5.6,27.4-1.9,15.9-7.4,42.9-9.7,58.7,8.5,8.6,17.3,16.6,26.4,24.2h-9.6c-7-6.5-13.9-13.1-20.5-20.1-14.9,3.1-42.2,5.7-59.2,2.5-24.7-4.7-28.9-11.8-28.6-18.2.3-6.7,4.8-10,29-4.7,14.6,3.2,37.3,10.3,52.8,13.9-8.3-9.2-16.3-18.8-23.9-28.8-12.5,1-35.7.8-49.6-3.3-20.1-5.9-23.1-11.9-22.3-17.2.4-5.4,4.5-7.9,24.2-1.7Z" transform="translate(6095 -594.4)" fill="#cecece"/>
    <path id="Trazado_18161" data-name="Trazado 18161" d="M841.2,1806.9h-6.8a45.831,45.831,0,0,1,4.6-4.2A32.931,32.931,0,0,1,841.2,1806.9ZM743,1768.4c-10.3-1-18.6-23.8-18.4-23.8s13.6-4.7,23.5-.4c4.4,1.9,8,5.7,10.7,9.2-3.8-8.7-7.3-17.2-10.9-25.2-3.7-3.1-9-8.4-11.8-14.7-4.5-10.2,3.5-25.7,3.6-25.6s9.1,11.1,12.1,21.4c1.8,6.6.8,13.2.1,17.4,1.5,3.4,3,6.8,4.6,10.4a35.16,35.16,0,0,1-.9-9.1c.5-10.8,13.9-15.8,13.9-15.8s3.3,14.6,1.5,24.4c-1.5,7.5-6.5,12.2-8.6,14.3,2.8,6.8,5.8,13.7,9,20.6a39.336,39.336,0,0,1-.6-4.8c-.6-12.7,14.9-20.4,14.9-20.3s5.5,16.4,4.5,28.2c-.8,8.6-5.9,14.8-8.3,17.8,2.7,5,5.6,9.8,8.6,14.5h-4.7c-1-1.6-2-3.2-2.9-4.8a55.3,55.3,0,0,1-7.1,4.8H755.4c-6.9-6-12.4-17.1-12.3-17.1s13-6.3,23.2-3.3c5.1,1.5,9.5,5.4,12.7,8.8-5.9-10.8-11.2-22-16-33C758.6,1764.7,750.3,1769.3,743,1768.4Zm71.2,18.9a123.976,123.976,0,0,1,7.1,19.6H800c1.7-11.3,14.1-19.7,14.2-19.6Z" transform="translate(6095 -594.4)" fill="#373454"/>
    <path id="Trazado_18162" data-name="Trazado 18162" d="M759.7,1790.4c3.1,2,5,6.1,1.4,16.5H744.5c.3-.7.6-1.5.9-2.2C752.2,1789.1,755.9,1787.9,759.7,1790.4Zm-64.9,2.3c6.3,2.8,14.7,8.7,21.6,14.2H699.5c-3.5-1.4-6.8-2.7-9.4-3.9-12.4-5.7-13.3-8.4-12.2-11.4,1.3-2.7,4.3-4.5,16.9,1.1Zm4-47.9c5.5,8.9,10.8,25.7,12.6,33.7,1.6,3.5,3.1,6.9,4.6,10.4,1.3-7,2.9-17.5,4.6-24,2.9-10.4,5.1-11.4,7.7-10.2,2.5,1.1,4.2,4.1,1.2,14.5-2.1,7.3-8.4,17.8-12.2,23.2,1.9,4.8,3.7,9.7,5.3,14.5h-2.9c-1.5-4.6-3.1-9.2-4.7-13.8-6.6-2.1-18.6-5.4-25.4-8.2-9.7-3.9-10.7-6.2-9.9-8.5s3-3.7,12.9.3c6,2.4,15.1,8.3,21,12.9-1.6-4-3.2-7.8-4.9-11.7-4.8-7.4-14.4-20.1-19.3-28.2-7.1-11.6-6.6-14.7-4-16.3s6-.8,13.4,11.4Zm44.1,21.6c3.2,1.7,5.4,5.8.6,19.4-2.2,6.4-7.2,14.5-12,21.1h-6.8c2.3-8.8,5-20.2,7.4-27.6,4.4-13.4,7.4-14.7,10.8-12.9Z" transform="translate(6095 -594.4)" fill="#eaeaea"/>
    <path id="Trazado_18163" data-name="Trazado 18163" d="M759.7,1790.4c3.1,2,5,6.1,1.4,16.5H744.5c.3-.7.6-1.5.9-2.2C752.2,1789.1,755.9,1787.9,759.7,1790.4Zm-64.9,2.3c6.3,2.8,14.7,8.7,21.6,14.2H699.5c-3.5-1.4-6.8-2.7-9.4-3.9-12.4-5.7-13.3-8.4-12.2-11.4,1.3-2.7,4.3-4.5,16.9,1.1Zm4-47.9c5.5,8.9,10.8,25.7,12.6,33.7,1.6,3.5,3.1,6.9,4.6,10.4,1.3-7,2.9-17.5,4.6-24,2.9-10.4,5.1-11.4,7.7-10.2,2.5,1.1,4.2,4.1,1.2,14.5-2.1,7.3-8.4,17.8-12.2,23.2,1.9,4.8,3.7,9.7,5.3,14.5h-2.9c-1.5-4.6-3.1-9.2-4.7-13.8-6.6-2.1-18.6-5.4-25.4-8.2-9.7-3.9-10.7-6.2-9.9-8.5s3-3.7,12.9.3c6,2.4,15.1,8.3,21,12.9-1.6-4-3.2-7.8-4.9-11.7-4.8-7.4-14.4-20.1-19.3-28.2-7.1-11.6-6.6-14.7-4-16.3s6-.8,13.4,11.4Zm44.1,21.6c3.2,1.7,5.4,5.8.6,19.4-2.2,6.4-7.2,14.5-12,21.1h-6.8c2.3-8.8,5-20.2,7.4-27.6,4.4-13.4,7.4-14.7,10.8-12.9Z" transform="translate(6095 -594.4)" fill="#eaeaea"/>
    <g id="Grupo_7411" data-name="Grupo 7411" transform="translate(6095 -594.4)">
      <g id="Grupo_7381" data-name="Grupo 7381">
        <path id="Trazado_18165" data-name="Trazado 18165" d="M777.3,1806.9v-21.3a2.92,2.92,0,0,0-.2-.9,2.187,2.187,0,0,0-.3-.5h0a2.658,2.658,0,0,0-2.1-1H762.2a2.619,2.619,0,0,0-2.6,2.4v21.3h17.7Z" fill="#081b26"/>
        <path id="Trazado_18166" data-name="Trazado 18166" d="M869.3,1806.9h-98c0-4.9,0-9.4.1-13.4,0-1.3.1-2.6.1-3.9h0c.1-1.9.2-3.7.2-5.4h95.7v.1c0,.4.2,3,.6,7.3,0,.3.1.7.1,1C868.5,1796.3,868.9,1801.2,869.3,1806.9Z" fill="#113347"/>
        <g id="Grupo_7378" data-name="Grupo 7378">
          <path id="Trazado_18167" data-name="Trazado 18167" d="M771.8,1784.2l-.4,9.3s32.7,8.9,96.2.1v-9.1Z" fill="#081b26"/>
          <rect id="Rect치ngulo_1756" data-name="Rect치ngulo 1756" width="18.8" height="14.1" transform="translate(802.9 1784.3)" fill="#ced2dd"/>
        </g>
        <g id="Grupo_7380" data-name="Grupo 7380">
          <path id="Trazado_18168" data-name="Trazado 18168" d="M879,1785.6v21.3H861.3v-21.3a1.268,1.268,0,0,1,.1-.6l.3-.6a.215.215,0,0,1,.2-.2,2.658,2.658,0,0,1,2.1-1h12.5a2.737,2.737,0,0,1,2.4,1.5c0,.1.1.1.1.2s.1.2.1.3h0v.1A.367.367,0,0,0,879,1785.6Z" fill="#724924"/>
          <path id="Trazado_18169" data-name="Trazado 18169" d="M879,1785.6v21.3h-5.7v-23.5h3.1a2.781,2.781,0,0,1,2.4,1.3c0,.1.1.1.1.2s.1.2.1.3h0v.4Z" fill="#5b381a"/>
          <g id="Grupo_7379" data-name="Grupo 7379">
            <path id="Trazado_18170" data-name="Trazado 18170" d="M878.4,1796.2h0a8.133,8.133,0,0,1-5.2-3.6H861.7a.5.5,0,0,1,0-1h11.5l.4.3c-.2-.1,2.6,3,4.9,3.3a.56.56,0,0,1,.5.6A.675.675,0,0,1,878.4,1796.2Z" fill="#492910"/>
          </g>
          <path id="Trazado_18171" data-name="Trazado 18171" d="M879,1791c0-1.1-.5-1.9-1-1.9s-1,.9-1,1.9.5,1.9,1,1.9S879,1792,879,1791Z" fill="#ced2dd"/>
        </g>
      </g>
      <g id="Grupo_7395" data-name="Grupo 7395">
        <g id="Grupo_7393" data-name="Grupo 7393">
          <g id="Grupo_7382" data-name="Grupo 7382">
            <path id="Trazado_18172" data-name="Trazado 18172" d="M806.8,1612.3s.9,21.4,0,24.8-9.3,9.2-18,13.2a41.1,41.1,0,0,0,32.8,14.8c21.7-.4,27.2-9.4,30.7-14.4,0,0-16.6-6-17-13s0-25.4,0-25.4Z" fill="#ea997d"/>
            <path id="Trazado_18173" data-name="Trazado 18173" d="M820.9,1632.7c6.9,0,11.7-4.8,14.3-8.5,0-6.3.2-11.9.2-11.9H806.8s.2,5.7.3,11.6C809.5,1627.7,813.9,1632.7,820.9,1632.7Z" fill="#d87e66"/>
          </g>
          <path id="Trazado_18174" data-name="Trazado 18174" d="M802,1591.9s-1.2-3.5-5.8-3.1c-4.5.4-3,12,1,13.9s5.3-3.8,5.3-3.8Z" fill="#ea997d"/>
          <path id="Trazado_18175" data-name="Trazado 18175" d="M841.4,1591.9s1.2-3.5,5.8-3.1c4.5.4,3,12-1,13.9s-5.3-3.8-5.3-3.8Z" fill="#ea997d"/>
          <path id="Trazado_18176" data-name="Trazado 18176" d="M845.3,1591c-2,24.7-8.9,36.6-23.5,36.6s-21.7-9.8-23.5-36.6c-1.4-19.8,9-32,23.5-32S846.9,1570.4,845.3,1591Z" fill="#ea997d"/>
          <path id="Trazado_18177" data-name="Trazado 18177" d="M809.5,1595c0,1.2-.7,2.2-1.5,2.2s-1.5-1-1.5-2.2.7-2.2,1.5-2.2C808.9,1592.7,809.5,1593.7,809.5,1595Z" fill="#23242b"/>
          <path id="Trazado_18178" data-name="Trazado 18178" d="M836.3,1595c0,1.2-.7,2.2-1.5,2.2s-1.5-1-1.5-2.2.7-2.2,1.5-2.2C835.7,1592.7,836.3,1593.7,836.3,1595Z" fill="#23242b"/>
          <g id="Grupo_7383" data-name="Grupo 7383">
            <path id="Trazado_18179" data-name="Trazado 18179" d="M802.4,1588.2a.781.781,0,0,1-.4-.4.873.873,0,0,1,.4-1.1c1.8-1.1,6.5-1.5,9.7,1.4a.75.75,0,0,1,0,1.2,1.051,1.051,0,0,1-1.2,0,19.816,19.816,0,0,0-7.5-1.1Z" fill="#9e3a20"/>
          </g>
          <g id="Grupo_7384" data-name="Grupo 7384">
            <path id="Trazado_18180" data-name="Trazado 18180" d="M840.9,1588.3a1,1,0,0,0,.5-.4c.3-.4.1-.8-.3-1.1-1.7-1.1-6.7-1.8-9.7.9a.823.823,0,0,0-.1,1.2c.3.4.8.2,1.2.1a23.6,23.6,0,0,1,7.6-.8C840.5,1588.4,840.7,1588.4,840.9,1588.3Z" fill="#9e3a20"/>
          </g>
          <g id="Grupo_7385" data-name="Grupo 7385">
            <path id="Trazado_18181" data-name="Trazado 18181" d="M821.4,1609.2a2.886,2.886,0,0,1-2.7-1.3c-1.4-2.8,1.3-7.4,1.5-8,.2-.4.4-.6.8-.4s.2.7.1,1.1c-.8,1.8-1.3,5.3-.6,6.6a1.059,1.059,0,0,0,1,.5.773.773,0,0,1,.7.8A.681.681,0,0,1,821.4,1609.2Z" fill="#d87e66"/>
          </g>
          <path id="Trazado_18182" data-name="Trazado 18182" d="M796.9,1588.8l1.4,3.6,1.9.9s.6-6.4,1-10.8c.8-7.5,1.2-13.5,19.9-13.7,19.4-.2,19.4,6.1,21.1,13.4a56.717,56.717,0,0,1,1.4,10.9l1.7-1.7,1.9-2.6s-.1-6.3,0-12.2c0,0,1.2-13.4-5.4-14.9,0,0-6.7-9.8-19-9.8-18.1,0-17.1,4.9-17.6,5.9,0,0-4.5,1.2-6.4,3.8-1.8,2.6-1.2,4.1-3.3,10.2,0,0-.4,2.5.2,3.6C796.5,1576.6,795.9,1584.1,796.9,1588.8Z" fill="#9e3a20"/>
          <g id="Grupo_7392" data-name="Grupo 7392">
            <g id="Grupo_7386" data-name="Grupo 7386">
              <path id="Trazado_18183" data-name="Trazado 18183" d="M797.2,1571.8a.215.215,0,0,1-.2-.2.192.192,0,0,1,.1-.3c5.5-2.2,8.1-1.7,9.7-1.2h.1c.1,0,.2.2.2.3s-.2.2-.3.2h-.1c-1.6-.5-4-.9-9.5,1.2Z" fill="#822816"/>
            </g>
            <g id="Grupo_7387" data-name="Grupo 7387">
              <path id="Trazado_18184" data-name="Trazado 18184" d="M814.3,1568.3a.215.215,0,0,1-.2-.2c0-.1-2-8.5-12.9-6.5-.1,0-.3-.1-.3-.2s.1-.3.2-.3c11.3-2.1,13.4,6.7,13.5,6.8,0,.2,0,.3-.3.4Z" fill="#822816"/>
            </g>
            <g id="Grupo_7388" data-name="Grupo 7388">
              <path id="Trazado_18185" data-name="Trazado 18185" d="M817.1,1567h0c-.2,0-.3.2-.3,0a11.428,11.428,0,0,0-2.7-7.3c-1.8-1.9-3.8-1.2-7-1.3-.1,0-.3-.1-.3-.2s.1-.2.3-.2c3.4.1,5.5-.4,7.4,1.6a11.161,11.161,0,0,1,2.8,7.6A.215.215,0,0,0,817.1,1567Z" fill="#822816"/>
            </g>
            <g id="Grupo_7389" data-name="Grupo 7389">
              <path id="Trazado_18186" data-name="Trazado 18186" d="M839.7,1572.7a.215.215,0,0,1-.2-.2.192.192,0,0,1,.1-.3c.2-.1,4-1.9,2.7-8.4,0-.1.1-.3.2-.3s.3.1.3.2c1.3,7-3,8.9-3,9Z" fill="#822816"/>
            </g>
            <g id="Grupo_7390" data-name="Grupo 7390">
              <path id="Trazado_18187" data-name="Trazado 18187" d="M828.7,1568c-.1,0-.3,0-.3-.1s-.3-11.2-11.9-13.6c-.1,0-.2-.1-.2-.3,0-.1.2-.2.3-.2a14.9,14.9,0,0,1,12.3,14c0,.2-.1-.3-.2.2Z" fill="#822816"/>
            </g>
            <g id="Grupo_7391" data-name="Grupo 7391">
              <path id="Trazado_18188" data-name="Trazado 18188" d="M830.2,1567.5h-.1c-.1-.1-.2-.2-.1-.3,0-.1,3.4-5.7,0-11.5-.1-.1,0-.3.1-.4s.3,0,.4.1c3.5,6,0,11.9,0,12A.367.367,0,0,1,830.2,1567.5Z" fill="#822816"/>
            </g>
          </g>
          <path id="Trazado_18189" data-name="Trazado 18189" d="M816.5,1615.8s2-4.1,4.1-4.1c2.2,0,3.2,4.3,3.2,4.3s1.2,3.1-3.7,3.1C814.5,1619.1,816.5,1615.8,816.5,1615.8Z" fill="#ce6565"/>
        </g>
        <g id="Grupo_7394" data-name="Grupo 7394">
          <path id="Trazado_18190" data-name="Trazado 18190" d="M857,1565.1c-.3-2.5-5.6-2.5-9-6-3.6-3.8-3.3-8.6-5.5-8.6-10,0-19-9.8-20.9-9.8-2.2,0-10.4,9.9-21.2,9.9-1.6,0-2.7,6.1-5.3,8.4-3.9,3.5-8.2,2.6-8.7,6.1-.4,3.1,8.5,12.4,8.5,12.4l26.8-.2h26.2C847.9,1577.4,857.4,1568.2,857,1565.1Z" fill="#18405e"/>
          <path id="Trazado_18191" data-name="Trazado 18191" d="M796.1,1582.2s21.3-6,51.5,0l.7-7.2s-23.2-26.8-54.2-.3Z" fill="#092438"/>
          <path id="Trazado_18192" data-name="Trazado 18192" d="M814.9,1555.7v6.7s1.1,5,7.4,7.2c0,0,6.2-2.5,7.2-7.2v-6.7s-5.3-.3-7.3-4.1C822.2,1551.6,821.1,1554.9,814.9,1555.7Z" fill="#c0c2ce"/>
          <path id="Trazado_18193" data-name="Trazado 18193" d="M799.3,1581.3s3.4,7.7,22.1,7.7c18.8,0,22.9-7.6,22.9-7.6S824.3,1569.8,799.3,1581.3Z" fill="#363644"/>
        </g>
      </g>
      <g id="Grupo_7399" data-name="Grupo 7399">
        <path id="Trazado_18194" data-name="Trazado 18194" d="M836.8,1641.2c1.4.4-14.9,6.7-34.2,0,0,0-12.2,2.1-34.8,9.4,0,0,1.2,73.3,3.3,114.6.2,4.1-4,9-3.8,12.4.2,3.1,3.2,5.5,5,6.7,0,0,50.1,6.3,95.8,0,0,0,4.1-.1,4.4-6.6.1-3-3.6-9.3-3.5-13.3,1.7-36.4,7-105.6,6.7-109.3C875.8,1655,857.4,1647.6,836.8,1641.2Z" fill="#18405e"/>
        <path id="Trazado_18195" data-name="Trazado 18195" d="M820,1646l-9.2,10.4-9.2-14.6c.7-.4,1.1-.6,1.1-.6a51.792,51.792,0,0,0,34.2,0c.8.4,1.7.8,2.6,1.2l-11.2,14Z" fill="#0c2638"/>
        <path id="Trazado_18196" data-name="Trazado 18196" d="M769.1,1650.7s-1-1.9,4.4-3.3c5.1-1.3,20.2-4.6,25.3-6.5,0,0,1.2-.2.8.9-.4,1.2-1.4,5.8-3.3,7-1.8,1.2-26.9,5.6-26.9,5.6Z" fill="#0c2638"/>
        <path id="Trazado_18197" data-name="Trazado 18197" d="M873.9,1655s1.1-2.3-3.5-4.4c-4.7-2.1-24-9-29.1-10.4,0,0-1.1-.1-.7,1,.5,1.1,2,5.8,3.9,6.9s28.3,10.3,28.3,10.3Z" fill="#0c2638"/>
        <path id="Trazado_18198" data-name="Trazado 18198" d="M836.3,1631.5l-16.5,11.6-14.1-11.6-4.5,9.8,9.4,12,9.2-9,8.5,9,11.6-11.5Z" fill="#18405e"/>
        <g id="Grupo_7396" data-name="Grupo 7396">
          <path id="Trazado_18199" data-name="Trazado 18199" d="M820.1,1785a.472.472,0,0,1-.5-.5V1649a.5.5,0,0,1,1,0v135.5A.472.472,0,0,1,820.1,1785Z" fill="#0c2638"/>
        </g>
        <g id="Grupo_7397" data-name="Grupo 7397">
          <path id="Trazado_18200" data-name="Trazado 18200" d="M780.5,1689.4v22.1l2.4,2.4h21.5l2.6-2.6v-21.9Z" fill="#0e2a40"/>
          <path id="Trazado_18201" data-name="Trazado 18201" d="M780.5,1684.2v7.5l13.3,3,13.2-3.3v-7.2Z" fill="#234d68"/>
          <rect id="Rect치ngulo_1757" data-name="Rect치ngulo 1757" width="26.6" height="4.7" transform="translate(780.5 1676.9)" fill="#ced2dd"/>
          <path id="Trazado_18202" data-name="Trazado 18202" d="M795.4,1690.9a1.7,1.7,0,1,0-1.7,1.7A1.686,1.686,0,0,0,795.4,1690.9Z" fill="#0e2a40"/>
        </g>
        <g id="Grupo_7398" data-name="Grupo 7398">
          <path id="Trazado_18203" data-name="Trazado 18203" d="M833.1,1689.4v22.1l2.4,2.4h21.6l2.6-2.6v-21.9Z" fill="#0e2a40"/>
          <path id="Trazado_18204" data-name="Trazado 18204" d="M833.1,1684.2v7.5l13.3,3,13.3-3.3v-7.2Z" fill="#234d68"/>
          <path id="Trazado_18205" data-name="Trazado 18205" d="M840.4,1671.7v5.4s.9,4.1,6.1,5.9c0,0,5.4-2,5.9-5.9v-5.4s-4.4-.2-6-3.3C846.4,1668.4,845.6,1671.1,840.4,1671.7Z" fill="#f5c761"/>
          <path id="Trazado_18206" data-name="Trazado 18206" d="M848,1690.9a1.7,1.7,0,1,0-1.7,1.7A1.686,1.686,0,0,0,848,1690.9Z" fill="#0e2a40"/>
        </g>
      </g>
      <g id="Grupo_7407" data-name="Grupo 7407">
        <path id="Trazado_18207" data-name="Trazado 18207" d="M767.9,1650.6s-11.1,5.1-17.5,20.3-21.3,45.9-25.9,59.2c-3.4,9.6,14.8,19.4,19.1,16,5.7-4.6,16.7-23.9,25.6-38C769.1,1708,781.7,1676.8,767.9,1650.6Z" fill="#18405e"/>
        <g id="Grupo_7400" data-name="Grupo 7400">
          <path id="Trazado_18208" data-name="Trazado 18208" d="M769.2,1706.6a.548.548,0,0,1-.6-.4l-2-49.2a.472.472,0,0,1,.5-.5.576.576,0,0,1,.6.6l2,49.1c.1.3-.2.4-.5.4Z" fill="#0c2638"/>
        </g>
        <path id="Trazado_18209" data-name="Trazado 18209" d="M773.7,1666.2a.818.818,0,0,1-.8.9H762.8a1.009,1.009,0,0,1-1.1-.9v-34.9a1.284,1.284,0,0,1,1.1-1.2h10.1c.5,0,.8.7.8,1.2Z" fill="#9aa4b7"/>
        <g id="Grupo_7404" data-name="Grupo 7404">
          <path id="Trazado_18210" data-name="Trazado 18210" d="M747.3,1669.1s7.7-22.8,9.3-24.6,19.2-5.2,20.3-1.4c1.2,3.8-1.3,4.4-1.3,4.4a2.869,2.869,0,0,1,2,2.9,3.5,3.5,0,0,1-2,3,2.786,2.786,0,0,1,1.4,2.5c-.1,3-2.2,3-2.2,3a3.532,3.532,0,0,1,1.6,2.8c-.3,3.2-7.7,3.6-7.7,3.6s-2.1,5.6-6.4,7.7C747.4,1680.7,747.3,1669.1,747.3,1669.1Z" fill="#ea997d"/>
          <g id="Grupo_7401" data-name="Grupo 7401">
            <path id="Trazado_18211" data-name="Trazado 18211" d="M775.3,1647.7h-6.8a.319.319,0,0,1-.3-.3.265.265,0,0,1,.3-.3h6.8a.3.3,0,1,1,0,.6Z" fill="#d87e66"/>
          </g>
          <g id="Grupo_7402" data-name="Grupo 7402">
            <path id="Trazado_18212" data-name="Trazado 18212" d="M769.1,1653.5c-.1,0-.3,0-.3-.2,0-.1.1-.2.3-.2h6.2a.319.319,0,0,1,.3.3c0,.1-.1.2-.3.2l-6.2-.1Z" fill="#d87e66"/>
          </g>
          <g id="Grupo_7403" data-name="Grupo 7403">
            <path id="Trazado_18213" data-name="Trazado 18213" d="M770.4,1659.5c-.1,0-.2-.1-.3-.2,0-.1.1-.3.2-.3l4-.3c.1,0,.3.1.3.2s-.1.3-.2.3l-4,.3Z" fill="#d87e66"/>
          </g>
        </g>
        <g id="Grupo_7405" data-name="Grupo 7405">
          <path id="Trazado_18214" data-name="Trazado 18214" d="M789.8,1632.8a1.324,1.324,0,0,1-1.3,1.3h-15a1.324,1.324,0,0,1-1.3-1.3v-23.4a1.324,1.324,0,0,1,1.3-1.3h15a1.324,1.324,0,0,1,1.3,1.3Z" fill="#363644"/>
          <path id="Trazado_18215" data-name="Trazado 18215" d="M788.8,1608.1h-3.7v26.1h3.7c.7,0,1-.8,1-1.5v-23.6C789.8,1608.4,789.6,1608.1,788.8,1608.1Z" fill="#4c4c5e"/>
          <path id="Trazado_18216" data-name="Trazado 18216" d="M774,1604.7s10.8,3.7,11,15.3c.1,11.6-8.8,16-9.9,16.4C773.9,1636.9,774,1604.7,774,1604.7Z" fill="#cc4a4a"/>
          <path id="Trazado_18217" data-name="Trazado 18217" d="M734,1586.5l40,18.2s12.7,14.4,1,31.7l-40.1,15.4Z" fill="#9aa4b7"/>
          <path id="Trazado_18218" data-name="Trazado 18218" d="M770.8,1620.6c0,20.5-13.9,37.1-31.1,37.1s-31.1-16.6-31.1-37.1,13.9-37.1,31.1-37.1S770.8,1600.1,770.8,1620.6Z" fill="#ced2dd"/>
          <ellipse id="Elipse_748" data-name="Elipse 748" cx="27.5" cy="32.8" rx="27.5" ry="32.8" transform="translate(712.2 1587.8)" fill="#afb6c6"/>
          <path id="Trazado_18219" data-name="Trazado 18219" d="M766.6,1620.6c0,10.6-7.2,19.3-16.2,19.3-8.9,0-16.2-8.6-16.2-19.3,0-10.6,7.2-19.3,16.2-19.3S766.6,1609.9,766.6,1620.6Z" fill="#9aa4b7"/>
          <path id="Trazado_18220" data-name="Trazado 18220" d="M747.8,1620.6c0,5.3-3.6,9.6-8.1,9.6s-8.1-4.3-8.1-9.6,3.6-9.6,8.1-9.6C744.1,1611,747.8,1615.3,747.8,1620.6Z" fill="#ced2dd"/>
        </g>
        <path id="Trazado_18221" data-name="Trazado 18221" d="M745.2,1667.3l-3.4,10.4c-1,2.4-6.8,3.9-7.8,9-2,9.5-2.2,11.8-7.1,25.6-7,19.6-10.2,28.2,3.1,33.6,17.1,6.9,19.8-6.2,25.3-27.9,3.5-13.7,1.8-10.8,8.2-22,2.7-4.8-1.1-7.7-.5-10.1l3.5-10.9Z" fill="#18405e"/>
        <g id="Grupo_7406" data-name="Grupo 7406">
          <path id="Trazado_18222" data-name="Trazado 18222" d="M767,1674.6l-3.2-1.2c0,.1-.1.2-.1.3-.1.2-.2.5-.3.7l2.4.9-3.3,10.5c-.3,1,.2,2.1.6,3.2.7,1.9,1.6,4,0,6.8l-.1.2c-5,8.8-5,8.8-6.5,15.4-.4,1.7-.9,3.8-1.6,6.6l-.5,2a148.311,148.311,0,0,1-5,17.4c.3.1.7.3,1,.4a154.244,154.244,0,0,0,5-17.4l.5-2.1c.7-2.8,1.2-4.9,1.6-6.6,1.5-6.4,1.5-6.4,6.4-15.1l.1-.2c1.8-3.2.8-5.8.1-7.7a5.564,5.564,0,0,1-.6-2.5Z" fill="#444069"/>
        </g>
      </g>
      <g id="Grupo_7410" data-name="Grupo 7410">
        <g id="Grupo_7408" data-name="Grupo 7408">
          <path id="Trazado_18223" data-name="Trazado 18223" d="M919.4,1806.9H892.8c-4.8-20.9-17.7-70.2-21.4-83-.1-.2-.1-.4-.2-.6-5.1-17.6-8.1-46.3,4.5-68.3a37.369,37.369,0,0,1,19,28.5c1.9,14.2,7.4,30.3,11.4,59a544.115,544.115,0,0,1,13.1,63.8A.987.987,0,0,1,919.4,1806.9Z" fill="#18405e"/>
        </g>
        <g id="Grupo_7409" data-name="Grupo 7409">
          <path id="Trazado_18224" data-name="Trazado 18224" d="M871.5,1722.7h0a.56.56,0,0,1-.5-.6l3.4-51.1a.552.552,0,1,1,1.1.1l-3.4,51.1A.634.634,0,0,1,871.5,1722.7Z" fill="#0c2638"/>
        </g>
      </g>
    </g>
  </g>
</svg>
