<svg xmlns="http://www.w3.org/2000/svg" width="94.306" height="94.415" viewBox="0 0 94.306 94.415">
  <g id="Grupo_7281" data-name="Grupo 7281" transform="translate(-127.243 -1197.491)">
    <g id="Grupo_7272" data-name="Grupo 7272">
      <path id="Trazado_16199" data-name="Trazado 16199" d="M174.867,1197.491h-.943a46.678,46.678,0,0,0-46.625,44.494c-.034.725-.056,1.454-.056,2.187v1.053a46.68,46.68,0,0,0,46.681,46.68h.944a46.981,46.981,0,0,0,13.249-1.83c19.261-5.541,33.281-23.147,33.432-44.85v-1.052A46.682,46.682,0,0,0,174.867,1197.491Z" fill="#2d5678"/>
      <path id="Trazado_16200" data-name="Trazado 16200" d="M194.894,1262.98l-22.093-5.318,6.139-15.984-21.983-29.352L127.3,1241.985c-.034.725-.056,1.454-.056,2.187v1.053a46.68,46.68,0,0,0,46.681,46.68h.944a46.981,46.981,0,0,0,13.249-1.83L203.6,1274.6Z" opacity="0.2"/>
    </g>
    <g id="Grupo_7280" data-name="Grupo 7280">
      <rect id="Rectángulo_1617" data-name="Rectángulo 1617" width="9.128" height="17.524" transform="translate(169.813 1240.658)" fill="#bd8779"/>
      <path id="Trazado_16201" data-name="Trazado 16201" d="M161.5,1228.469c-1.979,3.713,2.429,16.658,5.482,16.658h14.663c3.036,0,8.312-13.847,5.606-16.571-3.367-2.291-11.783-5.155-11.783-5.155S164.034,1226.281,161.5,1228.469Z" fill="#663f30"/>
      <g id="Grupo_7273" data-name="Grupo 7273">
        <path id="Trazado_16202" data-name="Trazado 16202" d="M163.08,1235.981a3.629,3.629,0,0,1-1.457-7.061C163.357,1228.572,164.834,1235.617,163.08,1235.981Z" fill="#ffb7a4"/>
      </g>
      <g id="Grupo_7274" data-name="Grupo 7274">
        <path id="Trazado_16203" data-name="Trazado 16203" d="M185.448,1235.981a3.629,3.629,0,0,0,1.456-7.061C185.17,1228.572,183.713,1235.617,185.448,1235.981Z" fill="#ffb7a4"/>
      </g>
      <path id="Trazado_16204" data-name="Trazado 16204" d="M174.36,1248.874c13.552,0,12.093-24.709,12.093-24.709s-.59-8.087-11.781-8.087a12.319,12.319,0,0,0-12.164,8.3S161.016,1248.874,174.36,1248.874Z" fill="#ffb7a4"/>
      <path id="Trazado_16205" data-name="Trazado 16205" d="M160.946,1229.162c1.18-.26,2.447,1.979,2.447,1.979l.476-8.308a4.313,4.313,0,0,1,4.537-3.775c0,5.631,11.389,5.823,11.389-.063,4.606,0,4.872,3.557,4.872,3.557s1.024,9.369.988,9.005c.608-2.412,2.326-2.17,2.326-2.17s3.678-17.194-13.534-17.194S160.928,1228.677,160.946,1229.162Z" fill="#663f30"/>
      <path id="Trazado_16206" data-name="Trazado 16206" d="M203.6,1274.6c-.1-11.277-4.029-16.761-4.029-16.761-.382-3.905-19.671-7.358-19.915-7.1l-5.188,6.924-5.05-6.741-.137-.183c-.217-.231-15.205,2.487-19.1,5.847a2.054,2.054,0,0,0-.815,1.251s-2.837,4.825-4.13,16.587l-.017.036c0,.051-.018.087-.018.138Z" fill="#329ba8"/>
      <path id="Trazado_16207" data-name="Trazado 16207" d="M167.753,1256.487l-1.034-5.444,3.094-2.379,2.455,4.877Z" fill="#217480"/>
      <path id="Trazado_16208" data-name="Trazado 16208" d="M172.268,1253.541l2.195,4.122-4.308-2.743Z" fill="#1f626b"/>
      <path id="Trazado_16209" data-name="Trazado 16209" d="M181.172,1256.487l.788-5.506-3.02-2.318-2.283,4.877Z" fill="#217480"/>
      <path id="Trazado_16210" data-name="Trazado 16210" d="M176.658,1253.541l-2.195,4.122,4.308-2.743Z" fill="#1f626b"/>
      <path id="Trazado_16211" data-name="Trazado 16211" d="M182.939,1251.213c-.662-.123,0,1.035,0,1.035s11.4,3,16.107,5.934l.52-.346S199.666,1254.264,182.939,1251.213Z" fill="#11363b"/>
      <path id="Trazado_16212" data-name="Trazado 16212" d="M165.858,1251.213c.662-.123,0,1.035,0,1.035s-11.4,3-16.107,5.934l-.52-.346S149.131,1254.264,165.858,1251.213Z" fill="#11363b"/>
      <rect id="Rectángulo_1618" data-name="Rectángulo 1618" width="11.139" height="1.999" transform="translate(183.837 1270.342)" fill="#184b52"/>
      <g id="Grupo_7275" data-name="Grupo 7275">
        <rect id="Rectángulo_1619" data-name="Rectángulo 1619" width="7.104" height="8.343" rx="1.857" transform="translate(186.499 1256.487)" fill="#0f0f0f"/>
        <rect id="Rectángulo_1620" data-name="Rectángulo 1620" width="2.99" height="0.886" transform="translate(188.356 1255.601)" fill="#3b3b3b"/>
        <path id="Trazado_16213" data-name="Trazado 16213" d="M191.745,1264.83h-3.434v-1.092c0-.43.478-.778,1.067-.778h1.3c.589,0,1.067.348,1.067.778Z" fill="#303030"/>
        <rect id="Rectángulo_1621" data-name="Rectángulo 1621" width="0.954" height="2.265" transform="translate(188.897 1253.336)" fill="#0f0f0f"/>
        <path id="Trazado_16214" data-name="Trazado 16214" d="M189.374,1253.791a.252.252,0,0,1-.25-.236c0-.018-.108-1.766-1.1-2.278-.563-.292-1.334-.133-2.29.468a.25.25,0,0,1-.265-.424,2.8,2.8,0,0,1,2.786-.487c1.243.644,1.362,2.61,1.367,2.693a.251.251,0,0,1-.236.264Z" fill="#0f0f0f"/>
      </g>
      <g id="Grupo_7276" data-name="Grupo 7276">
        <path id="Trazado_16215" data-name="Trazado 16215" d="M191.059,1211.417l-16.238-2.9a1.933,1.933,0,0,0-.687,0l-16.277,2.9a1.957,1.957,0,0,0-1.146,3.194l3.946,4.636a1.956,1.956,0,0,0,1.489.688h24.623a1.956,1.956,0,0,0,1.489-.688l3.947-4.637A1.956,1.956,0,0,0,191.059,1211.417Z" fill="#329ba8"/>
        <rect id="Rectángulo_1622" data-name="Rectángulo 1622" width="27.752" height="6.089" transform="translate(160.604 1217.312)" fill="#11363b"/>
        <path id="Trazado_16216" data-name="Trazado 16216" d="M174.4,1228.907c-9.026,0-13.791-2.744-13.791-5.456v-.05h27.752v.05C188.356,1226.163,183.421,1228.907,174.4,1228.907Z" fill="#121212"/>
        <path id="Trazado_16217" data-name="Trazado 16217" d="M176.428,1220.282a1.941,1.941,0,1,1-1.923-2.2A2.075,2.075,0,0,1,176.428,1220.282Z" fill="#329ba8"/>
      </g>
      <rect id="Rectángulo_1623" data-name="Rectángulo 1623" width="3.324" height="16.982" transform="translate(172.801 1257.662)" fill="#217480"/>
      <g id="Grupo_7279" data-name="Grupo 7279">
        <path id="Trazado_16218" data-name="Trazado 16218" d="M164.16,1266.05c.045-.733.654-1,.71-1.218s-1.409-1.466-1.579-1.5-.936.485-1.308.485-1.078-.485-1.379-.485-1.007.485-1.379.485-1.139-.519-1.308-.485-1.635,1.286-1.579,1.5.665.485.71,1.218c.034.551-1.522,3.108-.868,5.067s3.135,1.97,3.451,2.094.672.654.973.654.657-.53.973-.654,2.8-.135,3.451-2.094S164.126,1266.6,164.16,1266.05Z" fill="#ffab45"/>
        <path id="Trazado_16219" data-name="Trazado 16219" d="M158.2,1264.138c.086.035.214.1.316.144a2.619,2.619,0,0,0,.939.327,2.008,2.008,0,0,0,.767-.253,2.425,2.425,0,0,1,.384-.16,2.351,2.351,0,0,1,.384.16,2.008,2.008,0,0,0,.767.253,2.719,2.719,0,0,0,.947-.324c.105-.049.238-.11.325-.145a6.254,6.254,0,0,1,.812.914l-.032.033a1.541,1.541,0,0,0-.505,1.059,2.9,2.9,0,0,0,.283.956,6.2,6.2,0,0,1,.589,3.576,2.726,2.726,0,0,1-2.472,1.711,1.119,1.119,0,0,0-.832.451,1.779,1.779,0,0,1-.266.234,1.829,1.829,0,0,1-.266-.234,1.119,1.119,0,0,0-.832-.451,2.727,2.727,0,0,1-2.472-1.711,6.2,6.2,0,0,1,.589-3.576,2.9,2.9,0,0,0,.283-.956,1.541,1.541,0,0,0-.505-1.059l-.03-.032a6.38,6.38,0,0,1,.827-.917Zm-.046-.336h-.012c-.142.029-1.162,1.106-1.12,1.291s.55.422.574,1.063c.018.487-1.375,2.789-.86,4.606.529,1.864,2.728,1.875,3.007,1.994s.6.635.863.635.584-.515.863-.635,2.478-.13,3.007-1.994c.516-1.817-.878-4.119-.86-4.606.024-.641.531-.877.574-1.063s-.959-1.26-1.1-1.288l-.013,0c-.175,0-1.018.494-1.32.494s-.9-.414-1.151-.414-.84.414-1.151.414-1.126-.5-1.3-.5Z" fill="#bf7734"/>
        <rect id="Rectángulo_1624" data-name="Rectángulo 1624" width="4.329" height="1.486" transform="translate(158.432 1270.075)" fill="#bf7734"/>
        <g id="Grupo_7277" data-name="Grupo 7277">
          <path id="Trazado_16220" data-name="Trazado 16220" d="M159.125,1271.074a.5.5,0,0,0,.215.058c.111,0,.169-.055.169-.124,0-.091-.091-.132-.187-.132h-.088v-.154h.084c.073,0,.165-.029.165-.107,0-.055-.045-.1-.136-.1a.43.43,0,0,0-.194.055l-.044-.156a.578.578,0,0,1,.286-.07c.2,0,.306.1.306.23a.218.218,0,0,1-.169.214v0a.229.229,0,0,1,.2.225c0,.163-.144.282-.377.282a.547.547,0,0,1-.275-.066Z" fill="#ff9f45"/>
          <path id="Trazado_16221" data-name="Trazado 16221" d="M159.87,1271.286v-.131l.119-.107c.2-.181.3-.284.3-.392,0-.075-.046-.135-.152-.135a.334.334,0,0,0-.2.077l-.061-.155a.512.512,0,0,1,.3-.095.286.286,0,0,1,.323.29.571.571,0,0,1-.245.4l-.085.07v0h.348v.178Z" fill="#ff9f45"/>
          <path id="Trazado_16222" data-name="Trazado 16222" d="M160.723,1271.13a.475.475,0,0,0,.094,0,.368.368,0,0,0,.181-.057.282.282,0,0,0,.116-.17l-.005,0a.24.24,0,0,1-.183.068.278.278,0,0,1-.288-.288.335.335,0,0,1,.347-.333.351.351,0,0,1,.349.4.5.5,0,0,1-.514.554.606.606,0,0,1-.1,0Zm.13-.463a.132.132,0,0,0,.131.148.135.135,0,0,0,.119-.061.115.115,0,0,0,.011-.054c0-.1-.037-.194-.134-.194C160.9,1270.506,160.852,1270.571,160.853,1270.667Z" fill="#ff9f45"/>
          <path id="Trazado_16223" data-name="Trazado 16223" d="M162.026,1270.517a.624.624,0,0,0-.083,0,.3.3,0,0,0-.3.221h.005a.257.257,0,0,1,.195-.074.28.28,0,0,1,.285.3.331.331,0,0,1-.34.333.362.362,0,0,1-.366-.4.51.51,0,0,1,.519-.545.673.673,0,0,1,.086,0Zm-.118.462a.139.139,0,0,0-.264-.076.12.12,0,0,0-.009.054c0,.1.051.186.149.186C161.86,1271.143,161.908,1271.073,161.908,1270.979Z" fill="#ff9f45"/>
        </g>
        <g id="Grupo_7278" data-name="Grupo 7278">
          <path id="Trazado_16224" data-name="Trazado 16224" d="M158.519,1265.561a1.8,1.8,0,0,1,.279-.018.439.439,0,0,1,.28.073.266.266,0,0,1,.1.212.293.293,0,0,1-.084.217.43.43,0,0,1-.3.1.457.457,0,0,1-.07,0v.327h-.205Zm.205.417a.425.425,0,0,0,.069,0c.109,0,.178-.055.178-.149s-.059-.134-.162-.134a.345.345,0,0,0-.085.008Z" fill="#bf7734"/>
          <path id="Trazado_16225" data-name="Trazado 16225" d="M160.143,1266a.436.436,0,0,1-.45.481.426.426,0,0,1-.43-.465.443.443,0,0,1,.445-.48A.428.428,0,0,1,160.143,1266Zm-.661.012c0,.179.084.3.222.3s.22-.132.22-.31-.079-.306-.222-.306S159.482,1265.832,159.482,1266.01Z" fill="#bf7734"/>
          <path id="Trazado_16226" data-name="Trazado 16226" d="M160.276,1265.55h.208v.741h.363v.174h-.571Z" fill="#bf7734"/>
          <path id="Trazado_16227" data-name="Trazado 16227" d="M161.175,1265.55v.915h-.208v-.915Z" fill="#bf7734"/>
          <path id="Trazado_16228" data-name="Trazado 16228" d="M162.025,1266.439a.6.6,0,0,1-.235.039.435.435,0,0,1-.479-.458.466.466,0,0,1,.5-.486.553.553,0,0,1,.225.041l-.042.164a.46.46,0,0,0-.174-.033.3.3,0,0,0,0,.6.5.5,0,0,0,.172-.031Z" fill="#bf7734"/>
          <path id="Trazado_16229" data-name="Trazado 16229" d="M162.7,1266.078h-.336v.217h.376v.17h-.584v-.915h.565v.17h-.357v.189h.336Z" fill="#bf7734"/>
        </g>
        <path id="Trazado_16230" data-name="Trazado 16230" d="M160.6,1267.141l.338.684.755.11-.546.533.129.752-.675-.355-.675.355.129-.752-.546-.533.755-.11Z" fill="#bf7734"/>
        <path id="Trazado_16231" data-name="Trazado 16231" d="M160.611,1269.561a1.249,1.249,0,1,1,1.249-1.249A1.251,1.251,0,0,1,160.611,1269.561Zm0-2.342a1.093,1.093,0,1,0,1.093,1.093A1.094,1.094,0,0,0,160.611,1267.219Z" fill="#bf7734"/>
      </g>
    </g>
  </g>
</svg>
