<svg xmlns="http://www.w3.org/2000/svg" width="377.779" height="361.221" viewBox="0 0 377.779 361.221">
  <g id="Grupo_7248" data-name="Grupo 7248" transform="translate(-56.25 -193.012)">
    <g id="Grupo_7231" data-name="Grupo 7231">
      <rect id="Rectángulo_1558" data-name="Rectángulo 1558" width="31.795" height="59.437" transform="translate(152.645 382.969)" fill="#bd8779"/>
      <path id="Trazado_16109" data-name="Trazado 16109" d="M246.279,441.6c-1.36-13.276-59.217-25.073-60.009-24.245l-17.727,23.653-17.729-23.653c-.791-.828-60.191,10.969-61.551,24.245L85,554.233H252.562Z" fill="#333"/>
      <path id="Trazado_16110" data-name="Trazado 16110" d="M152.645,419.8l15.9,21.212-37.467-25.157,21.569-8.553Z" fill="#242424"/>
      <path id="Trazado_16111" data-name="Trazado 16111" d="M184.44,419.8l-15.9,21.212,37.467-25.157L184.44,407.3Z" fill="#242424"/>
      <path id="Trazado_16112" data-name="Trazado 16112" d="M124.274,333.65c-6.7,12.685,8.317,56.869,18.724,56.869h50.08c10.352,0,28.347-47.253,19.141-56.573-11.5-7.846-40.258-17.637-40.258-17.637S132.917,326.161,124.274,333.65Z" fill="#665046"/>
      <g id="Grupo_7228" data-name="Grupo 7228">
        <path id="Trazado_16113" data-name="Trazado 16113" d="M129.7,359.255c-5.926,1.238-11.857-3.19-13.241-9.791-1.358-6.669,2.332-13.041,8.257-14.279S135.659,358.016,129.7,359.255Z" fill="#ffb7a4"/>
      </g>
      <g id="Grupo_7229" data-name="Grupo 7229">
        <path id="Trazado_16114" data-name="Trazado 16114" d="M206.028,359.255c5.926,1.238,11.887-3.19,13.24-9.791,1.389-6.669-2.295-13.041-8.227-14.279S200.1,358.016,206.028,359.255Z" fill="#ffb7a4"/>
      </g>
      <path id="Trazado_16115" data-name="Trazado 16115" d="M168.186,403.258c46.25,0,41.26-84.292,41.26-84.292S207.441,291.3,169.219,291.3c-33.294,0-41.5,28.311-41.5,28.311S122.619,403.258,168.186,403.258Z" fill="#ffb7a4"/>
      <path id="Trazado_16116" data-name="Trazado 16116" d="M122.383,335.952c4.041-.882,8.348,6.783,8.348,6.783l1.655-29.253s47.482,8.843,55.358-9.32c13.065-5.194,15.632,9.26,15.632,9.26s3.48,31.97,3.359,30.732c2.1-8.2,7.937-7.375,7.937-7.375s12.533-58.692-46.16-58.692C109.789,278.087,122.3,334.3,122.383,335.952Z" fill="#665046"/>
      <path id="Trazado_16117" data-name="Trazado 16117" d="M188.4,332.853c-10.011,0-18.256,4.831-19.825,11.147-1.57-6.316-9.814-11.147-19.826-11.147-11.131,0-20.155,5.957-20.155,13.3s9.024,13.305,20.155,13.305c10.012,0,18.256-4.832,19.826-11.148,1.569,6.316,9.814,11.148,19.825,11.148,11.132,0,20.155-5.957,20.155-13.305S199.535,332.853,188.4,332.853Zm-39.651,16.755c-6.189,0-11.206-1.869-11.206-4.175s5.017-4.175,11.206-4.175,11.206,1.869,11.206,4.175S154.941,349.608,148.752,349.608Zm39.651,0c-6.188,0-11.205-1.869-11.205-4.175s5.017-4.175,11.205-4.175,11.206,1.869,11.206,4.175S194.592,349.608,188.4,349.608Z" fill="#333"/>
      <g id="Grupo_7230" data-name="Grupo 7230">
        <path id="Trazado_16118" data-name="Trazado 16118" d="M217.478,308.461c0-12.689-21.237-39.4-47.434-39.4s-47.434,26.716-47.434,39.4Z" fill="#333"/>
        <path id="Trazado_16119" data-name="Trazado 16119" d="M217.478,308.461a16.126,16.126,0,0,0-.6-4.125l-93.59-.249a16.4,16.4,0,0,0-.673,4.374Z" fill="#242424"/>
        <path id="Trazado_16120" data-name="Trazado 16120" d="M217.077,323.254H119.032c-2.744,0-4.969-1.112-4.969-2.485V310.422c0-1.372,2.225-2.485,4.969-2.485h98.045c2.744,0,4.968,1.113,4.968,2.485v10.347C222.045,322.142,219.821,323.254,217.077,323.254Z" fill="#333"/>
      </g>
    </g>
    <g id="Grupo_7239" data-name="Grupo 7239">
      <g id="Grupo_7236" data-name="Grupo 7236">
        <rect id="Rectángulo_1559" data-name="Rectángulo 1559" width="16.173" height="303.938" transform="translate(126.775 221.653)" fill="#696969"/>
        <rect id="Rectángulo_1560" data-name="Rectángulo 1560" width="16.173" height="303.938" transform="translate(194.206 221.653)" fill="#696969"/>
        <rect id="Rectángulo_1561" data-name="Rectángulo 1561" width="16.173" height="303.938" transform="translate(261.262 221.653)" fill="#696969"/>
        <g id="Grupo_7232" data-name="Grupo 7232">
          <rect id="Rectángulo_1562" data-name="Rectángulo 1562" width="294.242" height="28.642" transform="translate(56.25 193.012)" fill="#919191"/>
          <circle id="Elipse_724" data-name="Elipse 724" cx="5.541" cy="5.541" r="5.541" transform="translate(118.314 201.792)" fill="#6e6e6e"/>
          <circle id="Elipse_725" data-name="Elipse 725" cx="5.541" cy="5.541" r="5.541" transform="translate(169.079 201.792)" fill="#6e6e6e"/>
          <circle id="Elipse_726" data-name="Elipse 726" cx="5.541" cy="5.541" r="5.541" transform="translate(222.988 201.792)" fill="#6e6e6e"/>
          <circle id="Elipse_727" data-name="Elipse 727" cx="5.541" cy="5.541" r="5.541" transform="translate(276.898 201.792)" fill="#6e6e6e"/>
        </g>
        <g id="Grupo_7233" data-name="Grupo 7233">
          <rect id="Rectángulo_1563" data-name="Rectángulo 1563" width="294.242" height="28.642" transform="translate(56.25 525.592)" fill="#919191"/>
          <path id="Trazado_16121" data-name="Trazado 16121" d="M129.4,539.912a5.541,5.541,0,1,1-5.541-5.541A5.541,5.541,0,0,1,129.4,539.912Z" fill="#6e6e6e"/>
          <path id="Trazado_16122" data-name="Trazado 16122" d="M180.16,539.912a5.541,5.541,0,1,1-5.54-5.541A5.54,5.54,0,0,1,180.16,539.912Z" fill="#6e6e6e"/>
          <path id="Trazado_16123" data-name="Trazado 16123" d="M234.07,539.912a5.541,5.541,0,1,1-5.541-5.541A5.541,5.541,0,0,1,234.07,539.912Z" fill="#6e6e6e"/>
          <path id="Trazado_16124" data-name="Trazado 16124" d="M287.979,539.912a5.54,5.54,0,1,1-5.54-5.541A5.541,5.541,0,0,1,287.979,539.912Z" fill="#6e6e6e"/>
        </g>
        <g id="Grupo_7234" data-name="Grupo 7234">
          <rect id="Rectángulo_1564" data-name="Rectángulo 1564" width="26.997" height="303.938" transform="translate(62.239 221.653)" fill="#858585"/>
          <rect id="Rectángulo_1565" data-name="Rectángulo 1565" width="26.997" height="33.593" transform="translate(62.239 221.653)" fill="#666"/>
          <rect id="Rectángulo_1566" data-name="Rectángulo 1566" width="26.997" height="33.593" transform="translate(62.239 491.997)" fill="#666"/>
        </g>
        <g id="Grupo_7235" data-name="Grupo 7235">
          <rect id="Rectángulo_1567" data-name="Rectángulo 1567" width="26.997" height="303.937" transform="translate(317.091 221.653)" fill="#858585"/>
          <rect id="Rectángulo_1568" data-name="Rectángulo 1568" width="26.997" height="33.593" transform="translate(317.091 221.653)" fill="#666"/>
          <rect id="Rectángulo_1569" data-name="Rectángulo 1569" width="26.997" height="33.593" transform="translate(317.091 491.996)" fill="#666"/>
        </g>
      </g>
      <g id="Grupo_7237" data-name="Grupo 7237">
        <rect id="Rectángulo_1570" data-name="Rectángulo 1570" width="14.975" height="31.147" rx="4.043" transform="translate(149.911 447.71)" fill="#b07e71"/>
        <path id="Trazado_16125" data-name="Trazado 16125" d="M149.625,507.459H114.046a9.209,9.209,0,0,1-9.209-9.209V451.079a9.209,9.209,0,0,1,9.209-9.21h36.891a7.564,7.564,0,0,1,5.81,2.72l.766.917a6.4,6.4,0,0,1,.243,7.891l-3.277,4.457,3.56,4.715a6.4,6.4,0,0,1,.279,7.313l-3.839,5.981,3.042,3.538a6.4,6.4,0,0,1,.428,7.786l-3.47,5.07,2.67,2.913a6.4,6.4,0,0,1,.414,8.149l-.185.249A9.671,9.671,0,0,1,149.625,507.459Z" fill="#ffb7a4"/>
        <path id="Trazado_16126" data-name="Trazado 16126" d="M152.906,457.893l-27.067-.9v2.7Z" fill="#b07e71"/>
        <path id="Trazado_16127" data-name="Trazado 16127" d="M152.906,475.563l-27.067-.9v2.7Z" fill="#b07e71"/>
        <path id="Trazado_16128" data-name="Trazado 16128" d="M152.906,492.073l-27.067-.9v2.695Z" fill="#b07e71"/>
      </g>
      <g id="Grupo_7238" data-name="Grupo 7238">
        <rect id="Rectángulo_1571" data-name="Rectángulo 1571" width="14.975" height="31.148" rx="4.043" transform="translate(169.584 447.709)" fill="#b07e71"/>
        <path id="Trazado_16129" data-name="Trazado 16129" d="M184.845,507.459h35.579a9.21,9.21,0,0,0,9.21-9.21v-47.17a9.21,9.21,0,0,0-9.21-9.21H183.533a7.571,7.571,0,0,0-5.811,2.719l-.765.917a6.4,6.4,0,0,0-.242,7.892l3.277,4.456-3.562,4.715a6.4,6.4,0,0,0-.277,7.314l3.839,5.98-3.043,3.539a6.4,6.4,0,0,0-.428,7.786l3.471,5.07-2.672,2.913a6.4,6.4,0,0,0-.414,8.148l.186.249A9.667,9.667,0,0,0,184.845,507.459Z" fill="#ffb7a4"/>
        <path id="Trazado_16130" data-name="Trazado 16130" d="M181.564,457.892l27.067-.9v2.7Z" fill="#b07e71"/>
        <path id="Trazado_16131" data-name="Trazado 16131" d="M181.564,475.562l27.067-.9v2.7Z" fill="#b07e71"/>
        <path id="Trazado_16132" data-name="Trazado 16132" d="M181.564,492.073l27.067-.9v2.7Z" fill="#b07e71"/>
      </g>
    </g>
    <g id="Grupo_7244" data-name="Grupo 7244">
      <path id="Trazado_16133" data-name="Trazado 16133" d="M376.86,376.979c-.809-11.99-9.519-21.474-19.477-21.474-8.238,0-14.985,6.479-16.916,15.476-9.888.329-17.773,10.01-17.7,22.23.077,12.786,8.785,23.421,19.449,23.421,8.824,0,15.923-7.317,17.749-17.113C370.16,399.168,377.676,389.088,376.86,376.979Z" fill="#fff"/>
      <path id="Trazado_16134" data-name="Trazado 16134" d="M294.288,370.981c-1.931-9-8.677-15.476-16.917-15.476-9.957,0-18.668,9.484-19.476,21.474-.816,12.109,6.7,22.189,16.894,22.54,1.826,9.8,8.926,17.113,17.75,17.113,10.663,0,19.372-10.635,19.449-23.421C312.061,380.991,304.177,371.31,294.288,370.981Z" fill="#fff"/>
      <rect id="Rectángulo_1572" data-name="Rectángulo 1572" width="32.141" height="60.082" transform="translate(301.152 375.742)" fill="#a6776a"/>
      <path id="Trazado_16135" data-name="Trazado 16135" d="M316.862,405.782c46.752,0,41.708-85.205,41.708-85.205s-2.027-27.965-40.664-27.965c-33.655,0-41.947,28.618-41.947,28.618S270.8,405.782,316.862,405.782Z" fill="#d49888"/>
      <g id="Grupo_7240" data-name="Grupo 7240">
        <path id="Trazado_16136" data-name="Trazado 16136" d="M317.461,375.722c-2.654,3.981-21.234,3.981-21.234,3.981l.82-2.561a12.222,12.222,0,0,1,11.642-8.5h8.772Z" fill="#737373"/>
        <path id="Trazado_16137" data-name="Trazado 16137" d="M317.461,375.722C320.115,379.7,338.7,379.7,338.7,379.7l-.819-2.561a12.224,12.224,0,0,0-11.643-8.5h-8.772Z" fill="#737373"/>
      </g>
      <g id="Grupo_7243" data-name="Grupo 7243">
        <rect id="Rectángulo_1573" data-name="Rectángulo 1573" width="10.861" height="3.336" transform="translate(311.681 338.044)" fill="#212121"/>
        <g id="Grupo_7241" data-name="Grupo 7241">
          <path id="Trazado_16138" data-name="Trazado 16138" d="M346.263,352.314H327.909a3.388,3.388,0,0,1-3.388-3.388l-1.979-10.882a3.39,3.39,0,0,1,3.388-3.391h20.333a3.391,3.391,0,0,1,3.389,3.391v10.882A3.389,3.389,0,0,1,346.263,352.314Z" fill="#8dbfcc"/>
          <path id="Trazado_16139" data-name="Trazado 16139" d="M346.263,352.314,325.93,334.653h20.333a3.391,3.391,0,0,1,3.389,3.391v10.882A3.389,3.389,0,0,1,346.263,352.314Z" fill="#baf1ff"/>
          <path id="Trazado_16140" data-name="Trazado 16140" d="M346.263,353.585H327.909a4.665,4.665,0,0,1-4.66-4.659l-1.958-10.657a4.69,4.69,0,0,1,4.639-4.886h20.333a4.664,4.664,0,0,1,4.658,4.661v10.882A4.663,4.663,0,0,1,346.263,353.585ZM325.93,335.924a2.122,2.122,0,0,0-2.117,2.12l1.959,10.654a2.207,2.207,0,0,0,2.137,2.345h18.354a2.12,2.12,0,0,0,2.117-2.117V338.044a2.122,2.122,0,0,0-2.117-2.12Z" fill="#333"/>
        </g>
        <g id="Grupo_7242" data-name="Grupo 7242">
          <path id="Trazado_16141" data-name="Trazado 16141" d="M287.961,352.314h18.353a3.388,3.388,0,0,0,3.388-3.388l1.979-10.882a3.389,3.389,0,0,0-3.388-3.391H287.961a3.391,3.391,0,0,0-3.39,3.391v10.882A3.389,3.389,0,0,0,287.961,352.314Z" fill="#8dbfcc"/>
          <path id="Trazado_16142" data-name="Trazado 16142" d="M306.314,352.314a3.388,3.388,0,0,0,3.388-3.388l1.979-10.882a3.389,3.389,0,0,0-3.388-3.391H287.961Z" fill="#baf1ff"/>
          <path id="Trazado_16143" data-name="Trazado 16143" d="M306.314,353.585H287.959a4.664,4.664,0,0,1-4.658-4.659V338.044a4.664,4.664,0,0,1,4.658-4.661h20.334a4.665,4.665,0,0,1,4.66,4.661l-2,11.109A4.591,4.591,0,0,1,306.314,353.585Zm-18.355-17.661a2.12,2.12,0,0,0-2.116,2.12v10.882a2.118,2.118,0,0,0,2.116,2.117h18.355a2.12,2.12,0,0,0,2.117-2.117l2-11.11a2.127,2.127,0,0,0-2.139-1.892Z" fill="#333"/>
        </g>
        <path id="Trazado_16144" data-name="Trazado 16144" d="M350.849,337.652s2.466,2.034,3.053,2.669.4,2.285,0,2.16-2.985-1.89-2.985-1.89Z" fill="#212121"/>
        <path id="Trazado_16145" data-name="Trazado 16145" d="M283.515,337.652s-2.465,2.034-3.053,2.669-.4,2.285-.005,2.16,2.985-1.89,2.985-1.89Z" fill="#212121"/>
      </g>
      <path id="Trazado_16146" data-name="Trazado 16146" d="M380.739,327.067a20.264,20.264,0,0,0,4.644-14.915c-.859-11.025-9.526-19.76-19.376-19.76a16.306,16.306,0,0,0-3.213.332,26.356,26.356,0,0,0,1.008-8.836c-.767-13.926-12.043-24.882-25.209-24.882a23.691,23.691,0,0,0-21.215,13.386,23.7,23.7,0,0,0-21.216-13.386c-13.166,0-24.443,10.956-25.209,24.882a26.164,26.164,0,0,0,1.03,8.84,16.3,16.3,0,0,0-3.235-.336c-9.85,0-18.516,8.735-19.377,19.76a20.265,20.265,0,0,0,4.645,14.915,24.181,24.181,0,0,0-10.2,18.08c-.992,12.19,6.873,22.315,17.591,22.315s19.806-10.125,20.287-22.315a21.952,21.952,0,0,0-5.213-15.524,22.133,22.133,0,0,0,9.248-15.765,20.218,20.218,0,0,0,14.261,2.588c10.539-1.851,17.932-10.781,17.062-20.053.085-.163.158-.333.24-.5-1.2,9.448,6.272,18.668,17,20.552A20.051,20.051,0,0,0,349,313.5a22.149,22.149,0,0,0,9.277,16.12,21.952,21.952,0,0,0-5.213,15.524c.481,12.19,9.569,22.315,20.287,22.315s18.583-10.125,17.592-22.315A24.185,24.185,0,0,0,380.739,327.067Z" fill="#fff"/>
      <path id="Trazado_16147" data-name="Trazado 16147" d="M339.391,554.233h69.03c3.743-17.755-9.639-113.263-9.639-113.263-1.374-13.42-59.287-25.345-60.087-24.508l-21.234,18.11Z" fill="#142c3d"/>
      <path id="Trazado_16148" data-name="Trazado 16148" d="M296.5,416.462c-.8-.837-61.02,11.088-62.394,24.508,0,0-9.721,81.227-7.6,113.263h117.41l-26.45-119.661Z" fill="#142c3d"/>
      <path id="Trazado_16149" data-name="Trazado 16149" d="M344.116,459.427H290.806l5.373-20.339h42.565Z" fill="#fff"/>
      <path id="Trazado_16150" data-name="Trazado 16150" d="M341.023,447.718l-47.17.172,2.325-8.8h42.565Z" fill="#a6a6a6"/>
      <rect id="Rectángulo_1574" data-name="Rectángulo 1574" width="40.613" height="11.163" transform="translate(297.178 406.354)" fill="#fff"/>
      <rect id="Rectángulo_1575" data-name="Rectángulo 1575" width="40.613" height="5.273" transform="translate(297.178 412.244)" fill="#c4c4c4"/>
      <path id="Trazado_16151" data-name="Trazado 16151" d="M344.974,440.622s-14.307,3.808-27.716,3.808-27.311-3.808-27.311-3.808l6.231-23.105h42.565Z" fill="#fff"/>
    </g>
    <g id="Grupo_7247" data-name="Grupo 7247">
      <g id="Grupo_7245" data-name="Grupo 7245">
        <rect id="Rectángulo_1576" data-name="Rectángulo 1576" width="83.99" height="7.645" transform="translate(331.11 516.064) rotate(-45.001)" fill="#663f30"/>
        <rect id="Rectángulo_1577" data-name="Rectángulo 1577" width="3.269" height="7.645" transform="translate(335.466 511.706) rotate(-45.001)" fill="#8f6655"/>
        <rect id="Rectángulo_1578" data-name="Rectángulo 1578" width="3.269" height="7.645" transform="translate(339.325 507.848) rotate(-45.001)" fill="#8f6655"/>
        <rect id="Rectángulo_1579" data-name="Rectángulo 1579" width="7.062" height="7.645" transform="translate(385.506 461.666) rotate(-45)" fill="#523226"/>
        <rect id="Rectángulo_1580" data-name="Rectángulo 1580" width="6.753" height="17.074" rx="3.249" transform="translate(323.001 517.505) rotate(-45)" fill="#663f30"/>
        <path id="Trazado_16152" data-name="Trazado 16152" d="M337.371,527.28l.181-.18a3.251,3.251,0,0,0,0-4.595l-7.479-7.478a3.248,3.248,0,0,0-4.594,0l-.181.18Z" fill="#523226"/>
        <path id="Rectángulo_1581" data-name="Rectángulo 1581" d="M3.252,0H3.5A3.249,3.249,0,0,1,6.753,3.249V13.825A3.249,3.249,0,0,1,3.5,17.074H3.247A3.247,3.247,0,0,1,0,13.827V3.252A3.252,3.252,0,0,1,3.252,0Z" transform="matrix(0.707, -0.707, 0.707, 0.707, 384.778, 455.727)" fill="#663f30"/>
        <path id="Trazado_16153" data-name="Trazado 16153" d="M399.149,465.5l.18-.18a3.249,3.249,0,0,0,0-4.6l-7.478-7.478a3.249,3.249,0,0,0-4.6,0l-.18.18Z" fill="#523226"/>
        <rect id="Rectángulo_1582" data-name="Rectángulo 1582" width="22.085" height="39.5" transform="translate(381.625 443.023) rotate(-45)" fill="#663f30"/>
        <path id="Trazado_16154" data-name="Trazado 16154" d="M394.355,419.588l.051.051a3.548,3.548,0,0,1,0,5.017l-15.531,15.531a3.548,3.548,0,0,1-5.018,0l-.05-.051a3.546,3.546,0,0,1,0-5.017l15.531-15.531A3.548,3.548,0,0,1,394.355,419.588Z" fill="#663f30"/>
        <path id="Trazado_16155" data-name="Trazado 16155" d="M432.939,458.173l.051.051a3.546,3.546,0,0,1,0,5.017l-15.531,15.531a3.548,3.548,0,0,1-5.017,0l-.051-.051a3.548,3.548,0,0,1,0-5.017l15.531-15.531A3.546,3.546,0,0,1,432.939,458.173Z" fill="#663f30"/>
        <rect id="Rectángulo_1583" data-name="Rectángulo 1583" width="22.085" height="3.95" transform="translate(378.832 440.23) rotate(-45)" fill="#8f6655"/>
        <rect id="Rectángulo_1584" data-name="Rectángulo 1584" width="22.085" height="3.95" transform="translate(409.555 470.953) rotate(-44.997)" fill="#8f6655"/>
      </g>
      <g id="Grupo_7246" data-name="Grupo 7246">
        <path id="Trazado_16156" data-name="Trazado 16156" d="M372.141,540.325H418.92v-.048c0-2.62-3.994-4.744-8.921-4.744H381.062c-4.927,0-8.921,2.124-8.921,4.744Z" fill="#663f30"/>
        <rect id="Rectángulo_1585" data-name="Rectángulo 1585" width="46.779" height="3.121" transform="translate(372.141 540.277)" fill="#8f6655"/>
        <path id="Trazado_16157" data-name="Trazado 16157" d="M366.724,550.073h57.613v-.066c0-3.606-2.1-6.53-4.686-6.53H371.41c-2.588,0-4.686,2.924-4.686,6.53Z" fill="#663f30"/>
        <rect id="Rectángulo_1586" data-name="Rectángulo 1586" width="57.612" height="4.16" transform="translate(366.724 550.073)" fill="#40271e"/>
      </g>
      <path id="Trazado_16158" data-name="Trazado 16158" d="M395.53,517.6a2.37,2.37,0,0,0,2.37-2.369v-15.6a2.369,2.369,0,0,0-4.739,0v15.6A2.369,2.369,0,0,0,395.53,517.6Z" fill="#db8925"/>
      <path id="Trazado_16159" data-name="Trazado 16159" d="M374.97,525.186a2.369,2.369,0,0,0,0-3.35l-11.03-11.029a2.369,2.369,0,0,0-3.351,3.35l11.03,11.029A2.369,2.369,0,0,0,374.97,525.186Z" fill="#db8925"/>
      <path id="Trazado_16160" data-name="Trazado 16160" d="M415.435,526.775a2.369,2.369,0,0,0,3.351,0l11.027-11.029a2.369,2.369,0,1,0-3.35-3.351l-11.028,11.03A2.368,2.368,0,0,0,415.435,526.775Z" fill="#db8925"/>
    </g>
  </g>
</svg>
